%TF.GenerationSoftware,KiCad,Pcbnew,(5.1.9-0-10_14)*%
%TF.CreationDate,2021-02-13T17:32:26+01:00*%
%TF.ProjectId,Arduino Uno Proto Shield,41726475-696e-46f2-9055-6e6f2050726f,rev?*%
%TF.SameCoordinates,Original*%
%TF.FileFunction,Copper,L1,Top*%
%TF.FilePolarity,Positive*%
%FSLAX46Y46*%
G04 Gerber Fmt 4.6, Leading zero omitted, Abs format (unit mm)*
G04 Created by KiCad (PCBNEW (5.1.9-0-10_14)) date 2021-02-13 17:32:26*
%MOMM*%
%LPD*%
G01*
G04 APERTURE LIST*
%TA.AperFunction,ComponentPad*%
%ADD10C,1.998980*%
%TD*%
%TA.AperFunction,ComponentPad*%
%ADD11O,1.700000X1.700000*%
%TD*%
%TA.AperFunction,ComponentPad*%
%ADD12R,1.700000X1.700000*%
%TD*%
%TA.AperFunction,Conductor*%
%ADD13C,0.762000*%
%TD*%
G04 APERTURE END LIST*
D10*
%TO.P,REF\u002A\u002A,1*%
%TO.N,N/C*%
X111760000Y-76200000D03*
%TD*%
%TO.P,REF\u002A\u002A,1*%
%TO.N,N/C*%
X111760000Y-78740000D03*
%TD*%
%TO.P,REF\u002A\u002A,1*%
%TO.N,N/C*%
X109220000Y-76200000D03*
%TD*%
%TO.P,REF\u002A\u002A,1*%
%TO.N,N/C*%
X109220000Y-78740000D03*
%TD*%
D11*
%TO.P,J1,8*%
%TO.N,Net-(J1-Pad8)*%
X147320000Y-124460000D03*
%TO.P,J1,7*%
%TO.N,Net-(J1-Pad7)*%
X144780000Y-124460000D03*
%TO.P,J1,6*%
%TO.N,Net-(J1-Pad6)*%
X142240000Y-124460000D03*
%TO.P,J1,5*%
%TO.N,Net-(J1-Pad5)*%
X139700000Y-124460000D03*
%TO.P,J1,4*%
%TO.N,Net-(J1-Pad4)*%
X137160000Y-124460000D03*
%TO.P,J1,3*%
%TO.N,Net-(J1-Pad3)*%
X134620000Y-124460000D03*
%TO.P,J1,2*%
%TO.N,Net-(J1-Pad2)*%
X132080000Y-124460000D03*
D12*
%TO.P,J1,1*%
%TO.N,Net-(J1-Pad1)*%
X129540000Y-124460000D03*
%TD*%
%TO.P,J2,1*%
%TO.N,Net-(J10-Pad1)*%
X152400000Y-124460000D03*
D11*
%TO.P,J2,2*%
%TO.N,Net-(J11-Pad1)*%
X154940000Y-124460000D03*
%TO.P,J2,3*%
%TO.N,Net-(J12-Pad1)*%
X157480000Y-124460000D03*
%TO.P,J2,4*%
%TO.N,Net-(J13-Pad1)*%
X160020000Y-124460000D03*
%TO.P,J2,5*%
%TO.N,Net-(J14-Pad1)*%
X162560000Y-124460000D03*
%TO.P,J2,6*%
%TO.N,Net-(J15-Pad1)*%
X165100000Y-124460000D03*
%TD*%
D10*
%TO.P,REF\u002A\u002A,1*%
%TO.N,N/C*%
X129540000Y-119380000D03*
%TD*%
%TO.P,REF\u002A\u002A,1*%
%TO.N,N/C*%
X127000000Y-119380000D03*
%TD*%
%TO.P,REF\u002A\u002A,1*%
%TO.N,N/C*%
X162560000Y-116840000D03*
%TD*%
%TO.P,REF\u002A\u002A,1*%
%TO.N,N/C*%
X160020000Y-116840000D03*
%TD*%
%TO.P,REF\u002A\u002A,1*%
%TO.N,N/C*%
X157480000Y-116840000D03*
%TD*%
%TO.P,REF\u002A\u002A,1*%
%TO.N,N/C*%
X154940000Y-116840000D03*
%TD*%
%TO.P,REF\u002A\u002A,1*%
%TO.N,N/C*%
X152400000Y-116840000D03*
%TD*%
%TO.P,REF\u002A\u002A,1*%
%TO.N,N/C*%
X149860000Y-116840000D03*
%TD*%
%TO.P,REF\u002A\u002A,1*%
%TO.N,N/C*%
X147320000Y-116840000D03*
%TD*%
%TO.P,REF\u002A\u002A,1*%
%TO.N,N/C*%
X144780000Y-116840000D03*
%TD*%
%TO.P,REF\u002A\u002A,1*%
%TO.N,N/C*%
X142240000Y-116840000D03*
%TD*%
%TO.P,REF\u002A\u002A,1*%
%TO.N,N/C*%
X139700000Y-116840000D03*
%TD*%
%TO.P,REF\u002A\u002A,1*%
%TO.N,N/C*%
X137160000Y-116840000D03*
%TD*%
%TO.P,REF\u002A\u002A,1*%
%TO.N,N/C*%
X134620000Y-116840000D03*
%TD*%
%TO.P,REF\u002A\u002A,1*%
%TO.N,N/C*%
X132080000Y-116840000D03*
%TD*%
D12*
%TO.P,J34,1*%
%TO.N,Net-(J25-Pad1)*%
X143256000Y-76200000D03*
D11*
%TO.P,J34,2*%
%TO.N,Net-(J24-Pad1)*%
X140716000Y-76200000D03*
%TO.P,J34,3*%
%TO.N,Net-(J23-Pad1)*%
X138176000Y-76200000D03*
%TO.P,J34,4*%
%TO.N,Net-(J22-Pad1)*%
X135636000Y-76200000D03*
%TO.P,J34,5*%
%TO.N,Net-(J21-Pad1)*%
X133096000Y-76200000D03*
%TO.P,J34,6*%
%TO.N,Net-(J20-Pad1)*%
X130556000Y-76200000D03*
%TO.P,J34,7*%
%TO.N,Net-(J19-Pad1)*%
X128016000Y-76200000D03*
%TO.P,J34,8*%
%TO.N,Net-(J18-Pad1)*%
X125476000Y-76200000D03*
%TO.P,J34,9*%
%TO.N,Net-(J17-Pad1)*%
X122936000Y-76200000D03*
%TO.P,J34,10*%
%TO.N,Net-(J16-Pad1)*%
X120396000Y-76200000D03*
%TD*%
D12*
%TO.P,J35,1*%
%TO.N,Net-(J33-Pad1)*%
X165100000Y-76200000D03*
D11*
%TO.P,J35,2*%
%TO.N,Net-(J32-Pad1)*%
X162560000Y-76200000D03*
%TO.P,J35,3*%
%TO.N,Net-(J31-Pad1)*%
X160020000Y-76200000D03*
%TO.P,J35,4*%
%TO.N,Net-(J30-Pad1)*%
X157480000Y-76200000D03*
%TO.P,J35,5*%
%TO.N,Net-(J29-Pad1)*%
X154940000Y-76200000D03*
%TO.P,J35,6*%
%TO.N,Net-(J28-Pad1)*%
X152400000Y-76200000D03*
%TO.P,J35,7*%
%TO.N,Net-(J27-Pad1)*%
X149860000Y-76200000D03*
%TO.P,J35,8*%
%TO.N,Net-(J26-Pad1)*%
X147320000Y-76200000D03*
%TD*%
D10*
%TO.P,REF\u002A\u002A,1*%
%TO.N,N/C*%
X119380000Y-81280000D03*
%TD*%
%TO.P,REF\u002A\u002A,1*%
%TO.N,N/C*%
X165100000Y-83820000D03*
%TD*%
%TO.P,REF\u002A\u002A,1*%
%TO.N,N/C*%
X162560000Y-83820000D03*
%TD*%
%TO.P,REF\u002A\u002A,1*%
%TO.N,N/C*%
X160020000Y-83820000D03*
%TD*%
%TO.P,REF\u002A\u002A,1*%
%TO.N,N/C*%
X157480000Y-83820000D03*
%TD*%
%TO.P,REF\u002A\u002A,1*%
%TO.N,N/C*%
X154940000Y-83820000D03*
%TD*%
%TO.P,REF\u002A\u002A,1*%
%TO.N,N/C*%
X152400000Y-83820000D03*
%TD*%
%TO.P,REF\u002A\u002A,1*%
%TO.N,N/C*%
X149860000Y-83820000D03*
%TD*%
%TO.P,REF\u002A\u002A,1*%
%TO.N,N/C*%
X147320000Y-83820000D03*
%TD*%
%TO.P,REF\u002A\u002A,1*%
%TO.N,N/C*%
X144780000Y-83820000D03*
%TD*%
%TO.P,REF\u002A\u002A,1*%
%TO.N,N/C*%
X142240000Y-83820000D03*
%TD*%
%TO.P,REF\u002A\u002A,1*%
%TO.N,N/C*%
X139700000Y-83820000D03*
%TD*%
%TO.P,REF\u002A\u002A,1*%
%TO.N,N/C*%
X137160000Y-83820000D03*
%TD*%
%TO.P,REF\u002A\u002A,1*%
%TO.N,N/C*%
X134620000Y-83820000D03*
%TD*%
%TO.P,REF\u002A\u002A,1*%
%TO.N,N/C*%
X132080000Y-83820000D03*
%TD*%
%TO.P,REF\u002A\u002A,1*%
%TO.N,N/C*%
X129540000Y-83820000D03*
%TD*%
%TO.P,REF\u002A\u002A,1*%
%TO.N,N/C*%
X127000000Y-83820000D03*
%TD*%
%TO.P,REF\u002A\u002A,1*%
%TO.N,N/C*%
X124460000Y-83820000D03*
%TD*%
%TO.P,REF\u002A\u002A,1*%
%TO.N,N/C*%
X121920000Y-83820000D03*
%TD*%
%TO.P,REF\u002A\u002A,1*%
%TO.N,N/C*%
X119380000Y-83820000D03*
%TD*%
%TO.P,REF\u002A\u002A,1*%
%TO.N,N/C*%
X129540000Y-116840000D03*
%TD*%
%TO.P,REF\u002A\u002A,1*%
%TO.N,N/C*%
X127000000Y-116840000D03*
%TD*%
%TO.P,REF\u002A\u002A,1*%
%TO.N,N/C*%
X162560000Y-93980000D03*
%TD*%
%TO.P,REF\u002A\u002A,1*%
%TO.N,N/C*%
X160020000Y-93980000D03*
%TD*%
%TO.P,REF\u002A\u002A,1*%
%TO.N,N/C*%
X157480000Y-93980000D03*
%TD*%
%TO.P,REF\u002A\u002A,1*%
%TO.N,N/C*%
X154940000Y-93980000D03*
%TD*%
%TO.P,REF\u002A\u002A,1*%
%TO.N,N/C*%
X162560000Y-91440000D03*
%TD*%
%TO.P,REF\u002A\u002A,1*%
%TO.N,N/C*%
X160020000Y-91440000D03*
%TD*%
%TO.P,REF\u002A\u002A,1*%
%TO.N,N/C*%
X157480000Y-91440000D03*
%TD*%
%TO.P,REF\u002A\u002A,1*%
%TO.N,N/C*%
X154940000Y-91440000D03*
%TD*%
%TO.P,REF\u002A\u002A,1*%
%TO.N,N/C*%
X162560000Y-88900000D03*
%TD*%
%TO.P,REF\u002A\u002A,1*%
%TO.N,N/C*%
X160020000Y-88900000D03*
%TD*%
%TO.P,REF\u002A\u002A,1*%
%TO.N,N/C*%
X157480000Y-88900000D03*
%TD*%
%TO.P,REF\u002A\u002A,1*%
%TO.N,N/C*%
X154940000Y-88900000D03*
%TD*%
%TO.P,REF\u002A\u002A,1*%
%TO.N,N/C*%
X165100000Y-86360000D03*
%TD*%
%TO.P,REF\u002A\u002A,1*%
%TO.N,N/C*%
X162560000Y-86360000D03*
%TD*%
%TO.P,REF\u002A\u002A,1*%
%TO.N,N/C*%
X160020000Y-86360000D03*
%TD*%
%TO.P,REF\u002A\u002A,1*%
%TO.N,N/C*%
X157480000Y-86360000D03*
%TD*%
%TO.P,REF\u002A\u002A,1*%
%TO.N,N/C*%
X116840000Y-83820000D03*
%TD*%
%TO.P,REF\u002A\u002A,1*%
%TO.N,N/C*%
X114300000Y-83820000D03*
%TD*%
%TO.P,REF\u002A\u002A,1*%
%TO.N,N/C*%
X111760000Y-83820000D03*
%TD*%
%TO.P,REF\u002A\u002A,1*%
%TO.N,N/C*%
X116840000Y-81280000D03*
%TD*%
%TO.P,REF\u002A\u002A,1*%
%TO.N,N/C*%
X114300000Y-81280000D03*
%TD*%
%TO.P,REF\u002A\u002A,1*%
%TO.N,N/C*%
X106680000Y-78740000D03*
%TD*%
%TO.P,REF\u002A\u002A,1*%
%TO.N,N/C*%
X104140000Y-78740000D03*
%TD*%
%TO.P,REF\u002A\u002A,1*%
%TO.N,N/C*%
X106680000Y-76200000D03*
%TD*%
%TO.P,REF\u002A\u002A,1*%
%TO.N,N/C*%
X154940000Y-86360000D03*
%TD*%
%TO.P,REF\u002A\u002A,1*%
%TO.N,N/C*%
X167640000Y-109220000D03*
%TD*%
%TO.P,REF\u002A\u002A,1*%
%TO.N,N/C*%
X111760000Y-81280000D03*
%TD*%
%TO.P,REF\u002A\u002A,1*%
%TO.N,N/C*%
X167640000Y-106680000D03*
%TD*%
%TO.P,REF\u002A\u002A,1*%
%TO.N,N/C*%
X165100000Y-106680000D03*
%TD*%
%TO.P,REF\u002A\u002A,1*%
%TO.N,N/C*%
X162560000Y-106680000D03*
%TD*%
%TO.P,REF\u002A\u002A,1*%
%TO.N,N/C*%
X160020000Y-106680000D03*
%TD*%
%TO.P,REF\u002A\u002A,1*%
%TO.N,N/C*%
X157480000Y-106680000D03*
%TD*%
%TO.P,REF\u002A\u002A,1*%
%TO.N,N/C*%
X154940000Y-106680000D03*
%TD*%
%TO.P,REF\u002A\u002A,1*%
%TO.N,N/C*%
X167640000Y-104140000D03*
%TD*%
%TO.P,REF\u002A\u002A,1*%
%TO.N,N/C*%
X165100000Y-104140000D03*
%TD*%
%TO.P,REF\u002A\u002A,1*%
%TO.N,N/C*%
X162560000Y-104140000D03*
%TD*%
%TO.P,REF\u002A\u002A,1*%
%TO.N,N/C*%
X160020000Y-104140000D03*
%TD*%
%TO.P,REF\u002A\u002A,1*%
%TO.N,N/C*%
X157480000Y-104140000D03*
%TD*%
%TO.P,REF\u002A\u002A,1*%
%TO.N,N/C*%
X154940000Y-104140000D03*
%TD*%
%TO.P,REF\u002A\u002A,1*%
%TO.N,N/C*%
X167640000Y-101600000D03*
%TD*%
%TO.P,REF\u002A\u002A,1*%
%TO.N,N/C*%
X165100000Y-101600000D03*
%TD*%
%TO.P,REF\u002A\u002A,1*%
%TO.N,N/C*%
X162560000Y-101600000D03*
%TD*%
%TO.P,REF\u002A\u002A,1*%
%TO.N,N/C*%
X160020000Y-101600000D03*
%TD*%
%TO.P,REF\u002A\u002A,1*%
%TO.N,N/C*%
X157480000Y-101600000D03*
%TD*%
%TO.P,REF\u002A\u002A,1*%
%TO.N,N/C*%
X154940000Y-101600000D03*
%TD*%
%TO.P,REF\u002A\u002A,1*%
%TO.N,N/C*%
X167640000Y-99060000D03*
%TD*%
%TO.P,REF\u002A\u002A,1*%
%TO.N,N/C*%
X165100000Y-99060000D03*
%TD*%
%TO.P,REF\u002A\u002A,1*%
%TO.N,N/C*%
X162560000Y-99060000D03*
%TD*%
%TO.P,REF\u002A\u002A,1*%
%TO.N,N/C*%
X160020000Y-99060000D03*
%TD*%
%TO.P,REF\u002A\u002A,1*%
%TO.N,N/C*%
X157480000Y-99060000D03*
%TD*%
%TO.P,REF\u002A\u002A,1*%
%TO.N,N/C*%
X154940000Y-99060000D03*
%TD*%
%TO.P,REF\u002A\u002A,1*%
%TO.N,N/C*%
X167640000Y-96520000D03*
%TD*%
%TO.P,REF\u002A\u002A,1*%
%TO.N,N/C*%
X165100000Y-96520000D03*
%TD*%
%TO.P,REF\u002A\u002A,1*%
%TO.N,N/C*%
X162560000Y-96520000D03*
%TD*%
%TO.P,REF\u002A\u002A,1*%
%TO.N,N/C*%
X160020000Y-96520000D03*
%TD*%
%TO.P,REF\u002A\u002A,1*%
%TO.N,N/C*%
X157480000Y-96520000D03*
%TD*%
%TO.P,REF\u002A\u002A,1*%
%TO.N,N/C*%
X167640000Y-114300000D03*
%TD*%
%TO.P,REF\u002A\u002A,1*%
%TO.N,N/C*%
X165100000Y-114300000D03*
%TD*%
%TO.P,REF\u002A\u002A,1*%
%TO.N,N/C*%
X162560000Y-114300000D03*
%TD*%
%TO.P,REF\u002A\u002A,1*%
%TO.N,N/C*%
X160020000Y-114300000D03*
%TD*%
%TO.P,REF\u002A\u002A,1*%
%TO.N,N/C*%
X157480000Y-114300000D03*
%TD*%
%TO.P,REF\u002A\u002A,1*%
%TO.N,N/C*%
X154940000Y-114300000D03*
%TD*%
%TO.P,REF\u002A\u002A,1*%
%TO.N,N/C*%
X152400000Y-114300000D03*
%TD*%
%TO.P,REF\u002A\u002A,1*%
%TO.N,N/C*%
X149860000Y-114300000D03*
%TD*%
%TO.P,REF\u002A\u002A,1*%
%TO.N,N/C*%
X147320000Y-114300000D03*
%TD*%
%TO.P,REF\u002A\u002A,1*%
%TO.N,N/C*%
X144780000Y-114300000D03*
%TD*%
%TO.P,REF\u002A\u002A,1*%
%TO.N,N/C*%
X142240000Y-114300000D03*
%TD*%
%TO.P,REF\u002A\u002A,1*%
%TO.N,N/C*%
X139700000Y-114300000D03*
%TD*%
%TO.P,REF\u002A\u002A,1*%
%TO.N,N/C*%
X137160000Y-114300000D03*
%TD*%
%TO.P,REF\u002A\u002A,1*%
%TO.N,N/C*%
X134620000Y-114300000D03*
%TD*%
%TO.P,REF\u002A\u002A,1*%
%TO.N,N/C*%
X167640000Y-111760000D03*
%TD*%
%TO.P,REF\u002A\u002A,1*%
%TO.N,N/C*%
X165100000Y-111760000D03*
%TD*%
%TO.P,REF\u002A\u002A,1*%
%TO.N,N/C*%
X162560000Y-111760000D03*
%TD*%
%TO.P,REF\u002A\u002A,1*%
%TO.N,N/C*%
X160020000Y-111760000D03*
%TD*%
%TO.P,REF\u002A\u002A,1*%
%TO.N,N/C*%
X157480000Y-111760000D03*
%TD*%
%TO.P,REF\u002A\u002A,1*%
%TO.N,N/C*%
X154940000Y-111760000D03*
%TD*%
%TO.P,REF\u002A\u002A,1*%
%TO.N,N/C*%
X152400000Y-111760000D03*
%TD*%
%TO.P,REF\u002A\u002A,1*%
%TO.N,N/C*%
X149860000Y-111760000D03*
%TD*%
%TO.P,REF\u002A\u002A,1*%
%TO.N,N/C*%
X147320000Y-111760000D03*
%TD*%
%TO.P,REF\u002A\u002A,1*%
%TO.N,N/C*%
X144780000Y-111760000D03*
%TD*%
%TO.P,REF\u002A\u002A,1*%
%TO.N,N/C*%
X142240000Y-111760000D03*
%TD*%
%TO.P,REF\u002A\u002A,1*%
%TO.N,N/C*%
X139700000Y-111760000D03*
%TD*%
%TO.P,REF\u002A\u002A,1*%
%TO.N,N/C*%
X137160000Y-111760000D03*
%TD*%
%TO.P,REF\u002A\u002A,1*%
%TO.N,N/C*%
X134620000Y-111760000D03*
%TD*%
%TO.P,REF\u002A\u002A,1*%
%TO.N,N/C*%
X154940000Y-96520000D03*
%TD*%
%TO.P,REF\u002A\u002A,1*%
%TO.N,N/C*%
X165100000Y-109220000D03*
%TD*%
%TO.P,REF\u002A\u002A,1*%
%TO.N,N/C*%
X162560000Y-109220000D03*
%TD*%
%TO.P,REF\u002A\u002A,1*%
%TO.N,N/C*%
X160020000Y-109220000D03*
%TD*%
%TO.P,REF\u002A\u002A,1*%
%TO.N,N/C*%
X157480000Y-109220000D03*
%TD*%
%TO.P,REF\u002A\u002A,1*%
%TO.N,N/C*%
X154940000Y-109220000D03*
%TD*%
%TO.P,REF\u002A\u002A,1*%
%TO.N,N/C*%
X152400000Y-109220000D03*
%TD*%
%TO.P,REF\u002A\u002A,1*%
%TO.N,N/C*%
X149860000Y-109220000D03*
%TD*%
%TO.P,REF\u002A\u002A,1*%
%TO.N,N/C*%
X147320000Y-109220000D03*
%TD*%
%TO.P,REF\u002A\u002A,1*%
%TO.N,N/C*%
X144780000Y-109220000D03*
%TD*%
%TO.P,REF\u002A\u002A,1*%
%TO.N,N/C*%
X142240000Y-109220000D03*
%TD*%
%TO.P,REF\u002A\u002A,1*%
%TO.N,N/C*%
X139700000Y-109220000D03*
%TD*%
%TO.P,REF\u002A\u002A,1*%
%TO.N,N/C*%
X137160000Y-109220000D03*
%TD*%
%TO.P,REF\u002A\u002A,1*%
%TO.N,N/C*%
X152400000Y-106680000D03*
%TD*%
%TO.P,REF\u002A\u002A,1*%
%TO.N,N/C*%
X149860000Y-106680000D03*
%TD*%
%TO.P,REF\u002A\u002A,1*%
%TO.N,N/C*%
X147320000Y-106680000D03*
%TD*%
%TO.P,REF\u002A\u002A,1*%
%TO.N,N/C*%
X144780000Y-106680000D03*
%TD*%
%TO.P,REF\u002A\u002A,1*%
%TO.N,N/C*%
X142240000Y-106680000D03*
%TD*%
%TO.P,REF\u002A\u002A,1*%
%TO.N,N/C*%
X139700000Y-106680000D03*
%TD*%
%TO.P,REF\u002A\u002A,1*%
%TO.N,N/C*%
X137160000Y-106680000D03*
%TD*%
%TO.P,REF\u002A\u002A,1*%
%TO.N,N/C*%
X134620000Y-106680000D03*
%TD*%
%TO.P,REF\u002A\u002A,1*%
%TO.N,N/C*%
X132080000Y-106680000D03*
%TD*%
%TO.P,REF\u002A\u002A,1*%
%TO.N,N/C*%
X129540000Y-106680000D03*
%TD*%
%TO.P,REF\u002A\u002A,1*%
%TO.N,N/C*%
X127000000Y-106680000D03*
%TD*%
%TO.P,REF\u002A\u002A,1*%
%TO.N,N/C*%
X124460000Y-106680000D03*
%TD*%
%TO.P,REF\u002A\u002A,1*%
%TO.N,N/C*%
X121920000Y-106680000D03*
%TD*%
%TO.P,REF\u002A\u002A,1*%
%TO.N,N/C*%
X119380000Y-106680000D03*
%TD*%
%TO.P,REF\u002A\u002A,1*%
%TO.N,N/C*%
X116840000Y-106680000D03*
%TD*%
%TO.P,REF\u002A\u002A,1*%
%TO.N,N/C*%
X114300000Y-106680000D03*
%TD*%
%TO.P,REF\u002A\u002A,1*%
%TO.N,N/C*%
X152400000Y-104140000D03*
%TD*%
%TO.P,REF\u002A\u002A,1*%
%TO.N,N/C*%
X149860000Y-104140000D03*
%TD*%
%TO.P,REF\u002A\u002A,1*%
%TO.N,N/C*%
X147320000Y-104140000D03*
%TD*%
%TO.P,REF\u002A\u002A,1*%
%TO.N,N/C*%
X144780000Y-104140000D03*
%TD*%
%TO.P,REF\u002A\u002A,1*%
%TO.N,N/C*%
X142240000Y-104140000D03*
%TD*%
%TO.P,REF\u002A\u002A,1*%
%TO.N,N/C*%
X139700000Y-104140000D03*
%TD*%
%TO.P,REF\u002A\u002A,1*%
%TO.N,N/C*%
X137160000Y-104140000D03*
%TD*%
%TO.P,REF\u002A\u002A,1*%
%TO.N,N/C*%
X134620000Y-104140000D03*
%TD*%
%TO.P,REF\u002A\u002A,1*%
%TO.N,N/C*%
X132080000Y-104140000D03*
%TD*%
%TO.P,REF\u002A\u002A,1*%
%TO.N,N/C*%
X129540000Y-104140000D03*
%TD*%
%TO.P,REF\u002A\u002A,1*%
%TO.N,N/C*%
X127000000Y-104140000D03*
%TD*%
%TO.P,REF\u002A\u002A,1*%
%TO.N,N/C*%
X124460000Y-104140000D03*
%TD*%
%TO.P,REF\u002A\u002A,1*%
%TO.N,N/C*%
X121920000Y-104140000D03*
%TD*%
%TO.P,REF\u002A\u002A,1*%
%TO.N,N/C*%
X119380000Y-104140000D03*
%TD*%
%TO.P,REF\u002A\u002A,1*%
%TO.N,N/C*%
X116840000Y-104140000D03*
%TD*%
%TO.P,REF\u002A\u002A,1*%
%TO.N,N/C*%
X114300000Y-104140000D03*
%TD*%
%TO.P,REF\u002A\u002A,1*%
%TO.N,N/C*%
X152400000Y-101600000D03*
%TD*%
%TO.P,REF\u002A\u002A,1*%
%TO.N,N/C*%
X149860000Y-101600000D03*
%TD*%
%TO.P,REF\u002A\u002A,1*%
%TO.N,N/C*%
X147320000Y-101600000D03*
%TD*%
%TO.P,REF\u002A\u002A,1*%
%TO.N,N/C*%
X144780000Y-101600000D03*
%TD*%
%TO.P,REF\u002A\u002A,1*%
%TO.N,N/C*%
X142240000Y-101600000D03*
%TD*%
%TO.P,REF\u002A\u002A,1*%
%TO.N,N/C*%
X139700000Y-101600000D03*
%TD*%
%TO.P,REF\u002A\u002A,1*%
%TO.N,N/C*%
X137160000Y-101600000D03*
%TD*%
%TO.P,REF\u002A\u002A,1*%
%TO.N,N/C*%
X134620000Y-101600000D03*
%TD*%
%TO.P,REF\u002A\u002A,1*%
%TO.N,N/C*%
X132080000Y-101600000D03*
%TD*%
%TO.P,REF\u002A\u002A,1*%
%TO.N,N/C*%
X129540000Y-101600000D03*
%TD*%
%TO.P,REF\u002A\u002A,1*%
%TO.N,N/C*%
X127000000Y-101600000D03*
%TD*%
%TO.P,REF\u002A\u002A,1*%
%TO.N,N/C*%
X124460000Y-101600000D03*
%TD*%
%TO.P,REF\u002A\u002A,1*%
%TO.N,N/C*%
X121920000Y-101600000D03*
%TD*%
%TO.P,REF\u002A\u002A,1*%
%TO.N,N/C*%
X119380000Y-101600000D03*
%TD*%
%TO.P,REF\u002A\u002A,1*%
%TO.N,N/C*%
X116840000Y-101600000D03*
%TD*%
%TO.P,REF\u002A\u002A,1*%
%TO.N,N/C*%
X114300000Y-101600000D03*
%TD*%
%TO.P,REF\u002A\u002A,1*%
%TO.N,N/C*%
X152400000Y-99060000D03*
%TD*%
%TO.P,REF\u002A\u002A,1*%
%TO.N,N/C*%
X149860000Y-99060000D03*
%TD*%
%TO.P,REF\u002A\u002A,1*%
%TO.N,N/C*%
X147320000Y-99060000D03*
%TD*%
%TO.P,REF\u002A\u002A,1*%
%TO.N,N/C*%
X144780000Y-99060000D03*
%TD*%
%TO.P,REF\u002A\u002A,1*%
%TO.N,N/C*%
X142240000Y-99060000D03*
%TD*%
%TO.P,REF\u002A\u002A,1*%
%TO.N,N/C*%
X139700000Y-99060000D03*
%TD*%
%TO.P,REF\u002A\u002A,1*%
%TO.N,N/C*%
X137160000Y-99060000D03*
%TD*%
%TO.P,REF\u002A\u002A,1*%
%TO.N,N/C*%
X134620000Y-99060000D03*
%TD*%
%TO.P,REF\u002A\u002A,1*%
%TO.N,N/C*%
X132080000Y-99060000D03*
%TD*%
%TO.P,REF\u002A\u002A,1*%
%TO.N,N/C*%
X129540000Y-99060000D03*
%TD*%
%TO.P,REF\u002A\u002A,1*%
%TO.N,N/C*%
X127000000Y-99060000D03*
%TD*%
%TO.P,REF\u002A\u002A,1*%
%TO.N,N/C*%
X124460000Y-99060000D03*
%TD*%
%TO.P,REF\u002A\u002A,1*%
%TO.N,N/C*%
X121920000Y-99060000D03*
%TD*%
%TO.P,REF\u002A\u002A,1*%
%TO.N,N/C*%
X119380000Y-99060000D03*
%TD*%
%TO.P,REF\u002A\u002A,1*%
%TO.N,N/C*%
X116840000Y-99060000D03*
%TD*%
%TO.P,REF\u002A\u002A,1*%
%TO.N,N/C*%
X114300000Y-99060000D03*
%TD*%
%TO.P,REF\u002A\u002A,1*%
%TO.N,N/C*%
X152400000Y-96520000D03*
%TD*%
%TO.P,REF\u002A\u002A,1*%
%TO.N,N/C*%
X149860000Y-96520000D03*
%TD*%
%TO.P,REF\u002A\u002A,1*%
%TO.N,N/C*%
X147320000Y-96520000D03*
%TD*%
%TO.P,REF\u002A\u002A,1*%
%TO.N,N/C*%
X144780000Y-96520000D03*
%TD*%
%TO.P,REF\u002A\u002A,1*%
%TO.N,N/C*%
X142240000Y-96520000D03*
%TD*%
%TO.P,REF\u002A\u002A,1*%
%TO.N,N/C*%
X139700000Y-96520000D03*
%TD*%
%TO.P,REF\u002A\u002A,1*%
%TO.N,N/C*%
X137160000Y-96520000D03*
%TD*%
%TO.P,REF\u002A\u002A,1*%
%TO.N,N/C*%
X134620000Y-96520000D03*
%TD*%
%TO.P,REF\u002A\u002A,1*%
%TO.N,N/C*%
X132080000Y-96520000D03*
%TD*%
%TO.P,REF\u002A\u002A,1*%
%TO.N,N/C*%
X129540000Y-96520000D03*
%TD*%
%TO.P,REF\u002A\u002A,1*%
%TO.N,N/C*%
X127000000Y-96520000D03*
%TD*%
%TO.P,REF\u002A\u002A,1*%
%TO.N,N/C*%
X124460000Y-96520000D03*
%TD*%
%TO.P,REF\u002A\u002A,1*%
%TO.N,N/C*%
X121920000Y-96520000D03*
%TD*%
%TO.P,REF\u002A\u002A,1*%
%TO.N,N/C*%
X119380000Y-96520000D03*
%TD*%
%TO.P,REF\u002A\u002A,1*%
%TO.N,N/C*%
X116840000Y-96520000D03*
%TD*%
%TO.P,REF\u002A\u002A,1*%
%TO.N,N/C*%
X114300000Y-96520000D03*
%TD*%
%TO.P,REF\u002A\u002A,1*%
%TO.N,N/C*%
X152400000Y-93980000D03*
%TD*%
%TO.P,REF\u002A\u002A,1*%
%TO.N,N/C*%
X149860000Y-93980000D03*
%TD*%
%TO.P,REF\u002A\u002A,1*%
%TO.N,N/C*%
X147320000Y-93980000D03*
%TD*%
%TO.P,REF\u002A\u002A,1*%
%TO.N,N/C*%
X144780000Y-93980000D03*
%TD*%
%TO.P,REF\u002A\u002A,1*%
%TO.N,N/C*%
X142240000Y-93980000D03*
%TD*%
%TO.P,REF\u002A\u002A,1*%
%TO.N,N/C*%
X139700000Y-93980000D03*
%TD*%
%TO.P,REF\u002A\u002A,1*%
%TO.N,N/C*%
X137160000Y-93980000D03*
%TD*%
%TO.P,REF\u002A\u002A,1*%
%TO.N,N/C*%
X134620000Y-93980000D03*
%TD*%
%TO.P,REF\u002A\u002A,1*%
%TO.N,N/C*%
X132080000Y-93980000D03*
%TD*%
%TO.P,REF\u002A\u002A,1*%
%TO.N,N/C*%
X129540000Y-93980000D03*
%TD*%
%TO.P,REF\u002A\u002A,1*%
%TO.N,N/C*%
X127000000Y-93980000D03*
%TD*%
%TO.P,REF\u002A\u002A,1*%
%TO.N,N/C*%
X124460000Y-93980000D03*
%TD*%
%TO.P,REF\u002A\u002A,1*%
%TO.N,N/C*%
X121920000Y-93980000D03*
%TD*%
%TO.P,REF\u002A\u002A,1*%
%TO.N,N/C*%
X119380000Y-93980000D03*
%TD*%
%TO.P,REF\u002A\u002A,1*%
%TO.N,N/C*%
X116840000Y-93980000D03*
%TD*%
%TO.P,REF\u002A\u002A,1*%
%TO.N,N/C*%
X114300000Y-93980000D03*
%TD*%
%TO.P,REF\u002A\u002A,1*%
%TO.N,N/C*%
X152400000Y-91440000D03*
%TD*%
%TO.P,REF\u002A\u002A,1*%
%TO.N,N/C*%
X149860000Y-91440000D03*
%TD*%
%TO.P,REF\u002A\u002A,1*%
%TO.N,N/C*%
X147320000Y-91440000D03*
%TD*%
%TO.P,REF\u002A\u002A,1*%
%TO.N,N/C*%
X144780000Y-91440000D03*
%TD*%
%TO.P,REF\u002A\u002A,1*%
%TO.N,N/C*%
X142240000Y-91440000D03*
%TD*%
%TO.P,REF\u002A\u002A,1*%
%TO.N,N/C*%
X139700000Y-91440000D03*
%TD*%
%TO.P,REF\u002A\u002A,1*%
%TO.N,N/C*%
X137160000Y-91440000D03*
%TD*%
%TO.P,REF\u002A\u002A,1*%
%TO.N,N/C*%
X134620000Y-91440000D03*
%TD*%
%TO.P,REF\u002A\u002A,1*%
%TO.N,N/C*%
X132080000Y-91440000D03*
%TD*%
%TO.P,REF\u002A\u002A,1*%
%TO.N,N/C*%
X129540000Y-91440000D03*
%TD*%
%TO.P,REF\u002A\u002A,1*%
%TO.N,N/C*%
X127000000Y-91440000D03*
%TD*%
%TO.P,REF\u002A\u002A,1*%
%TO.N,N/C*%
X124460000Y-91440000D03*
%TD*%
%TO.P,REF\u002A\u002A,1*%
%TO.N,N/C*%
X121920000Y-91440000D03*
%TD*%
%TO.P,REF\u002A\u002A,1*%
%TO.N,N/C*%
X119380000Y-91440000D03*
%TD*%
%TO.P,REF\u002A\u002A,1*%
%TO.N,N/C*%
X116840000Y-91440000D03*
%TD*%
%TO.P,REF\u002A\u002A,1*%
%TO.N,N/C*%
X114300000Y-91440000D03*
%TD*%
%TO.P,REF\u002A\u002A,1*%
%TO.N,N/C*%
X152400000Y-88900000D03*
%TD*%
%TO.P,REF\u002A\u002A,1*%
%TO.N,N/C*%
X149860000Y-88900000D03*
%TD*%
%TO.P,REF\u002A\u002A,1*%
%TO.N,N/C*%
X147320000Y-88900000D03*
%TD*%
%TO.P,REF\u002A\u002A,1*%
%TO.N,N/C*%
X144780000Y-88900000D03*
%TD*%
%TO.P,REF\u002A\u002A,1*%
%TO.N,N/C*%
X142240000Y-88900000D03*
%TD*%
%TO.P,REF\u002A\u002A,1*%
%TO.N,N/C*%
X139700000Y-88900000D03*
%TD*%
%TO.P,REF\u002A\u002A,1*%
%TO.N,N/C*%
X137160000Y-88900000D03*
%TD*%
%TO.P,REF\u002A\u002A,1*%
%TO.N,N/C*%
X134620000Y-88900000D03*
%TD*%
%TO.P,REF\u002A\u002A,1*%
%TO.N,N/C*%
X132080000Y-88900000D03*
%TD*%
%TO.P,REF\u002A\u002A,1*%
%TO.N,N/C*%
X129540000Y-88900000D03*
%TD*%
%TO.P,REF\u002A\u002A,1*%
%TO.N,N/C*%
X127000000Y-88900000D03*
%TD*%
%TO.P,REF\u002A\u002A,1*%
%TO.N,N/C*%
X124460000Y-88900000D03*
%TD*%
%TO.P,REF\u002A\u002A,1*%
%TO.N,N/C*%
X121920000Y-88900000D03*
%TD*%
%TO.P,REF\u002A\u002A,1*%
%TO.N,N/C*%
X119380000Y-88900000D03*
%TD*%
%TO.P,REF\u002A\u002A,1*%
%TO.N,N/C*%
X116840000Y-88900000D03*
%TD*%
%TO.P,REF\u002A\u002A,1*%
%TO.N,N/C*%
X114300000Y-88900000D03*
%TD*%
%TO.P,REF\u002A\u002A,1*%
%TO.N,N/C*%
X152400000Y-86360000D03*
%TD*%
%TO.P,REF\u002A\u002A,1*%
%TO.N,N/C*%
X149860000Y-86360000D03*
%TD*%
%TO.P,REF\u002A\u002A,1*%
%TO.N,N/C*%
X147320000Y-86360000D03*
%TD*%
%TO.P,REF\u002A\u002A,1*%
%TO.N,N/C*%
X144780000Y-86360000D03*
%TD*%
%TO.P,REF\u002A\u002A,1*%
%TO.N,N/C*%
X142240000Y-86360000D03*
%TD*%
%TO.P,REF\u002A\u002A,1*%
%TO.N,N/C*%
X139700000Y-86360000D03*
%TD*%
%TO.P,REF\u002A\u002A,1*%
%TO.N,N/C*%
X137160000Y-86360000D03*
%TD*%
%TO.P,REF\u002A\u002A,1*%
%TO.N,N/C*%
X134620000Y-86360000D03*
%TD*%
%TO.P,REF\u002A\u002A,1*%
%TO.N,N/C*%
X132080000Y-86360000D03*
%TD*%
%TO.P,REF\u002A\u002A,1*%
%TO.N,N/C*%
X129540000Y-86360000D03*
%TD*%
%TO.P,REF\u002A\u002A,1*%
%TO.N,N/C*%
X127000000Y-86360000D03*
%TD*%
%TO.P,REF\u002A\u002A,1*%
%TO.N,N/C*%
X124460000Y-86360000D03*
%TD*%
%TO.P,REF\u002A\u002A,1*%
%TO.N,N/C*%
X121920000Y-86360000D03*
%TD*%
%TO.P,REF\u002A\u002A,1*%
%TO.N,N/C*%
X119380000Y-86360000D03*
%TD*%
%TO.P,REF\u002A\u002A,1*%
%TO.N,N/C*%
X116840000Y-86360000D03*
%TD*%
%TO.P,REF\u002A\u002A,1*%
%TO.N,N/C*%
X104140000Y-76200000D03*
%TD*%
%TO.P,REF\u002A\u002A,1*%
%TO.N,N/C*%
X124460000Y-116840000D03*
%TD*%
%TO.P,REF\u002A\u002A,1*%
%TO.N,N/C*%
X121920000Y-116840000D03*
%TD*%
%TO.P,REF\u002A\u002A,1*%
%TO.N,N/C*%
X119380000Y-116840000D03*
%TD*%
%TO.P,REF\u002A\u002A,1*%
%TO.N,N/C*%
X116840000Y-116840000D03*
%TD*%
%TO.P,REF\u002A\u002A,1*%
%TO.N,N/C*%
X114300000Y-116840000D03*
%TD*%
%TO.P,REF\u002A\u002A,1*%
%TO.N,N/C*%
X132080000Y-114300000D03*
%TD*%
%TO.P,REF\u002A\u002A,1*%
%TO.N,N/C*%
X129540000Y-114300000D03*
%TD*%
%TO.P,REF\u002A\u002A,1*%
%TO.N,N/C*%
X127000000Y-114300000D03*
%TD*%
%TO.P,REF\u002A\u002A,1*%
%TO.N,N/C*%
X124460000Y-114300000D03*
%TD*%
%TO.P,REF\u002A\u002A,1*%
%TO.N,N/C*%
X121920000Y-114300000D03*
%TD*%
%TO.P,REF\u002A\u002A,1*%
%TO.N,N/C*%
X119380000Y-114300000D03*
%TD*%
%TO.P,REF\u002A\u002A,1*%
%TO.N,N/C*%
X116840000Y-114300000D03*
%TD*%
%TO.P,REF\u002A\u002A,1*%
%TO.N,N/C*%
X114300000Y-114300000D03*
%TD*%
%TO.P,REF\u002A\u002A,1*%
%TO.N,N/C*%
X132080000Y-111760000D03*
%TD*%
%TO.P,REF\u002A\u002A,1*%
%TO.N,N/C*%
X129540000Y-111760000D03*
%TD*%
%TO.P,REF\u002A\u002A,1*%
%TO.N,N/C*%
X127000000Y-111760000D03*
%TD*%
%TO.P,REF\u002A\u002A,1*%
%TO.N,N/C*%
X124460000Y-111760000D03*
%TD*%
%TO.P,REF\u002A\u002A,1*%
%TO.N,N/C*%
X121920000Y-111760000D03*
%TD*%
%TO.P,REF\u002A\u002A,1*%
%TO.N,N/C*%
X119380000Y-111760000D03*
%TD*%
%TO.P,REF\u002A\u002A,1*%
%TO.N,N/C*%
X116840000Y-111760000D03*
%TD*%
%TO.P,REF\u002A\u002A,1*%
%TO.N,N/C*%
X114300000Y-111760000D03*
%TD*%
%TO.P,REF\u002A\u002A,1*%
%TO.N,N/C*%
X132080000Y-109220000D03*
%TD*%
%TO.P,REF\u002A\u002A,1*%
%TO.N,N/C*%
X129540000Y-109220000D03*
%TD*%
%TO.P,REF\u002A\u002A,1*%
%TO.N,N/C*%
X127000000Y-109220000D03*
%TD*%
%TO.P,REF\u002A\u002A,1*%
%TO.N,N/C*%
X124460000Y-109220000D03*
%TD*%
%TO.P,REF\u002A\u002A,1*%
%TO.N,N/C*%
X121920000Y-109220000D03*
%TD*%
%TO.P,REF\u002A\u002A,1*%
%TO.N,N/C*%
X119380000Y-109220000D03*
%TD*%
%TO.P,REF\u002A\u002A,1*%
%TO.N,N/C*%
X116840000Y-109220000D03*
%TD*%
%TO.P,REF\u002A\u002A,1*%
%TO.N,N/C*%
X124460000Y-119380000D03*
%TD*%
%TO.P,REF\u002A\u002A,1*%
%TO.N,N/C*%
X121920000Y-119380000D03*
%TD*%
%TO.P,REF\u002A\u002A,1*%
%TO.N,N/C*%
X119380000Y-119380000D03*
%TD*%
%TO.P,REF\u002A\u002A,1*%
%TO.N,N/C*%
X116840000Y-119380000D03*
%TD*%
%TO.P,REF\u002A\u002A,1*%
%TO.N,N/C*%
X114300000Y-119380000D03*
%TD*%
%TO.P,REF\u002A\u002A,1*%
%TO.N,N/C*%
X106680000Y-81280000D03*
%TD*%
%TO.P,REF\u002A\u002A,1*%
%TO.N,N/C*%
X109220000Y-124460000D03*
%TD*%
%TO.P,REF\u002A\u002A,1*%
%TO.N,N/C*%
X109220000Y-81280000D03*
%TD*%
%TO.P,REF\u002A\u002A,1*%
%TO.N,N/C*%
X109220000Y-121920000D03*
%TD*%
%TO.P,REF\u002A\u002A,1*%
%TO.N,N/C*%
X111760000Y-119380000D03*
%TD*%
%TO.P,REF\u002A\u002A,1*%
%TO.N,N/C*%
X109220000Y-119380000D03*
%TD*%
%TO.P,REF\u002A\u002A,1*%
%TO.N,N/C*%
X111760000Y-116840000D03*
%TD*%
%TO.P,REF\u002A\u002A,1*%
%TO.N,N/C*%
X109220000Y-116840000D03*
%TD*%
%TO.P,REF\u002A\u002A,1*%
%TO.N,N/C*%
X111760000Y-114300000D03*
%TD*%
%TO.P,REF\u002A\u002A,1*%
%TO.N,N/C*%
X109220000Y-114300000D03*
%TD*%
%TO.P,REF\u002A\u002A,1*%
%TO.N,N/C*%
X111760000Y-111760000D03*
%TD*%
%TO.P,REF\u002A\u002A,1*%
%TO.N,N/C*%
X109220000Y-111760000D03*
%TD*%
%TO.P,REF\u002A\u002A,1*%
%TO.N,N/C*%
X111760000Y-109220000D03*
%TD*%
%TO.P,REF\u002A\u002A,1*%
%TO.N,N/C*%
X109220000Y-109220000D03*
%TD*%
%TO.P,REF\u002A\u002A,1*%
%TO.N,N/C*%
X111760000Y-106680000D03*
%TD*%
%TO.P,REF\u002A\u002A,1*%
%TO.N,N/C*%
X109220000Y-106680000D03*
%TD*%
%TO.P,REF\u002A\u002A,1*%
%TO.N,N/C*%
X111760000Y-104140000D03*
%TD*%
%TO.P,REF\u002A\u002A,1*%
%TO.N,N/C*%
X109220000Y-104140000D03*
%TD*%
%TO.P,REF\u002A\u002A,1*%
%TO.N,N/C*%
X111760000Y-101600000D03*
%TD*%
%TO.P,REF\u002A\u002A,1*%
%TO.N,N/C*%
X109220000Y-101600000D03*
%TD*%
%TO.P,REF\u002A\u002A,1*%
%TO.N,N/C*%
X111760000Y-99060000D03*
%TD*%
%TO.P,REF\u002A\u002A,1*%
%TO.N,N/C*%
X109220000Y-99060000D03*
%TD*%
%TO.P,REF\u002A\u002A,1*%
%TO.N,N/C*%
X111760000Y-96520000D03*
%TD*%
%TO.P,REF\u002A\u002A,1*%
%TO.N,N/C*%
X109220000Y-96520000D03*
%TD*%
%TO.P,REF\u002A\u002A,1*%
%TO.N,N/C*%
X111760000Y-93980000D03*
%TD*%
%TO.P,REF\u002A\u002A,1*%
%TO.N,N/C*%
X109220000Y-93980000D03*
%TD*%
%TO.P,REF\u002A\u002A,1*%
%TO.N,N/C*%
X111760000Y-91440000D03*
%TD*%
%TO.P,REF\u002A\u002A,1*%
%TO.N,N/C*%
X109220000Y-91440000D03*
%TD*%
%TO.P,REF\u002A\u002A,1*%
%TO.N,N/C*%
X111760000Y-88900000D03*
%TD*%
%TO.P,REF\u002A\u002A,1*%
%TO.N,N/C*%
X109220000Y-88900000D03*
%TD*%
%TO.P,REF\u002A\u002A,1*%
%TO.N,N/C*%
X114300000Y-86360000D03*
%TD*%
%TO.P,REF\u002A\u002A,1*%
%TO.N,N/C*%
X109220000Y-86360000D03*
%TD*%
%TO.P,REF\u002A\u002A,1*%
%TO.N,N/C*%
X114300000Y-109220000D03*
%TD*%
%TO.P,REF\u002A\u002A,1*%
%TO.N,N/C*%
X106680000Y-124460000D03*
%TD*%
%TO.P,REF\u002A\u002A,1*%
%TO.N,N/C*%
X104140000Y-124460000D03*
%TD*%
%TO.P,REF\u002A\u002A,1*%
%TO.N,N/C*%
X106680000Y-121920000D03*
%TD*%
%TO.P,REF\u002A\u002A,1*%
%TO.N,N/C*%
X104140000Y-121920000D03*
%TD*%
%TO.P,REF\u002A\u002A,1*%
%TO.N,N/C*%
X106680000Y-119380000D03*
%TD*%
%TO.P,REF\u002A\u002A,1*%
%TO.N,N/C*%
X106680000Y-116840000D03*
%TD*%
%TO.P,REF\u002A\u002A,1*%
%TO.N,N/C*%
X104140000Y-116840000D03*
%TD*%
%TO.P,REF\u002A\u002A,1*%
%TO.N,N/C*%
X106680000Y-114300000D03*
%TD*%
%TO.P,REF\u002A\u002A,1*%
%TO.N,N/C*%
X104140000Y-114300000D03*
%TD*%
%TO.P,REF\u002A\u002A,1*%
%TO.N,N/C*%
X106680000Y-111760000D03*
%TD*%
%TO.P,REF\u002A\u002A,1*%
%TO.N,N/C*%
X104140000Y-111760000D03*
%TD*%
%TO.P,REF\u002A\u002A,1*%
%TO.N,N/C*%
X106680000Y-109220000D03*
%TD*%
%TO.P,REF\u002A\u002A,1*%
%TO.N,N/C*%
X104140000Y-109220000D03*
%TD*%
%TO.P,REF\u002A\u002A,1*%
%TO.N,N/C*%
X106680000Y-106680000D03*
%TD*%
%TO.P,REF\u002A\u002A,1*%
%TO.N,N/C*%
X104140000Y-106680000D03*
%TD*%
%TO.P,REF\u002A\u002A,1*%
%TO.N,N/C*%
X106680000Y-104140000D03*
%TD*%
%TO.P,REF\u002A\u002A,1*%
%TO.N,N/C*%
X104140000Y-104140000D03*
%TD*%
%TO.P,REF\u002A\u002A,1*%
%TO.N,N/C*%
X106680000Y-101600000D03*
%TD*%
%TO.P,REF\u002A\u002A,1*%
%TO.N,N/C*%
X104140000Y-101600000D03*
%TD*%
%TO.P,REF\u002A\u002A,1*%
%TO.N,N/C*%
X106680000Y-99060000D03*
%TD*%
%TO.P,REF\u002A\u002A,1*%
%TO.N,N/C*%
X104140000Y-99060000D03*
%TD*%
%TO.P,REF\u002A\u002A,1*%
%TO.N,N/C*%
X106680000Y-96520000D03*
%TD*%
%TO.P,REF\u002A\u002A,1*%
%TO.N,N/C*%
X104140000Y-96520000D03*
%TD*%
%TO.P,REF\u002A\u002A,1*%
%TO.N,N/C*%
X106680000Y-93980000D03*
%TD*%
%TO.P,REF\u002A\u002A,1*%
%TO.N,N/C*%
X104140000Y-93980000D03*
%TD*%
%TO.P,REF\u002A\u002A,1*%
%TO.N,N/C*%
X106680000Y-91440000D03*
%TD*%
%TO.P,REF\u002A\u002A,1*%
%TO.N,N/C*%
X104140000Y-91440000D03*
%TD*%
%TO.P,REF\u002A\u002A,1*%
%TO.N,N/C*%
X106680000Y-88900000D03*
%TD*%
%TO.P,REF\u002A\u002A,1*%
%TO.N,N/C*%
X104140000Y-88900000D03*
%TD*%
%TO.P,REF\u002A\u002A,1*%
%TO.N,N/C*%
X106680000Y-86360000D03*
%TD*%
%TO.P,REF\u002A\u002A,1*%
%TO.N,N/C*%
X104140000Y-86360000D03*
%TD*%
%TO.P,REF\u002A\u002A,1*%
%TO.N,N/C*%
X106680000Y-83820000D03*
%TD*%
%TO.P,REF\u002A\u002A,1*%
%TO.N,N/C*%
X104140000Y-119380000D03*
%TD*%
%TO.P,REF\u002A\u002A,1*%
%TO.N,N/C*%
X109220000Y-83820000D03*
%TD*%
%TO.P,REF\u002A\u002A,1*%
%TO.N,N/C*%
X104140000Y-83820000D03*
%TD*%
%TO.P,REF\u002A\u002A,1*%
%TO.N,N/C*%
X167640000Y-114300000D03*
%TD*%
%TO.P,REF\u002A\u002A,1*%
%TO.N,N/C*%
X134620000Y-109220000D03*
%TD*%
%TO.P,REF\u002A\u002A,1*%
%TO.N,N/C*%
X104140000Y-81280000D03*
%TD*%
%TO.P,REF\u002A\u002A,1*%
%TO.N,N/C*%
X111760000Y-86360000D03*
%TD*%
%TO.P,J3,1*%
%TO.N,Net-(J1-Pad2)*%
X132080000Y-119380000D03*
%TD*%
%TO.P,J4,1*%
%TO.N,Net-(J1-Pad3)*%
X134620000Y-119380000D03*
%TD*%
%TO.P,J5,1*%
%TO.N,Net-(J1-Pad4)*%
X137160000Y-119380000D03*
%TD*%
%TO.P,J6,1*%
%TO.N,Net-(J1-Pad5)*%
X139700000Y-119380000D03*
%TD*%
%TO.P,J7,1*%
%TO.N,Net-(J1-Pad6)*%
X142240000Y-119380000D03*
%TD*%
%TO.P,J8,1*%
%TO.N,Net-(J1-Pad7)*%
X144780000Y-119380000D03*
%TD*%
%TO.P,J9,1*%
%TO.N,Net-(J1-Pad8)*%
X147320000Y-119380000D03*
%TD*%
%TO.P,J10,1*%
%TO.N,Net-(J10-Pad1)*%
X149860000Y-119380000D03*
%TD*%
%TO.P,J11,1*%
%TO.N,Net-(J11-Pad1)*%
X152400000Y-119380000D03*
%TD*%
%TO.P,J12,1*%
%TO.N,Net-(J12-Pad1)*%
X154940000Y-119380000D03*
%TD*%
%TO.P,J13,1*%
%TO.N,Net-(J13-Pad1)*%
X157480000Y-119380000D03*
%TD*%
%TO.P,J14,1*%
%TO.N,Net-(J14-Pad1)*%
X160020000Y-119380000D03*
%TD*%
%TO.P,J15,1*%
%TO.N,Net-(J15-Pad1)*%
X162560000Y-119380000D03*
%TD*%
%TO.P,J16,1*%
%TO.N,Net-(J16-Pad1)*%
X121920000Y-81280000D03*
%TD*%
%TO.P,J17,1*%
%TO.N,Net-(J17-Pad1)*%
X124460000Y-81280000D03*
%TD*%
%TO.P,J18,1*%
%TO.N,Net-(J18-Pad1)*%
X127000000Y-81280000D03*
%TD*%
%TO.P,J19,1*%
%TO.N,Net-(J19-Pad1)*%
X129540000Y-81280000D03*
%TD*%
%TO.P,J20,1*%
%TO.N,Net-(J20-Pad1)*%
X132080000Y-81280000D03*
%TD*%
%TO.P,J21,1*%
%TO.N,Net-(J21-Pad1)*%
X134620000Y-81280000D03*
%TD*%
%TO.P,J22,1*%
%TO.N,Net-(J22-Pad1)*%
X137160000Y-81280000D03*
%TD*%
%TO.P,J23,1*%
%TO.N,Net-(J23-Pad1)*%
X139700000Y-81280000D03*
%TD*%
%TO.P,J24,1*%
%TO.N,Net-(J24-Pad1)*%
X142240000Y-81280000D03*
%TD*%
%TO.P,J25,1*%
%TO.N,Net-(J25-Pad1)*%
X144780000Y-81280000D03*
%TD*%
%TO.P,J26,1*%
%TO.N,Net-(J26-Pad1)*%
X147320000Y-81280000D03*
%TD*%
%TO.P,J27,1*%
%TO.N,Net-(J27-Pad1)*%
X149860000Y-81280000D03*
%TD*%
%TO.P,J28,1*%
%TO.N,Net-(J28-Pad1)*%
X152400000Y-81280000D03*
%TD*%
%TO.P,J29,1*%
%TO.N,Net-(J29-Pad1)*%
X154940000Y-81280000D03*
%TD*%
%TO.P,J30,1*%
%TO.N,Net-(J30-Pad1)*%
X157480000Y-81280000D03*
%TD*%
%TO.P,J31,1*%
%TO.N,Net-(J31-Pad1)*%
X160020000Y-81280000D03*
%TD*%
%TO.P,J32,1*%
%TO.N,Net-(J32-Pad1)*%
X162560000Y-81280000D03*
%TD*%
%TO.P,J33,1*%
%TO.N,Net-(J33-Pad1)*%
X165100000Y-81280000D03*
%TD*%
D13*
%TO.N,Net-(J1-Pad8)*%
X147320000Y-119380000D02*
X147320000Y-124460000D01*
%TO.N,Net-(J1-Pad7)*%
X144780000Y-119380000D02*
X144780000Y-124460000D01*
%TO.N,Net-(J1-Pad6)*%
X142240000Y-119380000D02*
X142240000Y-124460000D01*
%TO.N,Net-(J1-Pad5)*%
X139700000Y-119380000D02*
X139700000Y-124460000D01*
%TO.N,Net-(J1-Pad4)*%
X137160000Y-119380000D02*
X137160000Y-124460000D01*
%TO.N,Net-(J1-Pad3)*%
X134620000Y-119380000D02*
X134620000Y-124460000D01*
%TO.N,Net-(J1-Pad2)*%
X132080000Y-119380000D02*
X132080000Y-124460000D01*
%TO.N,Net-(J10-Pad1)*%
X149860000Y-119380000D02*
X149860000Y-120904000D01*
X152400000Y-123444000D02*
X152400000Y-124460000D01*
X149860000Y-120904000D02*
X152400000Y-123444000D01*
%TO.N,Net-(J11-Pad1)*%
X152400000Y-119380000D02*
X152400000Y-120904000D01*
X154940000Y-123444000D02*
X154940000Y-124460000D01*
X152400000Y-120904000D02*
X154940000Y-123444000D01*
%TO.N,Net-(J12-Pad1)*%
X154940000Y-119380000D02*
X154940000Y-120904000D01*
X157480000Y-123444000D02*
X157480000Y-124460000D01*
X154940000Y-120904000D02*
X157480000Y-123444000D01*
%TO.N,Net-(J13-Pad1)*%
X160020000Y-123444000D02*
X160020000Y-124460000D01*
X157480000Y-120904000D02*
X160020000Y-123444000D01*
X157480000Y-119380000D02*
X157480000Y-120904000D01*
%TO.N,Net-(J14-Pad1)*%
X160020000Y-119380000D02*
X160020000Y-120904000D01*
X162560000Y-123444000D02*
X162560000Y-124460000D01*
X160020000Y-120904000D02*
X162560000Y-123444000D01*
%TO.N,Net-(J15-Pad1)*%
X162560000Y-119380000D02*
X162560000Y-120904000D01*
X165100000Y-123444000D02*
X165100000Y-124460000D01*
X162560000Y-120904000D02*
X165100000Y-123444000D01*
%TO.N,Net-(J16-Pad1)*%
X121920000Y-81280000D02*
X121920000Y-79502000D01*
X120396000Y-77978000D02*
X120396000Y-76200000D01*
X121920000Y-79502000D02*
X120396000Y-77978000D01*
%TO.N,Net-(J17-Pad1)*%
X124460000Y-81280000D02*
X124460000Y-79502000D01*
X122936000Y-77978000D02*
X122936000Y-76200000D01*
X124460000Y-79502000D02*
X122936000Y-77978000D01*
%TO.N,Net-(J18-Pad1)*%
X127000000Y-81280000D02*
X127000000Y-79629000D01*
X125476000Y-78105000D02*
X125476000Y-76200000D01*
X127000000Y-79629000D02*
X125476000Y-78105000D01*
%TO.N,Net-(J19-Pad1)*%
X129540000Y-81280000D02*
X129540000Y-79629000D01*
X128016000Y-78105000D02*
X128016000Y-76200000D01*
X129540000Y-79629000D02*
X128016000Y-78105000D01*
%TO.N,Net-(J20-Pad1)*%
X132080000Y-81280000D02*
X132080000Y-79629000D01*
X130556000Y-78105000D02*
X130556000Y-76200000D01*
X132080000Y-79629000D02*
X130556000Y-78105000D01*
%TO.N,Net-(J21-Pad1)*%
X134620000Y-81280000D02*
X134620000Y-79756000D01*
X133096000Y-78232000D02*
X133096000Y-76200000D01*
X134620000Y-79756000D02*
X133096000Y-78232000D01*
%TO.N,Net-(J22-Pad1)*%
X137160000Y-81280000D02*
X137160000Y-79629000D01*
X135636000Y-78105000D02*
X135636000Y-76200000D01*
X137160000Y-79629000D02*
X135636000Y-78105000D01*
%TO.N,Net-(J23-Pad1)*%
X139700000Y-81280000D02*
X139700000Y-79629000D01*
X138176000Y-78105000D02*
X138176000Y-76200000D01*
X139700000Y-79629000D02*
X138176000Y-78105000D01*
%TO.N,Net-(J24-Pad1)*%
X142240000Y-81280000D02*
X142240000Y-79502000D01*
X140716000Y-77978000D02*
X140716000Y-76200000D01*
X142240000Y-79502000D02*
X140716000Y-77978000D01*
%TO.N,Net-(J25-Pad1)*%
X144780000Y-81280000D02*
X144780000Y-79502000D01*
X143256000Y-77978000D02*
X143256000Y-76200000D01*
X144780000Y-79502000D02*
X143256000Y-77978000D01*
%TO.N,Net-(J26-Pad1)*%
X147320000Y-76200000D02*
X147320000Y-81280000D01*
%TO.N,Net-(J27-Pad1)*%
X149860000Y-76200000D02*
X149860000Y-81280000D01*
%TO.N,Net-(J28-Pad1)*%
X152400000Y-76200000D02*
X152400000Y-81280000D01*
%TO.N,Net-(J29-Pad1)*%
X154940000Y-76200000D02*
X154940000Y-81280000D01*
%TO.N,Net-(J30-Pad1)*%
X157480000Y-76200000D02*
X157480000Y-81280000D01*
%TO.N,Net-(J31-Pad1)*%
X160020000Y-76200000D02*
X160020000Y-81280000D01*
%TO.N,Net-(J32-Pad1)*%
X162560000Y-76200000D02*
X162560000Y-81280000D01*
%TO.N,Net-(J33-Pad1)*%
X165100000Y-76200000D02*
X165100000Y-81280000D01*
%TD*%
M02*
