%TF.GenerationSoftware,KiCad,Pcbnew,(5.1.9-0-10_14)*%
%TF.CreationDate,2021-02-13T17:32:26+01:00*%
%TF.ProjectId,Arduino Uno Proto Shield,41726475-696e-46f2-9055-6e6f2050726f,rev?*%
%TF.SameCoordinates,Original*%
%TF.FileFunction,Legend,Top*%
%TF.FilePolarity,Positive*%
%FSLAX46Y46*%
G04 Gerber Fmt 4.6, Leading zero omitted, Abs format (unit mm)*
G04 Created by KiCad (PCBNEW (5.1.9-0-10_14)) date 2021-02-13 17:32:26*
%MOMM*%
%LPD*%
G01*
G04 APERTURE LIST*
%ADD10C,0.152400*%
%ADD11C,0.120000*%
%ADD12C,0.127000*%
%ADD13C,0.010000*%
G04 APERTURE END LIST*
D10*
X119588038Y-126474461D02*
X119588038Y-125839461D01*
X119829942Y-125839461D01*
X119890419Y-125869700D01*
X119920657Y-125899938D01*
X119950895Y-125960414D01*
X119950895Y-126051128D01*
X119920657Y-126111604D01*
X119890419Y-126141842D01*
X119829942Y-126172080D01*
X119588038Y-126172080D01*
X120223038Y-126474461D02*
X120223038Y-126051128D01*
X120223038Y-126172080D02*
X120253276Y-126111604D01*
X120283514Y-126081366D01*
X120343990Y-126051128D01*
X120404466Y-126051128D01*
X120706847Y-126474461D02*
X120646371Y-126444223D01*
X120616133Y-126413985D01*
X120585895Y-126353509D01*
X120585895Y-126172080D01*
X120616133Y-126111604D01*
X120646371Y-126081366D01*
X120706847Y-126051128D01*
X120797561Y-126051128D01*
X120858038Y-126081366D01*
X120888276Y-126111604D01*
X120918514Y-126172080D01*
X120918514Y-126353509D01*
X120888276Y-126413985D01*
X120858038Y-126444223D01*
X120797561Y-126474461D01*
X120706847Y-126474461D01*
X121190657Y-126051128D02*
X121190657Y-126595414D01*
X121160419Y-126655890D01*
X121099942Y-126686128D01*
X121069704Y-126686128D01*
X121190657Y-125839461D02*
X121160419Y-125869700D01*
X121190657Y-125899938D01*
X121220895Y-125869700D01*
X121190657Y-125839461D01*
X121190657Y-125899938D01*
X121734942Y-126444223D02*
X121674466Y-126474461D01*
X121553514Y-126474461D01*
X121493038Y-126444223D01*
X121462800Y-126383747D01*
X121462800Y-126141842D01*
X121493038Y-126081366D01*
X121553514Y-126051128D01*
X121674466Y-126051128D01*
X121734942Y-126081366D01*
X121765180Y-126141842D01*
X121765180Y-126202319D01*
X121462800Y-126262795D01*
X122309466Y-126444223D02*
X122248990Y-126474461D01*
X122128038Y-126474461D01*
X122067561Y-126444223D01*
X122037323Y-126413985D01*
X122007085Y-126353509D01*
X122007085Y-126172080D01*
X122037323Y-126111604D01*
X122067561Y-126081366D01*
X122128038Y-126051128D01*
X122248990Y-126051128D01*
X122309466Y-126081366D01*
X122490895Y-126051128D02*
X122732800Y-126051128D01*
X122581609Y-125839461D02*
X122581609Y-126383747D01*
X122611847Y-126444223D01*
X122672323Y-126474461D01*
X122732800Y-126474461D01*
X123639942Y-126141842D02*
X123730657Y-126172080D01*
X123760895Y-126202319D01*
X123791133Y-126262795D01*
X123791133Y-126353509D01*
X123760895Y-126413985D01*
X123730657Y-126444223D01*
X123670180Y-126474461D01*
X123428276Y-126474461D01*
X123428276Y-125839461D01*
X123639942Y-125839461D01*
X123700419Y-125869700D01*
X123730657Y-125899938D01*
X123760895Y-125960414D01*
X123760895Y-126020890D01*
X123730657Y-126081366D01*
X123700419Y-126111604D01*
X123639942Y-126141842D01*
X123428276Y-126141842D01*
X124153990Y-126474461D02*
X124093514Y-126444223D01*
X124063276Y-126413985D01*
X124033038Y-126353509D01*
X124033038Y-126172080D01*
X124063276Y-126111604D01*
X124093514Y-126081366D01*
X124153990Y-126051128D01*
X124244704Y-126051128D01*
X124305180Y-126081366D01*
X124335419Y-126111604D01*
X124365657Y-126172080D01*
X124365657Y-126353509D01*
X124335419Y-126413985D01*
X124305180Y-126444223D01*
X124244704Y-126474461D01*
X124153990Y-126474461D01*
X124909942Y-126474461D02*
X124909942Y-126141842D01*
X124879704Y-126081366D01*
X124819228Y-126051128D01*
X124698276Y-126051128D01*
X124637799Y-126081366D01*
X124909942Y-126444223D02*
X124849466Y-126474461D01*
X124698276Y-126474461D01*
X124637799Y-126444223D01*
X124607561Y-126383747D01*
X124607561Y-126323271D01*
X124637799Y-126262795D01*
X124698276Y-126232557D01*
X124849466Y-126232557D01*
X124909942Y-126202319D01*
X125212323Y-126474461D02*
X125212323Y-126051128D01*
X125212323Y-126172080D02*
X125242561Y-126111604D01*
X125272800Y-126081366D01*
X125333276Y-126051128D01*
X125393752Y-126051128D01*
X125877561Y-126474461D02*
X125877561Y-125839461D01*
X125877561Y-126444223D02*
X125817085Y-126474461D01*
X125696133Y-126474461D01*
X125635657Y-126444223D01*
X125605419Y-126413985D01*
X125575180Y-126353509D01*
X125575180Y-126172080D01*
X125605419Y-126111604D01*
X125635657Y-126081366D01*
X125696133Y-126051128D01*
X125817085Y-126051128D01*
X125877561Y-126081366D01*
X119630976Y-125378633D02*
X119933357Y-125378633D01*
X119570500Y-125560061D02*
X119782166Y-124925061D01*
X119993833Y-125560061D01*
X120205500Y-125560061D02*
X120205500Y-125136728D01*
X120205500Y-125257680D02*
X120235738Y-125197204D01*
X120265976Y-125166966D01*
X120326452Y-125136728D01*
X120386928Y-125136728D01*
X120870738Y-125560061D02*
X120870738Y-124925061D01*
X120870738Y-125529823D02*
X120810261Y-125560061D01*
X120689309Y-125560061D01*
X120628833Y-125529823D01*
X120598595Y-125499585D01*
X120568357Y-125439109D01*
X120568357Y-125257680D01*
X120598595Y-125197204D01*
X120628833Y-125166966D01*
X120689309Y-125136728D01*
X120810261Y-125136728D01*
X120870738Y-125166966D01*
X121445261Y-125136728D02*
X121445261Y-125560061D01*
X121173119Y-125136728D02*
X121173119Y-125469347D01*
X121203357Y-125529823D01*
X121263833Y-125560061D01*
X121354547Y-125560061D01*
X121415023Y-125529823D01*
X121445261Y-125499585D01*
X121747642Y-125560061D02*
X121747642Y-125136728D01*
X121747642Y-124925061D02*
X121717404Y-124955300D01*
X121747642Y-124985538D01*
X121777880Y-124955300D01*
X121747642Y-124925061D01*
X121747642Y-124985538D01*
X122050023Y-125136728D02*
X122050023Y-125560061D01*
X122050023Y-125197204D02*
X122080261Y-125166966D01*
X122140738Y-125136728D01*
X122231452Y-125136728D01*
X122291928Y-125166966D01*
X122322166Y-125227442D01*
X122322166Y-125560061D01*
X122715261Y-125560061D02*
X122654785Y-125529823D01*
X122624547Y-125499585D01*
X122594309Y-125439109D01*
X122594309Y-125257680D01*
X122624547Y-125197204D01*
X122654785Y-125166966D01*
X122715261Y-125136728D01*
X122805976Y-125136728D01*
X122866452Y-125166966D01*
X122896690Y-125197204D01*
X122926928Y-125257680D01*
X122926928Y-125439109D01*
X122896690Y-125499585D01*
X122866452Y-125529823D01*
X122805976Y-125560061D01*
X122715261Y-125560061D01*
X123682880Y-124925061D02*
X123682880Y-125439109D01*
X123713119Y-125499585D01*
X123743357Y-125529823D01*
X123803833Y-125560061D01*
X123924785Y-125560061D01*
X123985261Y-125529823D01*
X124015500Y-125499585D01*
X124045738Y-125439109D01*
X124045738Y-124925061D01*
X124348119Y-125136728D02*
X124348119Y-125560061D01*
X124348119Y-125197204D02*
X124378357Y-125166966D01*
X124438833Y-125136728D01*
X124529547Y-125136728D01*
X124590023Y-125166966D01*
X124620261Y-125227442D01*
X124620261Y-125560061D01*
X125013357Y-125560061D02*
X124952880Y-125529823D01*
X124922642Y-125499585D01*
X124892404Y-125439109D01*
X124892404Y-125257680D01*
X124922642Y-125197204D01*
X124952880Y-125166966D01*
X125013357Y-125136728D01*
X125104071Y-125136728D01*
X125164547Y-125166966D01*
X125194785Y-125197204D01*
X125225023Y-125257680D01*
X125225023Y-125439109D01*
X125194785Y-125499585D01*
X125164547Y-125529823D01*
X125104071Y-125560061D01*
X125013357Y-125560061D01*
D11*
X140716000Y-77470000D02*
X166370000Y-77470000D01*
X138176000Y-77470000D02*
X139700000Y-77470000D01*
X130302000Y-77470000D02*
X137160000Y-77470000D01*
X119380000Y-77470000D02*
X129032000Y-77470000D01*
X130810000Y-118110000D02*
X148590000Y-118110000D01*
X128270000Y-123190000D02*
X128270000Y-125730000D01*
X128270000Y-123190000D02*
X166370000Y-123190000D01*
X130810000Y-120650000D02*
X128270000Y-123190000D01*
X130810000Y-118110000D02*
X130810000Y-120650000D01*
D12*
X132436809Y-122760619D02*
X131928809Y-122760619D01*
X131928809Y-122421952D02*
X131928809Y-122325190D01*
X131953000Y-122276809D01*
X132001380Y-122228428D01*
X132098142Y-122204238D01*
X132267476Y-122204238D01*
X132364238Y-122228428D01*
X132412619Y-122276809D01*
X132436809Y-122325190D01*
X132436809Y-122421952D01*
X132412619Y-122470333D01*
X132364238Y-122518714D01*
X132267476Y-122542904D01*
X132098142Y-122542904D01*
X132001380Y-122518714D01*
X131953000Y-122470333D01*
X131928809Y-122421952D01*
X132436809Y-121696238D02*
X132194904Y-121865571D01*
X132436809Y-121986523D02*
X131928809Y-121986523D01*
X131928809Y-121793000D01*
X131953000Y-121744619D01*
X131977190Y-121720428D01*
X132025571Y-121696238D01*
X132098142Y-121696238D01*
X132146523Y-121720428D01*
X132170714Y-121744619D01*
X132194904Y-121793000D01*
X132194904Y-121986523D01*
X132170714Y-121478523D02*
X132170714Y-121309190D01*
X132436809Y-121236619D02*
X132436809Y-121478523D01*
X131928809Y-121478523D01*
X131928809Y-121236619D01*
X132170714Y-120849571D02*
X132170714Y-121018904D01*
X132436809Y-121018904D02*
X131928809Y-121018904D01*
X131928809Y-120777000D01*
X134976809Y-122657809D02*
X134734904Y-122827142D01*
X134976809Y-122948095D02*
X134468809Y-122948095D01*
X134468809Y-122754571D01*
X134493000Y-122706190D01*
X134517190Y-122682000D01*
X134565571Y-122657809D01*
X134638142Y-122657809D01*
X134686523Y-122682000D01*
X134710714Y-122706190D01*
X134734904Y-122754571D01*
X134734904Y-122948095D01*
X134710714Y-122440095D02*
X134710714Y-122270761D01*
X134976809Y-122198190D02*
X134976809Y-122440095D01*
X134468809Y-122440095D01*
X134468809Y-122198190D01*
X134952619Y-122004666D02*
X134976809Y-121932095D01*
X134976809Y-121811142D01*
X134952619Y-121762761D01*
X134928428Y-121738571D01*
X134880047Y-121714380D01*
X134831666Y-121714380D01*
X134783285Y-121738571D01*
X134759095Y-121762761D01*
X134734904Y-121811142D01*
X134710714Y-121907904D01*
X134686523Y-121956285D01*
X134662333Y-121980476D01*
X134613952Y-122004666D01*
X134565571Y-122004666D01*
X134517190Y-121980476D01*
X134493000Y-121956285D01*
X134468809Y-121907904D01*
X134468809Y-121786952D01*
X134493000Y-121714380D01*
X134710714Y-121496666D02*
X134710714Y-121327333D01*
X134976809Y-121254761D02*
X134976809Y-121496666D01*
X134468809Y-121496666D01*
X134468809Y-121254761D01*
X134468809Y-121109619D02*
X134468809Y-120819333D01*
X134976809Y-120964476D02*
X134468809Y-120964476D01*
X136869714Y-123044857D02*
X136869714Y-122573142D01*
X137160000Y-122827142D01*
X137160000Y-122718285D01*
X137196285Y-122645714D01*
X137232571Y-122609428D01*
X137305142Y-122573142D01*
X137486571Y-122573142D01*
X137559142Y-122609428D01*
X137595428Y-122645714D01*
X137631714Y-122718285D01*
X137631714Y-122936000D01*
X137595428Y-123008571D01*
X137559142Y-123044857D01*
X137559142Y-122246571D02*
X137595428Y-122210285D01*
X137631714Y-122246571D01*
X137595428Y-122282857D01*
X137559142Y-122246571D01*
X137631714Y-122246571D01*
X136869714Y-121956285D02*
X136869714Y-121484571D01*
X137160000Y-121738571D01*
X137160000Y-121629714D01*
X137196285Y-121557142D01*
X137232571Y-121520857D01*
X137305142Y-121484571D01*
X137486571Y-121484571D01*
X137559142Y-121520857D01*
X137595428Y-121557142D01*
X137631714Y-121629714D01*
X137631714Y-121847428D01*
X137595428Y-121920000D01*
X137559142Y-121956285D01*
X136869714Y-121266857D02*
X137631714Y-121012857D01*
X136869714Y-120758857D01*
X139409714Y-121557142D02*
X139409714Y-121920000D01*
X139772571Y-121956285D01*
X139736285Y-121920000D01*
X139700000Y-121847428D01*
X139700000Y-121666000D01*
X139736285Y-121593428D01*
X139772571Y-121557142D01*
X139845142Y-121520857D01*
X140026571Y-121520857D01*
X140099142Y-121557142D01*
X140135428Y-121593428D01*
X140171714Y-121666000D01*
X140171714Y-121847428D01*
X140135428Y-121920000D01*
X140099142Y-121956285D01*
X139409714Y-121303142D02*
X140171714Y-121049142D01*
X139409714Y-120795142D01*
X141986000Y-122373571D02*
X141949714Y-122446142D01*
X141949714Y-122555000D01*
X141986000Y-122663857D01*
X142058571Y-122736428D01*
X142131142Y-122772714D01*
X142276285Y-122809000D01*
X142385142Y-122809000D01*
X142530285Y-122772714D01*
X142602857Y-122736428D01*
X142675428Y-122663857D01*
X142711714Y-122555000D01*
X142711714Y-122482428D01*
X142675428Y-122373571D01*
X142639142Y-122337285D01*
X142385142Y-122337285D01*
X142385142Y-122482428D01*
X142711714Y-122010714D02*
X141949714Y-122010714D01*
X142711714Y-121575285D01*
X141949714Y-121575285D01*
X142711714Y-121212428D02*
X141949714Y-121212428D01*
X141949714Y-121031000D01*
X141986000Y-120922142D01*
X142058571Y-120849571D01*
X142131142Y-120813285D01*
X142276285Y-120777000D01*
X142385142Y-120777000D01*
X142530285Y-120813285D01*
X142602857Y-120849571D01*
X142675428Y-120922142D01*
X142711714Y-121031000D01*
X142711714Y-121212428D01*
X144526000Y-122373571D02*
X144489714Y-122446142D01*
X144489714Y-122555000D01*
X144526000Y-122663857D01*
X144598571Y-122736428D01*
X144671142Y-122772714D01*
X144816285Y-122809000D01*
X144925142Y-122809000D01*
X145070285Y-122772714D01*
X145142857Y-122736428D01*
X145215428Y-122663857D01*
X145251714Y-122555000D01*
X145251714Y-122482428D01*
X145215428Y-122373571D01*
X145179142Y-122337285D01*
X144925142Y-122337285D01*
X144925142Y-122482428D01*
X145251714Y-122010714D02*
X144489714Y-122010714D01*
X145251714Y-121575285D01*
X144489714Y-121575285D01*
X145251714Y-121212428D02*
X144489714Y-121212428D01*
X144489714Y-121031000D01*
X144526000Y-120922142D01*
X144598571Y-120849571D01*
X144671142Y-120813285D01*
X144816285Y-120777000D01*
X144925142Y-120777000D01*
X145070285Y-120813285D01*
X145142857Y-120849571D01*
X145215428Y-120922142D01*
X145251714Y-121031000D01*
X145251714Y-121212428D01*
X147029714Y-122373571D02*
X147791714Y-122119571D01*
X147029714Y-121865571D01*
X147791714Y-121611571D02*
X147029714Y-121611571D01*
X147791714Y-121248714D02*
X147029714Y-121248714D01*
X147791714Y-120813285D01*
X147029714Y-120813285D01*
X150156333Y-122137714D02*
X150156333Y-121653904D01*
X150446619Y-122234476D02*
X149430619Y-121895809D01*
X150446619Y-121557142D01*
X149430619Y-121024952D02*
X149430619Y-120928190D01*
X149479000Y-120831428D01*
X149527380Y-120783047D01*
X149624142Y-120734666D01*
X149817666Y-120686285D01*
X150059571Y-120686285D01*
X150253095Y-120734666D01*
X150349857Y-120783047D01*
X150398238Y-120831428D01*
X150446619Y-120928190D01*
X150446619Y-121024952D01*
X150398238Y-121121714D01*
X150349857Y-121170095D01*
X150253095Y-121218476D01*
X150059571Y-121266857D01*
X149817666Y-121266857D01*
X149624142Y-121218476D01*
X149527380Y-121170095D01*
X149479000Y-121121714D01*
X149430619Y-121024952D01*
X152696333Y-122137714D02*
X152696333Y-121653904D01*
X152986619Y-122234476D02*
X151970619Y-121895809D01*
X152986619Y-121557142D01*
X152986619Y-120686285D02*
X152986619Y-121266857D01*
X152986619Y-120976571D02*
X151970619Y-120976571D01*
X152115761Y-121073333D01*
X152212523Y-121170095D01*
X152260904Y-121266857D01*
X155236333Y-122137714D02*
X155236333Y-121653904D01*
X155526619Y-122234476D02*
X154510619Y-121895809D01*
X155526619Y-121557142D01*
X154607380Y-121266857D02*
X154559000Y-121218476D01*
X154510619Y-121121714D01*
X154510619Y-120879809D01*
X154559000Y-120783047D01*
X154607380Y-120734666D01*
X154704142Y-120686285D01*
X154800904Y-120686285D01*
X154946047Y-120734666D01*
X155526619Y-121315238D01*
X155526619Y-120686285D01*
X157776333Y-122137714D02*
X157776333Y-121653904D01*
X158066619Y-122234476D02*
X157050619Y-121895809D01*
X158066619Y-121557142D01*
X157050619Y-121315238D02*
X157050619Y-120686285D01*
X157437666Y-121024952D01*
X157437666Y-120879809D01*
X157486047Y-120783047D01*
X157534428Y-120734666D01*
X157631190Y-120686285D01*
X157873095Y-120686285D01*
X157969857Y-120734666D01*
X158018238Y-120783047D01*
X158066619Y-120879809D01*
X158066619Y-121170095D01*
X158018238Y-121266857D01*
X157969857Y-121315238D01*
X160316333Y-122137714D02*
X160316333Y-121653904D01*
X160606619Y-122234476D02*
X159590619Y-121895809D01*
X160606619Y-121557142D01*
X159929285Y-120783047D02*
X160606619Y-120783047D01*
X159542238Y-121024952D02*
X160267952Y-121266857D01*
X160267952Y-120637904D01*
X162856333Y-122137714D02*
X162856333Y-121653904D01*
X163146619Y-122234476D02*
X162130619Y-121895809D01*
X163146619Y-121557142D01*
X162130619Y-120734666D02*
X162130619Y-121218476D01*
X162614428Y-121266857D01*
X162566047Y-121218476D01*
X162517666Y-121121714D01*
X162517666Y-120879809D01*
X162566047Y-120783047D01*
X162614428Y-120734666D01*
X162711190Y-120686285D01*
X162953095Y-120686285D01*
X163049857Y-120734666D01*
X163098238Y-120783047D01*
X163146619Y-120879809D01*
X163146619Y-121121714D01*
X163098238Y-121218476D01*
X163049857Y-121266857D01*
D11*
X137795000Y-77343000D02*
X137795000Y-77216000D01*
X142875000Y-78359000D02*
X142875000Y-78232000D01*
X150495000Y-78359000D02*
X150495000Y-78232000D01*
X153035000Y-78359000D02*
X153035000Y-78232000D01*
X158115000Y-78359000D02*
X158115000Y-78232000D01*
X140462000Y-77343000D02*
X140462000Y-77216000D01*
X137414000Y-77343000D02*
X137414000Y-77724000D01*
X137795000Y-77724000D02*
X137414000Y-77724000D01*
X137414000Y-77343000D02*
X137795000Y-77343000D01*
X137795000Y-78105000D02*
X137795000Y-77724000D01*
X140081000Y-77343000D02*
X140081000Y-77724000D01*
X140462000Y-77724000D02*
X140081000Y-77724000D01*
X140081000Y-77343000D02*
X140462000Y-77343000D01*
X140462000Y-78105000D02*
X140462000Y-77724000D01*
X142494000Y-78359000D02*
X142494000Y-78740000D01*
X142875000Y-78740000D02*
X142494000Y-78740000D01*
X142494000Y-78359000D02*
X142875000Y-78359000D01*
X142875000Y-79121000D02*
X142875000Y-78740000D01*
X150114000Y-78359000D02*
X150114000Y-78740000D01*
X150495000Y-78740000D02*
X150114000Y-78740000D01*
X150114000Y-78359000D02*
X150495000Y-78359000D01*
X150495000Y-79121000D02*
X150495000Y-78740000D01*
X157734000Y-78359000D02*
X157734000Y-78740000D01*
X158115000Y-78740000D02*
X157734000Y-78740000D01*
X157734000Y-78359000D02*
X158115000Y-78359000D01*
X158115000Y-79121000D02*
X158115000Y-78740000D01*
X152654000Y-78359000D02*
X152654000Y-78740000D01*
X152654000Y-78359000D02*
X153035000Y-78359000D01*
X153035000Y-78740000D02*
X152654000Y-78740000D01*
X153035000Y-79121000D02*
X153035000Y-78740000D01*
D12*
X163110333Y-78740000D02*
X163086142Y-78764190D01*
X163013571Y-78812571D01*
X162965190Y-78836761D01*
X162892619Y-78860952D01*
X162771666Y-78885142D01*
X162674904Y-78885142D01*
X162553952Y-78860952D01*
X162481380Y-78836761D01*
X162433000Y-78812571D01*
X162360428Y-78764190D01*
X162336238Y-78740000D01*
X162408809Y-78619047D02*
X162408809Y-78328761D01*
X162916809Y-78473904D02*
X162408809Y-78473904D01*
X162408809Y-78207809D02*
X162916809Y-77869142D01*
X162408809Y-77869142D02*
X162916809Y-78207809D01*
X163110333Y-77724000D02*
X163086142Y-77699809D01*
X163013571Y-77651428D01*
X162965190Y-77627238D01*
X162892619Y-77603047D01*
X162771666Y-77578857D01*
X162674904Y-77578857D01*
X162553952Y-77603047D01*
X162481380Y-77627238D01*
X162433000Y-77651428D01*
X162360428Y-77699809D01*
X162336238Y-77724000D01*
X122355428Y-79901142D02*
X122391714Y-79792285D01*
X122391714Y-79610857D01*
X122355428Y-79538285D01*
X122319142Y-79502000D01*
X122246571Y-79465714D01*
X122174000Y-79465714D01*
X122101428Y-79502000D01*
X122065142Y-79538285D01*
X122028857Y-79610857D01*
X121992571Y-79756000D01*
X121956285Y-79828571D01*
X121920000Y-79864857D01*
X121847428Y-79901142D01*
X121774857Y-79901142D01*
X121702285Y-79864857D01*
X121666000Y-79828571D01*
X121629714Y-79756000D01*
X121629714Y-79574571D01*
X121666000Y-79465714D01*
X122319142Y-78703714D02*
X122355428Y-78740000D01*
X122391714Y-78848857D01*
X122391714Y-78921428D01*
X122355428Y-79030285D01*
X122282857Y-79102857D01*
X122210285Y-79139142D01*
X122065142Y-79175428D01*
X121956285Y-79175428D01*
X121811142Y-79139142D01*
X121738571Y-79102857D01*
X121666000Y-79030285D01*
X121629714Y-78921428D01*
X121629714Y-78848857D01*
X121666000Y-78740000D01*
X121702285Y-78703714D01*
X122391714Y-78014285D02*
X122391714Y-78377142D01*
X121629714Y-78377142D01*
X124895428Y-79919285D02*
X124931714Y-79810428D01*
X124931714Y-79629000D01*
X124895428Y-79556428D01*
X124859142Y-79520142D01*
X124786571Y-79483857D01*
X124714000Y-79483857D01*
X124641428Y-79520142D01*
X124605142Y-79556428D01*
X124568857Y-79629000D01*
X124532571Y-79774142D01*
X124496285Y-79846714D01*
X124460000Y-79883000D01*
X124387428Y-79919285D01*
X124314857Y-79919285D01*
X124242285Y-79883000D01*
X124206000Y-79846714D01*
X124169714Y-79774142D01*
X124169714Y-79592714D01*
X124206000Y-79483857D01*
X124931714Y-79157285D02*
X124169714Y-79157285D01*
X124169714Y-78975857D01*
X124206000Y-78867000D01*
X124278571Y-78794428D01*
X124351142Y-78758142D01*
X124496285Y-78721857D01*
X124605142Y-78721857D01*
X124750285Y-78758142D01*
X124822857Y-78794428D01*
X124895428Y-78867000D01*
X124931714Y-78975857D01*
X124931714Y-79157285D01*
X124714000Y-78431571D02*
X124714000Y-78068714D01*
X124931714Y-78504142D02*
X124169714Y-78250142D01*
X124931714Y-77996142D01*
X126746000Y-79447571D02*
X126709714Y-79520142D01*
X126709714Y-79629000D01*
X126746000Y-79737857D01*
X126818571Y-79810428D01*
X126891142Y-79846714D01*
X127036285Y-79883000D01*
X127145142Y-79883000D01*
X127290285Y-79846714D01*
X127362857Y-79810428D01*
X127435428Y-79737857D01*
X127471714Y-79629000D01*
X127471714Y-79556428D01*
X127435428Y-79447571D01*
X127399142Y-79411285D01*
X127145142Y-79411285D01*
X127145142Y-79556428D01*
X127471714Y-79084714D02*
X126709714Y-79084714D01*
X127471714Y-78649285D01*
X126709714Y-78649285D01*
X127471714Y-78286428D02*
X126709714Y-78286428D01*
X126709714Y-78105000D01*
X126746000Y-77996142D01*
X126818571Y-77923571D01*
X126891142Y-77887285D01*
X127036285Y-77851000D01*
X127145142Y-77851000D01*
X127290285Y-77887285D01*
X127362857Y-77923571D01*
X127435428Y-77996142D01*
X127471714Y-78105000D01*
X127471714Y-78286428D01*
X129794000Y-79846714D02*
X129794000Y-79483857D01*
X130011714Y-79919285D02*
X129249714Y-79665285D01*
X130011714Y-79411285D01*
X130011714Y-78721857D02*
X129648857Y-78975857D01*
X130011714Y-79157285D02*
X129249714Y-79157285D01*
X129249714Y-78867000D01*
X129286000Y-78794428D01*
X129322285Y-78758142D01*
X129394857Y-78721857D01*
X129503714Y-78721857D01*
X129576285Y-78758142D01*
X129612571Y-78794428D01*
X129648857Y-78867000D01*
X129648857Y-79157285D01*
X129612571Y-78395285D02*
X129612571Y-78141285D01*
X130011714Y-78032428D02*
X130011714Y-78395285D01*
X129249714Y-78395285D01*
X129249714Y-78032428D01*
X129612571Y-77451857D02*
X129612571Y-77705857D01*
X130011714Y-77705857D02*
X129249714Y-77705857D01*
X129249714Y-77343000D01*
X132666619Y-79314523D02*
X132666619Y-79895095D01*
X132666619Y-79604809D02*
X131650619Y-79604809D01*
X131795761Y-79701571D01*
X131892523Y-79798333D01*
X131940904Y-79895095D01*
X131650619Y-78975857D02*
X131650619Y-78346904D01*
X132037666Y-78685571D01*
X132037666Y-78540428D01*
X132086047Y-78443666D01*
X132134428Y-78395285D01*
X132231190Y-78346904D01*
X132473095Y-78346904D01*
X132569857Y-78395285D01*
X132618238Y-78443666D01*
X132666619Y-78540428D01*
X132666619Y-78830714D01*
X132618238Y-78927476D01*
X132569857Y-78975857D01*
X135206619Y-79314523D02*
X135206619Y-79895095D01*
X135206619Y-79604809D02*
X134190619Y-79604809D01*
X134335761Y-79701571D01*
X134432523Y-79798333D01*
X134480904Y-79895095D01*
X134287380Y-78927476D02*
X134239000Y-78879095D01*
X134190619Y-78782333D01*
X134190619Y-78540428D01*
X134239000Y-78443666D01*
X134287380Y-78395285D01*
X134384142Y-78346904D01*
X134480904Y-78346904D01*
X134626047Y-78395285D01*
X135206619Y-78975857D01*
X135206619Y-78346904D01*
X137746619Y-79314523D02*
X137746619Y-79895095D01*
X137746619Y-79604809D02*
X136730619Y-79604809D01*
X136875761Y-79701571D01*
X136972523Y-79798333D01*
X137020904Y-79895095D01*
X137746619Y-78346904D02*
X137746619Y-78927476D01*
X137746619Y-78637190D02*
X136730619Y-78637190D01*
X136875761Y-78733952D01*
X136972523Y-78830714D01*
X137020904Y-78927476D01*
X140413619Y-79314523D02*
X140413619Y-79895095D01*
X140413619Y-79604809D02*
X139397619Y-79604809D01*
X139542761Y-79701571D01*
X139639523Y-79798333D01*
X139687904Y-79895095D01*
X139397619Y-78685571D02*
X139397619Y-78588809D01*
X139446000Y-78492047D01*
X139494380Y-78443666D01*
X139591142Y-78395285D01*
X139784666Y-78346904D01*
X140026571Y-78346904D01*
X140220095Y-78395285D01*
X140316857Y-78443666D01*
X140365238Y-78492047D01*
X140413619Y-78588809D01*
X140413619Y-78685571D01*
X140365238Y-78782333D01*
X140316857Y-78830714D01*
X140220095Y-78879095D01*
X140026571Y-78927476D01*
X139784666Y-78927476D01*
X139591142Y-78879095D01*
X139494380Y-78830714D01*
X139446000Y-78782333D01*
X139397619Y-78685571D01*
X142826619Y-79822523D02*
X142826619Y-79629000D01*
X142778238Y-79532238D01*
X142729857Y-79483857D01*
X142584714Y-79387095D01*
X142391190Y-79338714D01*
X142004142Y-79338714D01*
X141907380Y-79387095D01*
X141859000Y-79435476D01*
X141810619Y-79532238D01*
X141810619Y-79725761D01*
X141859000Y-79822523D01*
X141907380Y-79870904D01*
X142004142Y-79919285D01*
X142246047Y-79919285D01*
X142342809Y-79870904D01*
X142391190Y-79822523D01*
X142439571Y-79725761D01*
X142439571Y-79532238D01*
X142391190Y-79435476D01*
X142342809Y-79387095D01*
X142246047Y-79338714D01*
X144786047Y-79725761D02*
X144737666Y-79822523D01*
X144689285Y-79870904D01*
X144592523Y-79919285D01*
X144544142Y-79919285D01*
X144447380Y-79870904D01*
X144399000Y-79822523D01*
X144350619Y-79725761D01*
X144350619Y-79532238D01*
X144399000Y-79435476D01*
X144447380Y-79387095D01*
X144544142Y-79338714D01*
X144592523Y-79338714D01*
X144689285Y-79387095D01*
X144737666Y-79435476D01*
X144786047Y-79532238D01*
X144786047Y-79725761D01*
X144834428Y-79822523D01*
X144882809Y-79870904D01*
X144979571Y-79919285D01*
X145173095Y-79919285D01*
X145269857Y-79870904D01*
X145318238Y-79822523D01*
X145366619Y-79725761D01*
X145366619Y-79532238D01*
X145318238Y-79435476D01*
X145269857Y-79387095D01*
X145173095Y-79338714D01*
X144979571Y-79338714D01*
X144882809Y-79387095D01*
X144834428Y-79435476D01*
X144786047Y-79532238D01*
X146890619Y-79967666D02*
X146890619Y-79290333D01*
X147906619Y-79725761D01*
X149430619Y-79435476D02*
X149430619Y-79629000D01*
X149479000Y-79725761D01*
X149527380Y-79774142D01*
X149672523Y-79870904D01*
X149866047Y-79919285D01*
X150253095Y-79919285D01*
X150349857Y-79870904D01*
X150398238Y-79822523D01*
X150446619Y-79725761D01*
X150446619Y-79532238D01*
X150398238Y-79435476D01*
X150349857Y-79387095D01*
X150253095Y-79338714D01*
X150011190Y-79338714D01*
X149914428Y-79387095D01*
X149866047Y-79435476D01*
X149817666Y-79532238D01*
X149817666Y-79725761D01*
X149866047Y-79822523D01*
X149914428Y-79870904D01*
X150011190Y-79919285D01*
X151970619Y-79387095D02*
X151970619Y-79870904D01*
X152454428Y-79919285D01*
X152406047Y-79870904D01*
X152357666Y-79774142D01*
X152357666Y-79532238D01*
X152406047Y-79435476D01*
X152454428Y-79387095D01*
X152551190Y-79338714D01*
X152793095Y-79338714D01*
X152889857Y-79387095D01*
X152938238Y-79435476D01*
X152986619Y-79532238D01*
X152986619Y-79774142D01*
X152938238Y-79870904D01*
X152889857Y-79919285D01*
X154849285Y-79435476D02*
X155526619Y-79435476D01*
X154462238Y-79677380D02*
X155187952Y-79919285D01*
X155187952Y-79290333D01*
X157050619Y-79967666D02*
X157050619Y-79338714D01*
X157437666Y-79677380D01*
X157437666Y-79532238D01*
X157486047Y-79435476D01*
X157534428Y-79387095D01*
X157631190Y-79338714D01*
X157873095Y-79338714D01*
X157969857Y-79387095D01*
X158018238Y-79435476D01*
X158066619Y-79532238D01*
X158066619Y-79822523D01*
X158018238Y-79919285D01*
X157969857Y-79967666D01*
X159687380Y-79919285D02*
X159639000Y-79870904D01*
X159590619Y-79774142D01*
X159590619Y-79532238D01*
X159639000Y-79435476D01*
X159687380Y-79387095D01*
X159784142Y-79338714D01*
X159880904Y-79338714D01*
X160026047Y-79387095D01*
X160606619Y-79967666D01*
X160606619Y-79338714D01*
X163146619Y-79338714D02*
X163146619Y-79919285D01*
X163146619Y-79629000D02*
X162130619Y-79629000D01*
X162275761Y-79725761D01*
X162372523Y-79822523D01*
X162420904Y-79919285D01*
D11*
X144780000Y-74930000D02*
X146050000Y-74930000D01*
X148590000Y-125730000D02*
X151130000Y-125730000D01*
X148590000Y-125730000D02*
X128270000Y-125730000D01*
X163830000Y-118110000D02*
X148590000Y-118110000D01*
X163830000Y-120650000D02*
X163830000Y-118110000D01*
X166370000Y-123190000D02*
X163830000Y-120650000D01*
X166370000Y-125730000D02*
X166370000Y-123190000D01*
X151130000Y-125730000D02*
X166370000Y-125730000D01*
X143510000Y-82550000D02*
X146050000Y-82550000D01*
X120650000Y-82550000D02*
X143510000Y-82550000D01*
X120650000Y-80010000D02*
X120650000Y-82550000D01*
X119380000Y-77470000D02*
X120650000Y-80010000D01*
X119380000Y-74930000D02*
X119380000Y-77470000D01*
X144780000Y-74930000D02*
X119380000Y-74930000D01*
X166370000Y-74930000D02*
X146050000Y-74930000D01*
X166370000Y-82550000D02*
X166370000Y-74930000D01*
X146050000Y-82550000D02*
X166370000Y-82550000D01*
D12*
X165650333Y-78800476D02*
X165626142Y-78824666D01*
X165553571Y-78873047D01*
X165505190Y-78897238D01*
X165432619Y-78921428D01*
X165311666Y-78945619D01*
X165214904Y-78945619D01*
X165093952Y-78921428D01*
X165021380Y-78897238D01*
X164973000Y-78873047D01*
X164900428Y-78824666D01*
X164876238Y-78800476D01*
X165456809Y-78316666D02*
X165214904Y-78486000D01*
X165456809Y-78606952D02*
X164948809Y-78606952D01*
X164948809Y-78413428D01*
X164973000Y-78365047D01*
X164997190Y-78340857D01*
X165045571Y-78316666D01*
X165118142Y-78316666D01*
X165166523Y-78340857D01*
X165190714Y-78365047D01*
X165214904Y-78413428D01*
X165214904Y-78606952D01*
X164948809Y-78147333D02*
X165456809Y-77808666D01*
X164948809Y-77808666D02*
X165456809Y-78147333D01*
X165650333Y-77663523D02*
X165626142Y-77639333D01*
X165553571Y-77590952D01*
X165505190Y-77566761D01*
X165432619Y-77542571D01*
X165311666Y-77518380D01*
X165214904Y-77518380D01*
X165093952Y-77542571D01*
X165021380Y-77566761D01*
X164973000Y-77590952D01*
X164900428Y-77639333D01*
X164876238Y-77663523D01*
X164670619Y-79677380D02*
X164670619Y-79580619D01*
X164719000Y-79483857D01*
X164767380Y-79435476D01*
X164864142Y-79387095D01*
X165057666Y-79338714D01*
X165299571Y-79338714D01*
X165493095Y-79387095D01*
X165589857Y-79435476D01*
X165638238Y-79483857D01*
X165686619Y-79580619D01*
X165686619Y-79677380D01*
X165638238Y-79774142D01*
X165589857Y-79822523D01*
X165493095Y-79870904D01*
X165299571Y-79919285D01*
X165057666Y-79919285D01*
X164864142Y-79870904D01*
X164767380Y-79822523D01*
X164719000Y-79774142D01*
X164670619Y-79677380D01*
D13*
%TO.C,G\u002A\u002A\u002A*%
G36*
X125164256Y-123575902D02*
G01*
X125229752Y-123581494D01*
X125304043Y-123590405D01*
X125378300Y-123601087D01*
X125414894Y-123607406D01*
X125441708Y-123613974D01*
X125460245Y-123621447D01*
X125472008Y-123630483D01*
X125478499Y-123641737D01*
X125479571Y-123645352D01*
X125481206Y-123665689D01*
X125478698Y-123693827D01*
X125472692Y-123727343D01*
X125463835Y-123763816D01*
X125452771Y-123800824D01*
X125440147Y-123835944D01*
X125426609Y-123866756D01*
X125414962Y-123887600D01*
X125381877Y-123929910D01*
X125340523Y-123968719D01*
X125293438Y-124002293D01*
X125243160Y-124028897D01*
X125192227Y-124046797D01*
X125176844Y-124050280D01*
X125150758Y-124054338D01*
X125118722Y-124057804D01*
X125084085Y-124060472D01*
X125050198Y-124062136D01*
X125020412Y-124062589D01*
X124998076Y-124061624D01*
X124996222Y-124061423D01*
X124941284Y-124049610D01*
X124891742Y-124027994D01*
X124848159Y-123996972D01*
X124811096Y-123956945D01*
X124781638Y-123909356D01*
X124772284Y-123889851D01*
X124766481Y-123874192D01*
X124763389Y-123858415D01*
X124762170Y-123838558D01*
X124761978Y-123816533D01*
X124762123Y-123806314D01*
X124870506Y-123806314D01*
X124872617Y-123837988D01*
X124884589Y-123867807D01*
X124906947Y-123898893D01*
X124933480Y-123922545D01*
X124965212Y-123939089D01*
X125003168Y-123948851D01*
X125048371Y-123952160D01*
X125101847Y-123949340D01*
X125129869Y-123946026D01*
X125159211Y-123940346D01*
X125188852Y-123931821D01*
X125208001Y-123924353D01*
X125234288Y-123909229D01*
X125262605Y-123888105D01*
X125289770Y-123863791D01*
X125312605Y-123839095D01*
X125326224Y-123819919D01*
X125333172Y-123805748D01*
X125340978Y-123786546D01*
X125348725Y-123765082D01*
X125355496Y-123744127D01*
X125360375Y-123726450D01*
X125362445Y-123714821D01*
X125361977Y-123711918D01*
X125354498Y-123709390D01*
X125337688Y-123706279D01*
X125313475Y-123702789D01*
X125283790Y-123699122D01*
X125250562Y-123695481D01*
X125215721Y-123692068D01*
X125181197Y-123689086D01*
X125148919Y-123686738D01*
X125120817Y-123685227D01*
X125103466Y-123684763D01*
X125053100Y-123685926D01*
X125011118Y-123690766D01*
X124975058Y-123699838D01*
X124942456Y-123713696D01*
X124921696Y-123725696D01*
X124895559Y-123748201D01*
X124878324Y-123775729D01*
X124870506Y-123806314D01*
X124762123Y-123806314D01*
X124762360Y-123789788D01*
X124764018Y-123770334D01*
X124767720Y-123754188D01*
X124774232Y-123737365D01*
X124779373Y-123726206D01*
X124803921Y-123685709D01*
X124836491Y-123651695D01*
X124878138Y-123623151D01*
X124896374Y-123613619D01*
X124931451Y-123598710D01*
X124968937Y-123587287D01*
X125009896Y-123579323D01*
X125055392Y-123574789D01*
X125106491Y-123573658D01*
X125164256Y-123575902D01*
G37*
X125164256Y-123575902D02*
X125229752Y-123581494D01*
X125304043Y-123590405D01*
X125378300Y-123601087D01*
X125414894Y-123607406D01*
X125441708Y-123613974D01*
X125460245Y-123621447D01*
X125472008Y-123630483D01*
X125478499Y-123641737D01*
X125479571Y-123645352D01*
X125481206Y-123665689D01*
X125478698Y-123693827D01*
X125472692Y-123727343D01*
X125463835Y-123763816D01*
X125452771Y-123800824D01*
X125440147Y-123835944D01*
X125426609Y-123866756D01*
X125414962Y-123887600D01*
X125381877Y-123929910D01*
X125340523Y-123968719D01*
X125293438Y-124002293D01*
X125243160Y-124028897D01*
X125192227Y-124046797D01*
X125176844Y-124050280D01*
X125150758Y-124054338D01*
X125118722Y-124057804D01*
X125084085Y-124060472D01*
X125050198Y-124062136D01*
X125020412Y-124062589D01*
X124998076Y-124061624D01*
X124996222Y-124061423D01*
X124941284Y-124049610D01*
X124891742Y-124027994D01*
X124848159Y-123996972D01*
X124811096Y-123956945D01*
X124781638Y-123909356D01*
X124772284Y-123889851D01*
X124766481Y-123874192D01*
X124763389Y-123858415D01*
X124762170Y-123838558D01*
X124761978Y-123816533D01*
X124762123Y-123806314D01*
X124870506Y-123806314D01*
X124872617Y-123837988D01*
X124884589Y-123867807D01*
X124906947Y-123898893D01*
X124933480Y-123922545D01*
X124965212Y-123939089D01*
X125003168Y-123948851D01*
X125048371Y-123952160D01*
X125101847Y-123949340D01*
X125129869Y-123946026D01*
X125159211Y-123940346D01*
X125188852Y-123931821D01*
X125208001Y-123924353D01*
X125234288Y-123909229D01*
X125262605Y-123888105D01*
X125289770Y-123863791D01*
X125312605Y-123839095D01*
X125326224Y-123819919D01*
X125333172Y-123805748D01*
X125340978Y-123786546D01*
X125348725Y-123765082D01*
X125355496Y-123744127D01*
X125360375Y-123726450D01*
X125362445Y-123714821D01*
X125361977Y-123711918D01*
X125354498Y-123709390D01*
X125337688Y-123706279D01*
X125313475Y-123702789D01*
X125283790Y-123699122D01*
X125250562Y-123695481D01*
X125215721Y-123692068D01*
X125181197Y-123689086D01*
X125148919Y-123686738D01*
X125120817Y-123685227D01*
X125103466Y-123684763D01*
X125053100Y-123685926D01*
X125011118Y-123690766D01*
X124975058Y-123699838D01*
X124942456Y-123713696D01*
X124921696Y-123725696D01*
X124895559Y-123748201D01*
X124878324Y-123775729D01*
X124870506Y-123806314D01*
X124762123Y-123806314D01*
X124762360Y-123789788D01*
X124764018Y-123770334D01*
X124767720Y-123754188D01*
X124774232Y-123737365D01*
X124779373Y-123726206D01*
X124803921Y-123685709D01*
X124836491Y-123651695D01*
X124878138Y-123623151D01*
X124896374Y-123613619D01*
X124931451Y-123598710D01*
X124968937Y-123587287D01*
X125009896Y-123579323D01*
X125055392Y-123574789D01*
X125106491Y-123573658D01*
X125164256Y-123575902D01*
G36*
X125253839Y-122621691D02*
G01*
X125329648Y-122635113D01*
X125339154Y-122637496D01*
X125415859Y-122662635D01*
X125488952Y-122696819D01*
X125556897Y-122739055D01*
X125618157Y-122788346D01*
X125671197Y-122843696D01*
X125685929Y-122862193D01*
X125708261Y-122895255D01*
X125730882Y-122935150D01*
X125752071Y-122978290D01*
X125770108Y-123021088D01*
X125783272Y-123059955D01*
X125786292Y-123071467D01*
X125789690Y-123087210D01*
X125792837Y-123105138D01*
X125795758Y-123125820D01*
X125798475Y-123149821D01*
X125801013Y-123177709D01*
X125803396Y-123210053D01*
X125805645Y-123247419D01*
X125807787Y-123290374D01*
X125809843Y-123339487D01*
X125811839Y-123395325D01*
X125813797Y-123458454D01*
X125815741Y-123529443D01*
X125817695Y-123608859D01*
X125819683Y-123697270D01*
X125821728Y-123795242D01*
X125823853Y-123903344D01*
X125826084Y-124022142D01*
X125826181Y-124027409D01*
X125827493Y-124098081D01*
X125828574Y-124158323D01*
X125829345Y-124208996D01*
X125829726Y-124250956D01*
X125829637Y-124285064D01*
X125829001Y-124312179D01*
X125827737Y-124333158D01*
X125825766Y-124348860D01*
X125823008Y-124360145D01*
X125819385Y-124367872D01*
X125814817Y-124372898D01*
X125809224Y-124376083D01*
X125802528Y-124378286D01*
X125794649Y-124380366D01*
X125793553Y-124380666D01*
X125779330Y-124384154D01*
X125770433Y-124385479D01*
X125769511Y-124385358D01*
X125763345Y-124384936D01*
X125747376Y-124384353D01*
X125723086Y-124383647D01*
X125691961Y-124382860D01*
X125655483Y-124382030D01*
X125615136Y-124381198D01*
X125613024Y-124381156D01*
X125567345Y-124380233D01*
X125531599Y-124379375D01*
X125504433Y-124378457D01*
X125484495Y-124377352D01*
X125470429Y-124375934D01*
X125460884Y-124374077D01*
X125454505Y-124371654D01*
X125449939Y-124368540D01*
X125446889Y-124365675D01*
X125438528Y-124353487D01*
X125433721Y-124335697D01*
X125431997Y-124319718D01*
X125429576Y-124286242D01*
X125388781Y-124304833D01*
X125311107Y-124335242D01*
X125229726Y-124357829D01*
X125146071Y-124372637D01*
X125061576Y-124379711D01*
X124977672Y-124379094D01*
X124895793Y-124370830D01*
X124817373Y-124354963D01*
X124743843Y-124331536D01*
X124676637Y-124300595D01*
X124645479Y-124282078D01*
X124598937Y-124247804D01*
X124555470Y-124207824D01*
X124517233Y-124164490D01*
X124486381Y-124120152D01*
X124471480Y-124092278D01*
X124449291Y-124032542D01*
X124434823Y-123966731D01*
X124428400Y-123900683D01*
X124540243Y-123900683D01*
X124544663Y-123953728D01*
X124554785Y-124000084D01*
X124571226Y-124041592D01*
X124594602Y-124080091D01*
X124625531Y-124117422D01*
X124638912Y-124131206D01*
X124674730Y-124164606D01*
X124708125Y-124190408D01*
X124742413Y-124210736D01*
X124780909Y-124227713D01*
X124800714Y-124234904D01*
X124853687Y-124249548D01*
X124914194Y-124260128D01*
X124979159Y-124266433D01*
X125045506Y-124268253D01*
X125110158Y-124265380D01*
X125159720Y-124259378D01*
X125212763Y-124248323D01*
X125266535Y-124232645D01*
X125318619Y-124213338D01*
X125366595Y-124191395D01*
X125408043Y-124167811D01*
X125439623Y-124144394D01*
X125462722Y-124130024D01*
X125486166Y-124126313D01*
X125508470Y-124133279D01*
X125521589Y-124143477D01*
X125529306Y-124151778D01*
X125534143Y-124159807D01*
X125536772Y-124170396D01*
X125537864Y-124186372D01*
X125538088Y-124210567D01*
X125538089Y-124213092D01*
X125538465Y-124236557D01*
X125539475Y-124255585D01*
X125540941Y-124267475D01*
X125541852Y-124269970D01*
X125548522Y-124271267D01*
X125564448Y-124272370D01*
X125587595Y-124273197D01*
X125615930Y-124273662D01*
X125632911Y-124273733D01*
X125720208Y-124273733D01*
X125716476Y-124069122D01*
X125714083Y-123941566D01*
X125711748Y-123824875D01*
X125709455Y-123718627D01*
X125707190Y-123622399D01*
X125704937Y-123535767D01*
X125702680Y-123458309D01*
X125700404Y-123389602D01*
X125698093Y-123329222D01*
X125695733Y-123276747D01*
X125693306Y-123231753D01*
X125690799Y-123193818D01*
X125688195Y-123162518D01*
X125685479Y-123137431D01*
X125682635Y-123118134D01*
X125681435Y-123111825D01*
X125662295Y-123046492D01*
X125633068Y-122984707D01*
X125594653Y-122927433D01*
X125547951Y-122875632D01*
X125493862Y-122830266D01*
X125433288Y-122792300D01*
X125367130Y-122762696D01*
X125348963Y-122756434D01*
X125295721Y-122741466D01*
X125244382Y-122732210D01*
X125190845Y-122728150D01*
X125131008Y-122728771D01*
X125129491Y-122728838D01*
X125037912Y-122736696D01*
X124953669Y-122751944D01*
X124875276Y-122774933D01*
X124801489Y-122805893D01*
X124766651Y-122824384D01*
X124732089Y-122845467D01*
X124700507Y-122867301D01*
X124674609Y-122888046D01*
X124660452Y-122901883D01*
X124653223Y-122911332D01*
X124653714Y-122917167D01*
X124657958Y-122920987D01*
X124665042Y-122926732D01*
X124679062Y-122938436D01*
X124698377Y-122954718D01*
X124721347Y-122974196D01*
X124738388Y-122988708D01*
X124810098Y-123049883D01*
X124850949Y-123032906D01*
X124920577Y-123009137D01*
X124997929Y-122992581D01*
X125043908Y-122986498D01*
X125117818Y-122983174D01*
X125186115Y-122989509D01*
X125248694Y-123005462D01*
X125305445Y-123030995D01*
X125356262Y-123066068D01*
X125401038Y-123110642D01*
X125408499Y-123119737D01*
X125435811Y-123158811D01*
X125455967Y-123199492D01*
X125470700Y-123245598D01*
X125475844Y-123268264D01*
X125481421Y-123299401D01*
X125483203Y-123322214D01*
X125480956Y-123339092D01*
X125474442Y-123352425D01*
X125466639Y-123361510D01*
X125458789Y-123368099D01*
X125449227Y-123372541D01*
X125435270Y-123375514D01*
X125414234Y-123377698D01*
X125398126Y-123378844D01*
X125294728Y-123386084D01*
X125201926Y-123393583D01*
X125119027Y-123401436D01*
X125045341Y-123409740D01*
X124980175Y-123418591D01*
X124922838Y-123428085D01*
X124872636Y-123438319D01*
X124828880Y-123449388D01*
X124790876Y-123461389D01*
X124782425Y-123464460D01*
X124732936Y-123488613D01*
X124686268Y-123522421D01*
X124644080Y-123564312D01*
X124608030Y-123612712D01*
X124587426Y-123649436D01*
X124570078Y-123687308D01*
X124557671Y-123721408D01*
X124549289Y-123755471D01*
X124544017Y-123793232D01*
X124540937Y-123838426D01*
X124540906Y-123839111D01*
X124540243Y-123900683D01*
X124428400Y-123900683D01*
X124428039Y-123896972D01*
X124428903Y-123825392D01*
X124437379Y-123754117D01*
X124453432Y-123685276D01*
X124477025Y-123620994D01*
X124479543Y-123615449D01*
X124514463Y-123551860D01*
X124557220Y-123494378D01*
X124606670Y-123444124D01*
X124661664Y-123402221D01*
X124721055Y-123369793D01*
X124737615Y-123362839D01*
X124783403Y-123347407D01*
X124839821Y-123332888D01*
X124906239Y-123319389D01*
X124982026Y-123307019D01*
X125066552Y-123295884D01*
X125159188Y-123286090D01*
X125221254Y-123280672D01*
X125259448Y-123277491D01*
X125293789Y-123274442D01*
X125322713Y-123271680D01*
X125344655Y-123269359D01*
X125358050Y-123267633D01*
X125361534Y-123266836D01*
X125361876Y-123259160D01*
X125356425Y-123245049D01*
X125346555Y-123226792D01*
X125333636Y-123206678D01*
X125319040Y-123186998D01*
X125304139Y-123170039D01*
X125302628Y-123168524D01*
X125266860Y-123138374D01*
X125228278Y-123116529D01*
X125185241Y-123102463D01*
X125136111Y-123095649D01*
X125079249Y-123095559D01*
X125076209Y-123095719D01*
X125016385Y-123102106D01*
X124958358Y-123114161D01*
X124905202Y-123131096D01*
X124863216Y-123150323D01*
X124845411Y-123160068D01*
X124830585Y-123167316D01*
X124817461Y-123171553D01*
X124804765Y-123172265D01*
X124791221Y-123168937D01*
X124775554Y-123161057D01*
X124756489Y-123148110D01*
X124732750Y-123129583D01*
X124703062Y-123104960D01*
X124666150Y-123073730D01*
X124659810Y-123068358D01*
X124627526Y-123040899D01*
X124597693Y-123015314D01*
X124571510Y-122992648D01*
X124550176Y-122973945D01*
X124534892Y-122960252D01*
X124526855Y-122952612D01*
X124526322Y-122952021D01*
X124518491Y-122935173D01*
X124517015Y-122913514D01*
X124522023Y-122891651D01*
X124524493Y-122886331D01*
X124532907Y-122874671D01*
X124547939Y-122857793D01*
X124567541Y-122837718D01*
X124589667Y-122816467D01*
X124612273Y-122796061D01*
X124633311Y-122778519D01*
X124634978Y-122777213D01*
X124696514Y-122735592D01*
X124766218Y-122699584D01*
X124842268Y-122669552D01*
X124922838Y-122645858D01*
X125006104Y-122628862D01*
X125090243Y-122618928D01*
X125173429Y-122616417D01*
X125253839Y-122621691D01*
G37*
X125253839Y-122621691D02*
X125329648Y-122635113D01*
X125339154Y-122637496D01*
X125415859Y-122662635D01*
X125488952Y-122696819D01*
X125556897Y-122739055D01*
X125618157Y-122788346D01*
X125671197Y-122843696D01*
X125685929Y-122862193D01*
X125708261Y-122895255D01*
X125730882Y-122935150D01*
X125752071Y-122978290D01*
X125770108Y-123021088D01*
X125783272Y-123059955D01*
X125786292Y-123071467D01*
X125789690Y-123087210D01*
X125792837Y-123105138D01*
X125795758Y-123125820D01*
X125798475Y-123149821D01*
X125801013Y-123177709D01*
X125803396Y-123210053D01*
X125805645Y-123247419D01*
X125807787Y-123290374D01*
X125809843Y-123339487D01*
X125811839Y-123395325D01*
X125813797Y-123458454D01*
X125815741Y-123529443D01*
X125817695Y-123608859D01*
X125819683Y-123697270D01*
X125821728Y-123795242D01*
X125823853Y-123903344D01*
X125826084Y-124022142D01*
X125826181Y-124027409D01*
X125827493Y-124098081D01*
X125828574Y-124158323D01*
X125829345Y-124208996D01*
X125829726Y-124250956D01*
X125829637Y-124285064D01*
X125829001Y-124312179D01*
X125827737Y-124333158D01*
X125825766Y-124348860D01*
X125823008Y-124360145D01*
X125819385Y-124367872D01*
X125814817Y-124372898D01*
X125809224Y-124376083D01*
X125802528Y-124378286D01*
X125794649Y-124380366D01*
X125793553Y-124380666D01*
X125779330Y-124384154D01*
X125770433Y-124385479D01*
X125769511Y-124385358D01*
X125763345Y-124384936D01*
X125747376Y-124384353D01*
X125723086Y-124383647D01*
X125691961Y-124382860D01*
X125655483Y-124382030D01*
X125615136Y-124381198D01*
X125613024Y-124381156D01*
X125567345Y-124380233D01*
X125531599Y-124379375D01*
X125504433Y-124378457D01*
X125484495Y-124377352D01*
X125470429Y-124375934D01*
X125460884Y-124374077D01*
X125454505Y-124371654D01*
X125449939Y-124368540D01*
X125446889Y-124365675D01*
X125438528Y-124353487D01*
X125433721Y-124335697D01*
X125431997Y-124319718D01*
X125429576Y-124286242D01*
X125388781Y-124304833D01*
X125311107Y-124335242D01*
X125229726Y-124357829D01*
X125146071Y-124372637D01*
X125061576Y-124379711D01*
X124977672Y-124379094D01*
X124895793Y-124370830D01*
X124817373Y-124354963D01*
X124743843Y-124331536D01*
X124676637Y-124300595D01*
X124645479Y-124282078D01*
X124598937Y-124247804D01*
X124555470Y-124207824D01*
X124517233Y-124164490D01*
X124486381Y-124120152D01*
X124471480Y-124092278D01*
X124449291Y-124032542D01*
X124434823Y-123966731D01*
X124428400Y-123900683D01*
X124540243Y-123900683D01*
X124544663Y-123953728D01*
X124554785Y-124000084D01*
X124571226Y-124041592D01*
X124594602Y-124080091D01*
X124625531Y-124117422D01*
X124638912Y-124131206D01*
X124674730Y-124164606D01*
X124708125Y-124190408D01*
X124742413Y-124210736D01*
X124780909Y-124227713D01*
X124800714Y-124234904D01*
X124853687Y-124249548D01*
X124914194Y-124260128D01*
X124979159Y-124266433D01*
X125045506Y-124268253D01*
X125110158Y-124265380D01*
X125159720Y-124259378D01*
X125212763Y-124248323D01*
X125266535Y-124232645D01*
X125318619Y-124213338D01*
X125366595Y-124191395D01*
X125408043Y-124167811D01*
X125439623Y-124144394D01*
X125462722Y-124130024D01*
X125486166Y-124126313D01*
X125508470Y-124133279D01*
X125521589Y-124143477D01*
X125529306Y-124151778D01*
X125534143Y-124159807D01*
X125536772Y-124170396D01*
X125537864Y-124186372D01*
X125538088Y-124210567D01*
X125538089Y-124213092D01*
X125538465Y-124236557D01*
X125539475Y-124255585D01*
X125540941Y-124267475D01*
X125541852Y-124269970D01*
X125548522Y-124271267D01*
X125564448Y-124272370D01*
X125587595Y-124273197D01*
X125615930Y-124273662D01*
X125632911Y-124273733D01*
X125720208Y-124273733D01*
X125716476Y-124069122D01*
X125714083Y-123941566D01*
X125711748Y-123824875D01*
X125709455Y-123718627D01*
X125707190Y-123622399D01*
X125704937Y-123535767D01*
X125702680Y-123458309D01*
X125700404Y-123389602D01*
X125698093Y-123329222D01*
X125695733Y-123276747D01*
X125693306Y-123231753D01*
X125690799Y-123193818D01*
X125688195Y-123162518D01*
X125685479Y-123137431D01*
X125682635Y-123118134D01*
X125681435Y-123111825D01*
X125662295Y-123046492D01*
X125633068Y-122984707D01*
X125594653Y-122927433D01*
X125547951Y-122875632D01*
X125493862Y-122830266D01*
X125433288Y-122792300D01*
X125367130Y-122762696D01*
X125348963Y-122756434D01*
X125295721Y-122741466D01*
X125244382Y-122732210D01*
X125190845Y-122728150D01*
X125131008Y-122728771D01*
X125129491Y-122728838D01*
X125037912Y-122736696D01*
X124953669Y-122751944D01*
X124875276Y-122774933D01*
X124801489Y-122805893D01*
X124766651Y-122824384D01*
X124732089Y-122845467D01*
X124700507Y-122867301D01*
X124674609Y-122888046D01*
X124660452Y-122901883D01*
X124653223Y-122911332D01*
X124653714Y-122917167D01*
X124657958Y-122920987D01*
X124665042Y-122926732D01*
X124679062Y-122938436D01*
X124698377Y-122954718D01*
X124721347Y-122974196D01*
X124738388Y-122988708D01*
X124810098Y-123049883D01*
X124850949Y-123032906D01*
X124920577Y-123009137D01*
X124997929Y-122992581D01*
X125043908Y-122986498D01*
X125117818Y-122983174D01*
X125186115Y-122989509D01*
X125248694Y-123005462D01*
X125305445Y-123030995D01*
X125356262Y-123066068D01*
X125401038Y-123110642D01*
X125408499Y-123119737D01*
X125435811Y-123158811D01*
X125455967Y-123199492D01*
X125470700Y-123245598D01*
X125475844Y-123268264D01*
X125481421Y-123299401D01*
X125483203Y-123322214D01*
X125480956Y-123339092D01*
X125474442Y-123352425D01*
X125466639Y-123361510D01*
X125458789Y-123368099D01*
X125449227Y-123372541D01*
X125435270Y-123375514D01*
X125414234Y-123377698D01*
X125398126Y-123378844D01*
X125294728Y-123386084D01*
X125201926Y-123393583D01*
X125119027Y-123401436D01*
X125045341Y-123409740D01*
X124980175Y-123418591D01*
X124922838Y-123428085D01*
X124872636Y-123438319D01*
X124828880Y-123449388D01*
X124790876Y-123461389D01*
X124782425Y-123464460D01*
X124732936Y-123488613D01*
X124686268Y-123522421D01*
X124644080Y-123564312D01*
X124608030Y-123612712D01*
X124587426Y-123649436D01*
X124570078Y-123687308D01*
X124557671Y-123721408D01*
X124549289Y-123755471D01*
X124544017Y-123793232D01*
X124540937Y-123838426D01*
X124540906Y-123839111D01*
X124540243Y-123900683D01*
X124428400Y-123900683D01*
X124428039Y-123896972D01*
X124428903Y-123825392D01*
X124437379Y-123754117D01*
X124453432Y-123685276D01*
X124477025Y-123620994D01*
X124479543Y-123615449D01*
X124514463Y-123551860D01*
X124557220Y-123494378D01*
X124606670Y-123444124D01*
X124661664Y-123402221D01*
X124721055Y-123369793D01*
X124737615Y-123362839D01*
X124783403Y-123347407D01*
X124839821Y-123332888D01*
X124906239Y-123319389D01*
X124982026Y-123307019D01*
X125066552Y-123295884D01*
X125159188Y-123286090D01*
X125221254Y-123280672D01*
X125259448Y-123277491D01*
X125293789Y-123274442D01*
X125322713Y-123271680D01*
X125344655Y-123269359D01*
X125358050Y-123267633D01*
X125361534Y-123266836D01*
X125361876Y-123259160D01*
X125356425Y-123245049D01*
X125346555Y-123226792D01*
X125333636Y-123206678D01*
X125319040Y-123186998D01*
X125304139Y-123170039D01*
X125302628Y-123168524D01*
X125266860Y-123138374D01*
X125228278Y-123116529D01*
X125185241Y-123102463D01*
X125136111Y-123095649D01*
X125079249Y-123095559D01*
X125076209Y-123095719D01*
X125016385Y-123102106D01*
X124958358Y-123114161D01*
X124905202Y-123131096D01*
X124863216Y-123150323D01*
X124845411Y-123160068D01*
X124830585Y-123167316D01*
X124817461Y-123171553D01*
X124804765Y-123172265D01*
X124791221Y-123168937D01*
X124775554Y-123161057D01*
X124756489Y-123148110D01*
X124732750Y-123129583D01*
X124703062Y-123104960D01*
X124666150Y-123073730D01*
X124659810Y-123068358D01*
X124627526Y-123040899D01*
X124597693Y-123015314D01*
X124571510Y-122992648D01*
X124550176Y-122973945D01*
X124534892Y-122960252D01*
X124526855Y-122952612D01*
X124526322Y-122952021D01*
X124518491Y-122935173D01*
X124517015Y-122913514D01*
X124522023Y-122891651D01*
X124524493Y-122886331D01*
X124532907Y-122874671D01*
X124547939Y-122857793D01*
X124567541Y-122837718D01*
X124589667Y-122816467D01*
X124612273Y-122796061D01*
X124633311Y-122778519D01*
X124634978Y-122777213D01*
X124696514Y-122735592D01*
X124766218Y-122699584D01*
X124842268Y-122669552D01*
X124922838Y-122645858D01*
X125006104Y-122628862D01*
X125090243Y-122618928D01*
X125173429Y-122616417D01*
X125253839Y-122621691D01*
G36*
X123255805Y-122005551D02*
G01*
X123285887Y-122005867D01*
X123308319Y-122006366D01*
X123321617Y-122007037D01*
X123324230Y-122007393D01*
X123335674Y-122014217D01*
X123346860Y-122026726D01*
X123348198Y-122028807D01*
X123350619Y-122033177D01*
X123352664Y-122038319D01*
X123354368Y-122045175D01*
X123355766Y-122054684D01*
X123356892Y-122067787D01*
X123357782Y-122085427D01*
X123358469Y-122108543D01*
X123358988Y-122138076D01*
X123359376Y-122174968D01*
X123359665Y-122220160D01*
X123359891Y-122274591D01*
X123360088Y-122339203D01*
X123360123Y-122351800D01*
X123360377Y-122423013D01*
X123360763Y-122501915D01*
X123361260Y-122585621D01*
X123361848Y-122671241D01*
X123362506Y-122755891D01*
X123363213Y-122836681D01*
X123363950Y-122910726D01*
X123364377Y-122949028D01*
X123367800Y-123241455D01*
X123658435Y-122936450D01*
X123705631Y-122887050D01*
X123750857Y-122839962D01*
X123793469Y-122795841D01*
X123832825Y-122755341D01*
X123868280Y-122719117D01*
X123899192Y-122687823D01*
X123924918Y-122662113D01*
X123944814Y-122642643D01*
X123958237Y-122630065D01*
X123964537Y-122625038D01*
X123972713Y-122621892D01*
X123980296Y-122620148D01*
X123988192Y-122620447D01*
X123997304Y-122623428D01*
X124008537Y-122629731D01*
X124022795Y-122639996D01*
X124040984Y-122654863D01*
X124064007Y-122674972D01*
X124092768Y-122700963D01*
X124128174Y-122733476D01*
X124162141Y-122764846D01*
X124196269Y-122796656D01*
X124222758Y-122822163D01*
X124242464Y-122842495D01*
X124256244Y-122858781D01*
X124264958Y-122872149D01*
X124269460Y-122883728D01*
X124270610Y-122894647D01*
X124269289Y-122905902D01*
X124267378Y-122909971D01*
X124262349Y-122917505D01*
X124253836Y-122928947D01*
X124241470Y-122944742D01*
X124224885Y-122965335D01*
X124203713Y-122991169D01*
X124177587Y-123022689D01*
X124146138Y-123060340D01*
X124109001Y-123104565D01*
X124065807Y-123155809D01*
X124016189Y-123214516D01*
X123959780Y-123281131D01*
X123928853Y-123317614D01*
X123890042Y-123363384D01*
X124027430Y-123619592D01*
X124085556Y-123727653D01*
X124138776Y-123825890D01*
X124187241Y-123914572D01*
X124231104Y-123993970D01*
X124270513Y-124064352D01*
X124305621Y-124125989D01*
X124336577Y-124179149D01*
X124363534Y-124224103D01*
X124385665Y-124259593D01*
X124403585Y-124291093D01*
X124412910Y-124316708D01*
X124413812Y-124337669D01*
X124406462Y-124355207D01*
X124399978Y-124362845D01*
X124383705Y-124379119D01*
X124191182Y-124383017D01*
X124140699Y-124383880D01*
X124095328Y-124384344D01*
X124056208Y-124384414D01*
X124024478Y-124384097D01*
X124001275Y-124383400D01*
X123987739Y-124382331D01*
X123985207Y-124381772D01*
X123970777Y-124373386D01*
X123962765Y-124366103D01*
X123958032Y-124359184D01*
X123948114Y-124343632D01*
X123933649Y-124320482D01*
X123915278Y-124290771D01*
X123893639Y-124255536D01*
X123869372Y-124215814D01*
X123843115Y-124172640D01*
X123823996Y-124141089D01*
X123793682Y-124091017D01*
X123762371Y-124039352D01*
X123731154Y-123987889D01*
X123701121Y-123938424D01*
X123673361Y-123892750D01*
X123648965Y-123852664D01*
X123629022Y-123819959D01*
X123624535Y-123812616D01*
X123554853Y-123698633D01*
X123487734Y-123761816D01*
X123462285Y-123785677D01*
X123437093Y-123809125D01*
X123414452Y-123830037D01*
X123396653Y-123846292D01*
X123390691Y-123851650D01*
X123360766Y-123878300D01*
X123356862Y-124105650D01*
X123355854Y-124156635D01*
X123354654Y-124204411D01*
X123353313Y-124247687D01*
X123351882Y-124285173D01*
X123350411Y-124315577D01*
X123348951Y-124337608D01*
X123347554Y-124349976D01*
X123347209Y-124351442D01*
X123343930Y-124360675D01*
X123339676Y-124368134D01*
X123333300Y-124374009D01*
X123323656Y-124378489D01*
X123309596Y-124381761D01*
X123289973Y-124384015D01*
X123263640Y-124385439D01*
X123229450Y-124386222D01*
X123186257Y-124386554D01*
X123133401Y-124386622D01*
X122957709Y-124386622D01*
X122923915Y-124352828D01*
X122924996Y-124280327D01*
X123036498Y-124280327D01*
X123135368Y-124278441D01*
X123167776Y-124277571D01*
X123196268Y-124276329D01*
X123218924Y-124274838D01*
X123233822Y-124273219D01*
X123238930Y-124271855D01*
X123240077Y-124265332D01*
X123241311Y-124248788D01*
X123242582Y-124223492D01*
X123243843Y-124190711D01*
X123245046Y-124151713D01*
X123246142Y-124107765D01*
X123247084Y-124060135D01*
X123247179Y-124054544D01*
X123248079Y-124006357D01*
X123249097Y-123961521D01*
X123250188Y-123921336D01*
X123251310Y-123887104D01*
X123252421Y-123860127D01*
X123253476Y-123841708D01*
X123254432Y-123833148D01*
X123254519Y-123832889D01*
X123259515Y-123826745D01*
X123271672Y-123814034D01*
X123289868Y-123795861D01*
X123312981Y-123773331D01*
X123339892Y-123747548D01*
X123369071Y-123720000D01*
X123411442Y-123680290D01*
X123446405Y-123647612D01*
X123474789Y-123621281D01*
X123497427Y-123600613D01*
X123515150Y-123584923D01*
X123528788Y-123573528D01*
X123539173Y-123565742D01*
X123547137Y-123560880D01*
X123553509Y-123558260D01*
X123559122Y-123557195D01*
X123564806Y-123557002D01*
X123566980Y-123557014D01*
X123584385Y-123559715D01*
X123598734Y-123566129D01*
X123599720Y-123566892D01*
X123604438Y-123573147D01*
X123614459Y-123588213D01*
X123629258Y-123611235D01*
X123648308Y-123641358D01*
X123671081Y-123677726D01*
X123697052Y-123719484D01*
X123725694Y-123765777D01*
X123756480Y-123815750D01*
X123788884Y-123868546D01*
X123822379Y-123923311D01*
X123856438Y-123979190D01*
X123890535Y-124035326D01*
X123924144Y-124090865D01*
X123956737Y-124144952D01*
X123987788Y-124196730D01*
X123997541Y-124213055D01*
X124033756Y-124273733D01*
X124145278Y-124273733D01*
X124185895Y-124273457D01*
X124218073Y-124272653D01*
X124241046Y-124271360D01*
X124254046Y-124269617D01*
X124256800Y-124268140D01*
X124254103Y-124261692D01*
X124246602Y-124247123D01*
X124235180Y-124226061D01*
X124220721Y-124200135D01*
X124204109Y-124170975D01*
X124203993Y-124170773D01*
X124176469Y-124122680D01*
X124148576Y-124073393D01*
X124119698Y-124021789D01*
X124089218Y-123966745D01*
X124056520Y-123907139D01*
X124020987Y-123841849D01*
X123982005Y-123769751D01*
X123938956Y-123689723D01*
X123898372Y-123614001D01*
X123868165Y-123557516D01*
X123842896Y-123510100D01*
X123822150Y-123470884D01*
X123805511Y-123438998D01*
X123792565Y-123413571D01*
X123782897Y-123393734D01*
X123776092Y-123378617D01*
X123771735Y-123367349D01*
X123769410Y-123359062D01*
X123768704Y-123352884D01*
X123769202Y-123347946D01*
X123770009Y-123344875D01*
X123774981Y-123336319D01*
X123786845Y-123319897D01*
X123805080Y-123296260D01*
X123829164Y-123266055D01*
X123858576Y-123229933D01*
X123892796Y-123188542D01*
X123931301Y-123142530D01*
X123955583Y-123113758D01*
X123991111Y-123071738D01*
X124024370Y-123032314D01*
X124054655Y-122996329D01*
X124081261Y-122964623D01*
X124103485Y-122938038D01*
X124120623Y-122917414D01*
X124131969Y-122903592D01*
X124136819Y-122897414D01*
X124136942Y-122897201D01*
X124133447Y-122892443D01*
X124123095Y-122881701D01*
X124107498Y-122866460D01*
X124088264Y-122848203D01*
X124067005Y-122828413D01*
X124045331Y-122808575D01*
X124024853Y-122790172D01*
X124007181Y-122774687D01*
X123993925Y-122763604D01*
X123986696Y-122758407D01*
X123986049Y-122758200D01*
X123981663Y-122762189D01*
X123970087Y-122773751D01*
X123951908Y-122792274D01*
X123927716Y-122817151D01*
X123898098Y-122847771D01*
X123863642Y-122883525D01*
X123824936Y-122923803D01*
X123782568Y-122967995D01*
X123737127Y-123015493D01*
X123689199Y-123065685D01*
X123667539Y-123088400D01*
X123618394Y-123139885D01*
X123571234Y-123189151D01*
X123526675Y-123235561D01*
X123485332Y-123278481D01*
X123447821Y-123317277D01*
X123414758Y-123351313D01*
X123386759Y-123379955D01*
X123364438Y-123402569D01*
X123348411Y-123418519D01*
X123339295Y-123427172D01*
X123337719Y-123428448D01*
X123323420Y-123435531D01*
X123311355Y-123438305D01*
X123292530Y-123433481D01*
X123274617Y-123421194D01*
X123261880Y-123404759D01*
X123259179Y-123397727D01*
X123258355Y-123389094D01*
X123257542Y-123370122D01*
X123256755Y-123341761D01*
X123256007Y-123304959D01*
X123255311Y-123260666D01*
X123254681Y-123209832D01*
X123254131Y-123153407D01*
X123253674Y-123092339D01*
X123253324Y-123027579D01*
X123253135Y-122975511D01*
X123252876Y-122901135D01*
X123252525Y-122824070D01*
X123252093Y-122746022D01*
X123251593Y-122668698D01*
X123251038Y-122593806D01*
X123250441Y-122523051D01*
X123249814Y-122458141D01*
X123249171Y-122400783D01*
X123248524Y-122352682D01*
X123248402Y-122344744D01*
X123244824Y-122117555D01*
X123036507Y-122117555D01*
X123041287Y-122466100D01*
X123042624Y-122575327D01*
X123043664Y-122687043D01*
X123044406Y-122802169D01*
X123044851Y-122921624D01*
X123044996Y-123046328D01*
X123044843Y-123177202D01*
X123044390Y-123315165D01*
X123043636Y-123461138D01*
X123042581Y-123616041D01*
X123041224Y-123780793D01*
X123040332Y-123877686D01*
X123036498Y-124280327D01*
X122924996Y-124280327D01*
X122928272Y-124060692D01*
X122929120Y-123995906D01*
X122929881Y-123922050D01*
X122930553Y-123840216D01*
X122931135Y-123751495D01*
X122931629Y-123656980D01*
X122932034Y-123557761D01*
X122932350Y-123454932D01*
X122932576Y-123349583D01*
X122932712Y-123242807D01*
X122932758Y-123135696D01*
X122932715Y-123029342D01*
X122932581Y-122924835D01*
X122932357Y-122823270D01*
X122932042Y-122725736D01*
X122931636Y-122633326D01*
X122931140Y-122547133D01*
X122930552Y-122468247D01*
X122929874Y-122397760D01*
X122929103Y-122336766D01*
X122928557Y-122302933D01*
X122923937Y-122045222D01*
X122940787Y-122026355D01*
X122957638Y-122007489D01*
X123134497Y-122005831D01*
X123178626Y-122005521D01*
X123219557Y-122005432D01*
X123255805Y-122005551D01*
G37*
X123255805Y-122005551D02*
X123285887Y-122005867D01*
X123308319Y-122006366D01*
X123321617Y-122007037D01*
X123324230Y-122007393D01*
X123335674Y-122014217D01*
X123346860Y-122026726D01*
X123348198Y-122028807D01*
X123350619Y-122033177D01*
X123352664Y-122038319D01*
X123354368Y-122045175D01*
X123355766Y-122054684D01*
X123356892Y-122067787D01*
X123357782Y-122085427D01*
X123358469Y-122108543D01*
X123358988Y-122138076D01*
X123359376Y-122174968D01*
X123359665Y-122220160D01*
X123359891Y-122274591D01*
X123360088Y-122339203D01*
X123360123Y-122351800D01*
X123360377Y-122423013D01*
X123360763Y-122501915D01*
X123361260Y-122585621D01*
X123361848Y-122671241D01*
X123362506Y-122755891D01*
X123363213Y-122836681D01*
X123363950Y-122910726D01*
X123364377Y-122949028D01*
X123367800Y-123241455D01*
X123658435Y-122936450D01*
X123705631Y-122887050D01*
X123750857Y-122839962D01*
X123793469Y-122795841D01*
X123832825Y-122755341D01*
X123868280Y-122719117D01*
X123899192Y-122687823D01*
X123924918Y-122662113D01*
X123944814Y-122642643D01*
X123958237Y-122630065D01*
X123964537Y-122625038D01*
X123972713Y-122621892D01*
X123980296Y-122620148D01*
X123988192Y-122620447D01*
X123997304Y-122623428D01*
X124008537Y-122629731D01*
X124022795Y-122639996D01*
X124040984Y-122654863D01*
X124064007Y-122674972D01*
X124092768Y-122700963D01*
X124128174Y-122733476D01*
X124162141Y-122764846D01*
X124196269Y-122796656D01*
X124222758Y-122822163D01*
X124242464Y-122842495D01*
X124256244Y-122858781D01*
X124264958Y-122872149D01*
X124269460Y-122883728D01*
X124270610Y-122894647D01*
X124269289Y-122905902D01*
X124267378Y-122909971D01*
X124262349Y-122917505D01*
X124253836Y-122928947D01*
X124241470Y-122944742D01*
X124224885Y-122965335D01*
X124203713Y-122991169D01*
X124177587Y-123022689D01*
X124146138Y-123060340D01*
X124109001Y-123104565D01*
X124065807Y-123155809D01*
X124016189Y-123214516D01*
X123959780Y-123281131D01*
X123928853Y-123317614D01*
X123890042Y-123363384D01*
X124027430Y-123619592D01*
X124085556Y-123727653D01*
X124138776Y-123825890D01*
X124187241Y-123914572D01*
X124231104Y-123993970D01*
X124270513Y-124064352D01*
X124305621Y-124125989D01*
X124336577Y-124179149D01*
X124363534Y-124224103D01*
X124385665Y-124259593D01*
X124403585Y-124291093D01*
X124412910Y-124316708D01*
X124413812Y-124337669D01*
X124406462Y-124355207D01*
X124399978Y-124362845D01*
X124383705Y-124379119D01*
X124191182Y-124383017D01*
X124140699Y-124383880D01*
X124095328Y-124384344D01*
X124056208Y-124384414D01*
X124024478Y-124384097D01*
X124001275Y-124383400D01*
X123987739Y-124382331D01*
X123985207Y-124381772D01*
X123970777Y-124373386D01*
X123962765Y-124366103D01*
X123958032Y-124359184D01*
X123948114Y-124343632D01*
X123933649Y-124320482D01*
X123915278Y-124290771D01*
X123893639Y-124255536D01*
X123869372Y-124215814D01*
X123843115Y-124172640D01*
X123823996Y-124141089D01*
X123793682Y-124091017D01*
X123762371Y-124039352D01*
X123731154Y-123987889D01*
X123701121Y-123938424D01*
X123673361Y-123892750D01*
X123648965Y-123852664D01*
X123629022Y-123819959D01*
X123624535Y-123812616D01*
X123554853Y-123698633D01*
X123487734Y-123761816D01*
X123462285Y-123785677D01*
X123437093Y-123809125D01*
X123414452Y-123830037D01*
X123396653Y-123846292D01*
X123390691Y-123851650D01*
X123360766Y-123878300D01*
X123356862Y-124105650D01*
X123355854Y-124156635D01*
X123354654Y-124204411D01*
X123353313Y-124247687D01*
X123351882Y-124285173D01*
X123350411Y-124315577D01*
X123348951Y-124337608D01*
X123347554Y-124349976D01*
X123347209Y-124351442D01*
X123343930Y-124360675D01*
X123339676Y-124368134D01*
X123333300Y-124374009D01*
X123323656Y-124378489D01*
X123309596Y-124381761D01*
X123289973Y-124384015D01*
X123263640Y-124385439D01*
X123229450Y-124386222D01*
X123186257Y-124386554D01*
X123133401Y-124386622D01*
X122957709Y-124386622D01*
X122923915Y-124352828D01*
X122924996Y-124280327D01*
X123036498Y-124280327D01*
X123135368Y-124278441D01*
X123167776Y-124277571D01*
X123196268Y-124276329D01*
X123218924Y-124274838D01*
X123233822Y-124273219D01*
X123238930Y-124271855D01*
X123240077Y-124265332D01*
X123241311Y-124248788D01*
X123242582Y-124223492D01*
X123243843Y-124190711D01*
X123245046Y-124151713D01*
X123246142Y-124107765D01*
X123247084Y-124060135D01*
X123247179Y-124054544D01*
X123248079Y-124006357D01*
X123249097Y-123961521D01*
X123250188Y-123921336D01*
X123251310Y-123887104D01*
X123252421Y-123860127D01*
X123253476Y-123841708D01*
X123254432Y-123833148D01*
X123254519Y-123832889D01*
X123259515Y-123826745D01*
X123271672Y-123814034D01*
X123289868Y-123795861D01*
X123312981Y-123773331D01*
X123339892Y-123747548D01*
X123369071Y-123720000D01*
X123411442Y-123680290D01*
X123446405Y-123647612D01*
X123474789Y-123621281D01*
X123497427Y-123600613D01*
X123515150Y-123584923D01*
X123528788Y-123573528D01*
X123539173Y-123565742D01*
X123547137Y-123560880D01*
X123553509Y-123558260D01*
X123559122Y-123557195D01*
X123564806Y-123557002D01*
X123566980Y-123557014D01*
X123584385Y-123559715D01*
X123598734Y-123566129D01*
X123599720Y-123566892D01*
X123604438Y-123573147D01*
X123614459Y-123588213D01*
X123629258Y-123611235D01*
X123648308Y-123641358D01*
X123671081Y-123677726D01*
X123697052Y-123719484D01*
X123725694Y-123765777D01*
X123756480Y-123815750D01*
X123788884Y-123868546D01*
X123822379Y-123923311D01*
X123856438Y-123979190D01*
X123890535Y-124035326D01*
X123924144Y-124090865D01*
X123956737Y-124144952D01*
X123987788Y-124196730D01*
X123997541Y-124213055D01*
X124033756Y-124273733D01*
X124145278Y-124273733D01*
X124185895Y-124273457D01*
X124218073Y-124272653D01*
X124241046Y-124271360D01*
X124254046Y-124269617D01*
X124256800Y-124268140D01*
X124254103Y-124261692D01*
X124246602Y-124247123D01*
X124235180Y-124226061D01*
X124220721Y-124200135D01*
X124204109Y-124170975D01*
X124203993Y-124170773D01*
X124176469Y-124122680D01*
X124148576Y-124073393D01*
X124119698Y-124021789D01*
X124089218Y-123966745D01*
X124056520Y-123907139D01*
X124020987Y-123841849D01*
X123982005Y-123769751D01*
X123938956Y-123689723D01*
X123898372Y-123614001D01*
X123868165Y-123557516D01*
X123842896Y-123510100D01*
X123822150Y-123470884D01*
X123805511Y-123438998D01*
X123792565Y-123413571D01*
X123782897Y-123393734D01*
X123776092Y-123378617D01*
X123771735Y-123367349D01*
X123769410Y-123359062D01*
X123768704Y-123352884D01*
X123769202Y-123347946D01*
X123770009Y-123344875D01*
X123774981Y-123336319D01*
X123786845Y-123319897D01*
X123805080Y-123296260D01*
X123829164Y-123266055D01*
X123858576Y-123229933D01*
X123892796Y-123188542D01*
X123931301Y-123142530D01*
X123955583Y-123113758D01*
X123991111Y-123071738D01*
X124024370Y-123032314D01*
X124054655Y-122996329D01*
X124081261Y-122964623D01*
X124103485Y-122938038D01*
X124120623Y-122917414D01*
X124131969Y-122903592D01*
X124136819Y-122897414D01*
X124136942Y-122897201D01*
X124133447Y-122892443D01*
X124123095Y-122881701D01*
X124107498Y-122866460D01*
X124088264Y-122848203D01*
X124067005Y-122828413D01*
X124045331Y-122808575D01*
X124024853Y-122790172D01*
X124007181Y-122774687D01*
X123993925Y-122763604D01*
X123986696Y-122758407D01*
X123986049Y-122758200D01*
X123981663Y-122762189D01*
X123970087Y-122773751D01*
X123951908Y-122792274D01*
X123927716Y-122817151D01*
X123898098Y-122847771D01*
X123863642Y-122883525D01*
X123824936Y-122923803D01*
X123782568Y-122967995D01*
X123737127Y-123015493D01*
X123689199Y-123065685D01*
X123667539Y-123088400D01*
X123618394Y-123139885D01*
X123571234Y-123189151D01*
X123526675Y-123235561D01*
X123485332Y-123278481D01*
X123447821Y-123317277D01*
X123414758Y-123351313D01*
X123386759Y-123379955D01*
X123364438Y-123402569D01*
X123348411Y-123418519D01*
X123339295Y-123427172D01*
X123337719Y-123428448D01*
X123323420Y-123435531D01*
X123311355Y-123438305D01*
X123292530Y-123433481D01*
X123274617Y-123421194D01*
X123261880Y-123404759D01*
X123259179Y-123397727D01*
X123258355Y-123389094D01*
X123257542Y-123370122D01*
X123256755Y-123341761D01*
X123256007Y-123304959D01*
X123255311Y-123260666D01*
X123254681Y-123209832D01*
X123254131Y-123153407D01*
X123253674Y-123092339D01*
X123253324Y-123027579D01*
X123253135Y-122975511D01*
X123252876Y-122901135D01*
X123252525Y-122824070D01*
X123252093Y-122746022D01*
X123251593Y-122668698D01*
X123251038Y-122593806D01*
X123250441Y-122523051D01*
X123249814Y-122458141D01*
X123249171Y-122400783D01*
X123248524Y-122352682D01*
X123248402Y-122344744D01*
X123244824Y-122117555D01*
X123036507Y-122117555D01*
X123041287Y-122466100D01*
X123042624Y-122575327D01*
X123043664Y-122687043D01*
X123044406Y-122802169D01*
X123044851Y-122921624D01*
X123044996Y-123046328D01*
X123044843Y-123177202D01*
X123044390Y-123315165D01*
X123043636Y-123461138D01*
X123042581Y-123616041D01*
X123041224Y-123780793D01*
X123040332Y-123877686D01*
X123036498Y-124280327D01*
X122924996Y-124280327D01*
X122928272Y-124060692D01*
X122929120Y-123995906D01*
X122929881Y-123922050D01*
X122930553Y-123840216D01*
X122931135Y-123751495D01*
X122931629Y-123656980D01*
X122932034Y-123557761D01*
X122932350Y-123454932D01*
X122932576Y-123349583D01*
X122932712Y-123242807D01*
X122932758Y-123135696D01*
X122932715Y-123029342D01*
X122932581Y-122924835D01*
X122932357Y-122823270D01*
X122932042Y-122725736D01*
X122931636Y-122633326D01*
X122931140Y-122547133D01*
X122930552Y-122468247D01*
X122929874Y-122397760D01*
X122929103Y-122336766D01*
X122928557Y-122302933D01*
X122923937Y-122045222D01*
X122940787Y-122026355D01*
X122957638Y-122007489D01*
X123134497Y-122005831D01*
X123178626Y-122005521D01*
X123219557Y-122005432D01*
X123255805Y-122005551D01*
G36*
X119967022Y-122059982D02*
G01*
X119967022Y-123940711D01*
X120475203Y-123940711D01*
X120564233Y-123940732D01*
X120642655Y-123940802D01*
X120711150Y-123940933D01*
X120770397Y-123941133D01*
X120821078Y-123941415D01*
X120863874Y-123941789D01*
X120899464Y-123942266D01*
X120928530Y-123942855D01*
X120951752Y-123943568D01*
X120969810Y-123944416D01*
X120983386Y-123945409D01*
X120993160Y-123946558D01*
X120999813Y-123947873D01*
X121003162Y-123948974D01*
X121012528Y-123953347D01*
X121020131Y-123958613D01*
X121026153Y-123965917D01*
X121030778Y-123976401D01*
X121034190Y-123991211D01*
X121036571Y-124011490D01*
X121038106Y-124038382D01*
X121038978Y-124073031D01*
X121039370Y-124116581D01*
X121039466Y-124170177D01*
X121039466Y-124353884D01*
X121020275Y-124373075D01*
X121001084Y-124392267D01*
X120279442Y-124391909D01*
X120187781Y-124391825D01*
X120099594Y-124391669D01*
X120015534Y-124391446D01*
X119936253Y-124391160D01*
X119862403Y-124390816D01*
X119794636Y-124390420D01*
X119733606Y-124389975D01*
X119679963Y-124389486D01*
X119634361Y-124388959D01*
X119597451Y-124388397D01*
X119569886Y-124387806D01*
X119552318Y-124387191D01*
X119545429Y-124386568D01*
X119533407Y-124378267D01*
X119523150Y-124366464D01*
X119521421Y-124363280D01*
X119519904Y-124358870D01*
X119518586Y-124352518D01*
X119517453Y-124343511D01*
X119516489Y-124331134D01*
X119515682Y-124314674D01*
X119515017Y-124293417D01*
X119514481Y-124266647D01*
X119514059Y-124233652D01*
X119513737Y-124193717D01*
X119513501Y-124146127D01*
X119513337Y-124090169D01*
X119513232Y-124025129D01*
X119513171Y-123950292D01*
X119513139Y-123864945D01*
X119513138Y-123856749D01*
X119513145Y-123813026D01*
X119619464Y-123813026D01*
X119619720Y-123892776D01*
X119620281Y-123965469D01*
X119620607Y-123992922D01*
X119624419Y-124279378D01*
X120926578Y-124279378D01*
X120926578Y-124053600D01*
X119889194Y-124053600D01*
X119871663Y-124037224D01*
X119854133Y-124020848D01*
X119854133Y-122134489D01*
X119628355Y-122134489D01*
X119628213Y-122626967D01*
X119628118Y-122709516D01*
X119627886Y-122795332D01*
X119627530Y-122882815D01*
X119627061Y-122970368D01*
X119626490Y-123056393D01*
X119625831Y-123139293D01*
X119625093Y-123217469D01*
X119624290Y-123289323D01*
X119623432Y-123353258D01*
X119622533Y-123407676D01*
X119622433Y-123412955D01*
X119621304Y-123483192D01*
X119620433Y-123561304D01*
X119619830Y-123644304D01*
X119619504Y-123729207D01*
X119619464Y-123813026D01*
X119513145Y-123813026D01*
X119513151Y-123779797D01*
X119513219Y-123693183D01*
X119513338Y-123598534D01*
X119513505Y-123497476D01*
X119513714Y-123391636D01*
X119513963Y-123282641D01*
X119514248Y-123172117D01*
X119514564Y-123061691D01*
X119514909Y-122952991D01*
X119515278Y-122847641D01*
X119515667Y-122747270D01*
X119515828Y-122708772D01*
X119518624Y-122055388D01*
X119549576Y-122024422D01*
X119738890Y-122022793D01*
X119928205Y-122021165D01*
X119967022Y-122059982D01*
G37*
X119967022Y-122059982D02*
X119967022Y-123940711D01*
X120475203Y-123940711D01*
X120564233Y-123940732D01*
X120642655Y-123940802D01*
X120711150Y-123940933D01*
X120770397Y-123941133D01*
X120821078Y-123941415D01*
X120863874Y-123941789D01*
X120899464Y-123942266D01*
X120928530Y-123942855D01*
X120951752Y-123943568D01*
X120969810Y-123944416D01*
X120983386Y-123945409D01*
X120993160Y-123946558D01*
X120999813Y-123947873D01*
X121003162Y-123948974D01*
X121012528Y-123953347D01*
X121020131Y-123958613D01*
X121026153Y-123965917D01*
X121030778Y-123976401D01*
X121034190Y-123991211D01*
X121036571Y-124011490D01*
X121038106Y-124038382D01*
X121038978Y-124073031D01*
X121039370Y-124116581D01*
X121039466Y-124170177D01*
X121039466Y-124353884D01*
X121020275Y-124373075D01*
X121001084Y-124392267D01*
X120279442Y-124391909D01*
X120187781Y-124391825D01*
X120099594Y-124391669D01*
X120015534Y-124391446D01*
X119936253Y-124391160D01*
X119862403Y-124390816D01*
X119794636Y-124390420D01*
X119733606Y-124389975D01*
X119679963Y-124389486D01*
X119634361Y-124388959D01*
X119597451Y-124388397D01*
X119569886Y-124387806D01*
X119552318Y-124387191D01*
X119545429Y-124386568D01*
X119533407Y-124378267D01*
X119523150Y-124366464D01*
X119521421Y-124363280D01*
X119519904Y-124358870D01*
X119518586Y-124352518D01*
X119517453Y-124343511D01*
X119516489Y-124331134D01*
X119515682Y-124314674D01*
X119515017Y-124293417D01*
X119514481Y-124266647D01*
X119514059Y-124233652D01*
X119513737Y-124193717D01*
X119513501Y-124146127D01*
X119513337Y-124090169D01*
X119513232Y-124025129D01*
X119513171Y-123950292D01*
X119513139Y-123864945D01*
X119513138Y-123856749D01*
X119513145Y-123813026D01*
X119619464Y-123813026D01*
X119619720Y-123892776D01*
X119620281Y-123965469D01*
X119620607Y-123992922D01*
X119624419Y-124279378D01*
X120926578Y-124279378D01*
X120926578Y-124053600D01*
X119889194Y-124053600D01*
X119871663Y-124037224D01*
X119854133Y-124020848D01*
X119854133Y-122134489D01*
X119628355Y-122134489D01*
X119628213Y-122626967D01*
X119628118Y-122709516D01*
X119627886Y-122795332D01*
X119627530Y-122882815D01*
X119627061Y-122970368D01*
X119626490Y-123056393D01*
X119625831Y-123139293D01*
X119625093Y-123217469D01*
X119624290Y-123289323D01*
X119623432Y-123353258D01*
X119622533Y-123407676D01*
X119622433Y-123412955D01*
X119621304Y-123483192D01*
X119620433Y-123561304D01*
X119619830Y-123644304D01*
X119619504Y-123729207D01*
X119619464Y-123813026D01*
X119513145Y-123813026D01*
X119513151Y-123779797D01*
X119513219Y-123693183D01*
X119513338Y-123598534D01*
X119513505Y-123497476D01*
X119513714Y-123391636D01*
X119513963Y-123282641D01*
X119514248Y-123172117D01*
X119514564Y-123061691D01*
X119514909Y-122952991D01*
X119515278Y-122847641D01*
X119515667Y-122747270D01*
X119515828Y-122708772D01*
X119518624Y-122055388D01*
X119549576Y-122024422D01*
X119738890Y-122022793D01*
X119928205Y-122021165D01*
X119967022Y-122059982D01*
G36*
X122522008Y-122592911D02*
G01*
X122550183Y-122594097D01*
X122571559Y-122596146D01*
X122587259Y-122599221D01*
X122598405Y-122603488D01*
X122606118Y-122609111D01*
X122611521Y-122616255D01*
X122615736Y-122625084D01*
X122616415Y-122626763D01*
X122617431Y-122631046D01*
X122618333Y-122638825D01*
X122619122Y-122650590D01*
X122619799Y-122666832D01*
X122620367Y-122688045D01*
X122620825Y-122714717D01*
X122621177Y-122747342D01*
X122621424Y-122786410D01*
X122621568Y-122832412D01*
X122621609Y-122885840D01*
X122621551Y-122947185D01*
X122621394Y-123016938D01*
X122621139Y-123095591D01*
X122620790Y-123183635D01*
X122620346Y-123281561D01*
X122619811Y-123389860D01*
X122619276Y-123491978D01*
X122618737Y-123589037D01*
X122618174Y-123683122D01*
X122617592Y-123773603D01*
X122616998Y-123859851D01*
X122616397Y-123941235D01*
X122615795Y-124017127D01*
X122615197Y-124086896D01*
X122614610Y-124149914D01*
X122614038Y-124205549D01*
X122613487Y-124253174D01*
X122612964Y-124292158D01*
X122612473Y-124321873D01*
X122612021Y-124341687D01*
X122611613Y-124350972D01*
X122611535Y-124351519D01*
X122604714Y-124362963D01*
X122592207Y-124374148D01*
X122590126Y-124375487D01*
X122584186Y-124378716D01*
X122577281Y-124381253D01*
X122568056Y-124383179D01*
X122555155Y-124384579D01*
X122537222Y-124385537D01*
X122512902Y-124386134D01*
X122480840Y-124386455D01*
X122439679Y-124386582D01*
X122409221Y-124386601D01*
X122246509Y-124386622D01*
X122230010Y-124370123D01*
X122218923Y-124356433D01*
X122214221Y-124341550D01*
X122213511Y-124327790D01*
X122213108Y-124312485D01*
X122212089Y-124303220D01*
X122211454Y-124301955D01*
X122205861Y-124304307D01*
X122192410Y-124310651D01*
X122173338Y-124319919D01*
X122158165Y-124327413D01*
X122084288Y-124359777D01*
X122012840Y-124381888D01*
X121942186Y-124394023D01*
X121870689Y-124396461D01*
X121796714Y-124389480D01*
X121794893Y-124389199D01*
X121715802Y-124371292D01*
X121640649Y-124343065D01*
X121569975Y-124304965D01*
X121504323Y-124257438D01*
X121444233Y-124200931D01*
X121390246Y-124135889D01*
X121342905Y-124062759D01*
X121303714Y-123984218D01*
X121285600Y-123937462D01*
X121268245Y-123883288D01*
X121252723Y-123825565D01*
X121240109Y-123768160D01*
X121234167Y-123734074D01*
X121231287Y-123709239D01*
X121228592Y-123673671D01*
X121226097Y-123627925D01*
X121223814Y-123572555D01*
X121221756Y-123508115D01*
X121219936Y-123435160D01*
X121218368Y-123354246D01*
X121217063Y-123265925D01*
X121216036Y-123170753D01*
X121215300Y-123069284D01*
X121214867Y-122962072D01*
X121214774Y-122911577D01*
X121214539Y-122711202D01*
X121322088Y-122711202D01*
X121325049Y-123039501D01*
X121326266Y-123156048D01*
X121327721Y-123262666D01*
X121329409Y-123359200D01*
X121331327Y-123445493D01*
X121333468Y-123521392D01*
X121335829Y-123586739D01*
X121338404Y-123641380D01*
X121341190Y-123685160D01*
X121344180Y-123717922D01*
X121346508Y-123734906D01*
X121366346Y-123825224D01*
X121393741Y-123909220D01*
X121428342Y-123986266D01*
X121469798Y-124055732D01*
X121517757Y-124116990D01*
X121571870Y-124169411D01*
X121601972Y-124192717D01*
X121645863Y-124220169D01*
X121695164Y-124244461D01*
X121746148Y-124264054D01*
X121795089Y-124277408D01*
X121815578Y-124280989D01*
X121850401Y-124283986D01*
X121889746Y-124284464D01*
X121929479Y-124282593D01*
X121965465Y-124278541D01*
X121988430Y-124273934D01*
X122053238Y-124252761D01*
X122116207Y-124224206D01*
X122174071Y-124189917D01*
X122213923Y-124159949D01*
X122240046Y-124142040D01*
X122263438Y-124134907D01*
X122284581Y-124138502D01*
X122302411Y-124151197D01*
X122309687Y-124159322D01*
X122314461Y-124168027D01*
X122317449Y-124180065D01*
X122319368Y-124198189D01*
X122320755Y-124221625D01*
X122323578Y-124276555D01*
X122413889Y-124274517D01*
X122444438Y-124273782D01*
X122470648Y-124273065D01*
X122490612Y-124272424D01*
X122502424Y-124271920D01*
X122504827Y-124271695D01*
X122504927Y-124266063D01*
X122505073Y-124249785D01*
X122505262Y-124223502D01*
X122505491Y-124187859D01*
X122505756Y-124143496D01*
X122506053Y-124091056D01*
X122506379Y-124031181D01*
X122506731Y-123964515D01*
X122507105Y-123891699D01*
X122507497Y-123813375D01*
X122507905Y-123730187D01*
X122508325Y-123642776D01*
X122508753Y-123551785D01*
X122509049Y-123487744D01*
X122512644Y-122704578D01*
X122281302Y-122704578D01*
X122282643Y-123137789D01*
X122282883Y-123224912D01*
X122282997Y-123301636D01*
X122282940Y-123368849D01*
X122282665Y-123427441D01*
X122282127Y-123478301D01*
X122281278Y-123522317D01*
X122280072Y-123560378D01*
X122278464Y-123593375D01*
X122276407Y-123622195D01*
X122273854Y-123647728D01*
X122270760Y-123670863D01*
X122267078Y-123692489D01*
X122262762Y-123713495D01*
X122257766Y-123734769D01*
X122252043Y-123757202D01*
X122250008Y-123764930D01*
X122227349Y-123832816D01*
X122197605Y-123892296D01*
X122160954Y-123943165D01*
X122117576Y-123985216D01*
X122067650Y-124018243D01*
X122011357Y-124042040D01*
X122007489Y-124043261D01*
X121972915Y-124051090D01*
X121931759Y-124056000D01*
X121888393Y-124057799D01*
X121847190Y-124056294D01*
X121814628Y-124051757D01*
X121759372Y-124034553D01*
X121710259Y-124007898D01*
X121667338Y-123971842D01*
X121630657Y-123926435D01*
X121600264Y-123871730D01*
X121576208Y-123807775D01*
X121573747Y-123799472D01*
X121568075Y-123779264D01*
X121563073Y-123759827D01*
X121558692Y-123740323D01*
X121554885Y-123719915D01*
X121551602Y-123697766D01*
X121548795Y-123673038D01*
X121546416Y-123644893D01*
X121544417Y-123612495D01*
X121542748Y-123575004D01*
X121541362Y-123531586D01*
X121540209Y-123481400D01*
X121539242Y-123423611D01*
X121538412Y-123357381D01*
X121537671Y-123281872D01*
X121536970Y-123196246D01*
X121536690Y-123158955D01*
X121533355Y-122707400D01*
X121474089Y-122705608D01*
X121442632Y-122705199D01*
X121409056Y-122705632D01*
X121378884Y-122706809D01*
X121368455Y-122707509D01*
X121322088Y-122711202D01*
X121214539Y-122711202D01*
X121214444Y-122630331D01*
X121247442Y-122597333D01*
X121418621Y-122596683D01*
X121461945Y-122596555D01*
X121501984Y-122596505D01*
X121537241Y-122596529D01*
X121566222Y-122596625D01*
X121587430Y-122596789D01*
X121599371Y-122597017D01*
X121601089Y-122597112D01*
X121612456Y-122601661D01*
X121625666Y-122611426D01*
X121627620Y-122613284D01*
X121642862Y-122628378D01*
X121648547Y-123133555D01*
X121649600Y-123225749D01*
X121650589Y-123307422D01*
X121651558Y-123379340D01*
X121652551Y-123442273D01*
X121653612Y-123496986D01*
X121654786Y-123544247D01*
X121656115Y-123584824D01*
X121657645Y-123619484D01*
X121659418Y-123648994D01*
X121661480Y-123674121D01*
X121663875Y-123695633D01*
X121666645Y-123714297D01*
X121669836Y-123730881D01*
X121673491Y-123746151D01*
X121677655Y-123760875D01*
X121682371Y-123775820D01*
X121686035Y-123786856D01*
X121701463Y-123827100D01*
X121718490Y-123859063D01*
X121738937Y-123885751D01*
X121756414Y-123903043D01*
X121780818Y-123921866D01*
X121806730Y-123934796D01*
X121836598Y-123942520D01*
X121872873Y-123945725D01*
X121907802Y-123945510D01*
X121936214Y-123944230D01*
X121956872Y-123942189D01*
X121973314Y-123938646D01*
X121989073Y-123932863D01*
X122005853Y-123925004D01*
X122046678Y-123898704D01*
X122082062Y-123863034D01*
X122111401Y-123818823D01*
X122134087Y-123766903D01*
X122143089Y-123736994D01*
X122147658Y-123719230D01*
X122151683Y-123702856D01*
X122155204Y-123687058D01*
X122158260Y-123671021D01*
X122160892Y-123653930D01*
X122163138Y-123634970D01*
X122165040Y-123613326D01*
X122166635Y-123588183D01*
X122167965Y-123558726D01*
X122169068Y-123524141D01*
X122169985Y-123483613D01*
X122170755Y-123436325D01*
X122171417Y-123381464D01*
X122172013Y-123318215D01*
X122172580Y-123245762D01*
X122173159Y-123163291D01*
X122173503Y-123112541D01*
X122176822Y-122620215D01*
X122189672Y-122607363D01*
X122193425Y-122603833D01*
X122197683Y-122601006D01*
X122203670Y-122598789D01*
X122212613Y-122597094D01*
X122225738Y-122595828D01*
X122244271Y-122594902D01*
X122269437Y-122594224D01*
X122302463Y-122593705D01*
X122344573Y-122593252D01*
X122385469Y-122592879D01*
X122440773Y-122592466D01*
X122485912Y-122592422D01*
X122522008Y-122592911D01*
G37*
X122522008Y-122592911D02*
X122550183Y-122594097D01*
X122571559Y-122596146D01*
X122587259Y-122599221D01*
X122598405Y-122603488D01*
X122606118Y-122609111D01*
X122611521Y-122616255D01*
X122615736Y-122625084D01*
X122616415Y-122626763D01*
X122617431Y-122631046D01*
X122618333Y-122638825D01*
X122619122Y-122650590D01*
X122619799Y-122666832D01*
X122620367Y-122688045D01*
X122620825Y-122714717D01*
X122621177Y-122747342D01*
X122621424Y-122786410D01*
X122621568Y-122832412D01*
X122621609Y-122885840D01*
X122621551Y-122947185D01*
X122621394Y-123016938D01*
X122621139Y-123095591D01*
X122620790Y-123183635D01*
X122620346Y-123281561D01*
X122619811Y-123389860D01*
X122619276Y-123491978D01*
X122618737Y-123589037D01*
X122618174Y-123683122D01*
X122617592Y-123773603D01*
X122616998Y-123859851D01*
X122616397Y-123941235D01*
X122615795Y-124017127D01*
X122615197Y-124086896D01*
X122614610Y-124149914D01*
X122614038Y-124205549D01*
X122613487Y-124253174D01*
X122612964Y-124292158D01*
X122612473Y-124321873D01*
X122612021Y-124341687D01*
X122611613Y-124350972D01*
X122611535Y-124351519D01*
X122604714Y-124362963D01*
X122592207Y-124374148D01*
X122590126Y-124375487D01*
X122584186Y-124378716D01*
X122577281Y-124381253D01*
X122568056Y-124383179D01*
X122555155Y-124384579D01*
X122537222Y-124385537D01*
X122512902Y-124386134D01*
X122480840Y-124386455D01*
X122439679Y-124386582D01*
X122409221Y-124386601D01*
X122246509Y-124386622D01*
X122230010Y-124370123D01*
X122218923Y-124356433D01*
X122214221Y-124341550D01*
X122213511Y-124327790D01*
X122213108Y-124312485D01*
X122212089Y-124303220D01*
X122211454Y-124301955D01*
X122205861Y-124304307D01*
X122192410Y-124310651D01*
X122173338Y-124319919D01*
X122158165Y-124327413D01*
X122084288Y-124359777D01*
X122012840Y-124381888D01*
X121942186Y-124394023D01*
X121870689Y-124396461D01*
X121796714Y-124389480D01*
X121794893Y-124389199D01*
X121715802Y-124371292D01*
X121640649Y-124343065D01*
X121569975Y-124304965D01*
X121504323Y-124257438D01*
X121444233Y-124200931D01*
X121390246Y-124135889D01*
X121342905Y-124062759D01*
X121303714Y-123984218D01*
X121285600Y-123937462D01*
X121268245Y-123883288D01*
X121252723Y-123825565D01*
X121240109Y-123768160D01*
X121234167Y-123734074D01*
X121231287Y-123709239D01*
X121228592Y-123673671D01*
X121226097Y-123627925D01*
X121223814Y-123572555D01*
X121221756Y-123508115D01*
X121219936Y-123435160D01*
X121218368Y-123354246D01*
X121217063Y-123265925D01*
X121216036Y-123170753D01*
X121215300Y-123069284D01*
X121214867Y-122962072D01*
X121214774Y-122911577D01*
X121214539Y-122711202D01*
X121322088Y-122711202D01*
X121325049Y-123039501D01*
X121326266Y-123156048D01*
X121327721Y-123262666D01*
X121329409Y-123359200D01*
X121331327Y-123445493D01*
X121333468Y-123521392D01*
X121335829Y-123586739D01*
X121338404Y-123641380D01*
X121341190Y-123685160D01*
X121344180Y-123717922D01*
X121346508Y-123734906D01*
X121366346Y-123825224D01*
X121393741Y-123909220D01*
X121428342Y-123986266D01*
X121469798Y-124055732D01*
X121517757Y-124116990D01*
X121571870Y-124169411D01*
X121601972Y-124192717D01*
X121645863Y-124220169D01*
X121695164Y-124244461D01*
X121746148Y-124264054D01*
X121795089Y-124277408D01*
X121815578Y-124280989D01*
X121850401Y-124283986D01*
X121889746Y-124284464D01*
X121929479Y-124282593D01*
X121965465Y-124278541D01*
X121988430Y-124273934D01*
X122053238Y-124252761D01*
X122116207Y-124224206D01*
X122174071Y-124189917D01*
X122213923Y-124159949D01*
X122240046Y-124142040D01*
X122263438Y-124134907D01*
X122284581Y-124138502D01*
X122302411Y-124151197D01*
X122309687Y-124159322D01*
X122314461Y-124168027D01*
X122317449Y-124180065D01*
X122319368Y-124198189D01*
X122320755Y-124221625D01*
X122323578Y-124276555D01*
X122413889Y-124274517D01*
X122444438Y-124273782D01*
X122470648Y-124273065D01*
X122490612Y-124272424D01*
X122502424Y-124271920D01*
X122504827Y-124271695D01*
X122504927Y-124266063D01*
X122505073Y-124249785D01*
X122505262Y-124223502D01*
X122505491Y-124187859D01*
X122505756Y-124143496D01*
X122506053Y-124091056D01*
X122506379Y-124031181D01*
X122506731Y-123964515D01*
X122507105Y-123891699D01*
X122507497Y-123813375D01*
X122507905Y-123730187D01*
X122508325Y-123642776D01*
X122508753Y-123551785D01*
X122509049Y-123487744D01*
X122512644Y-122704578D01*
X122281302Y-122704578D01*
X122282643Y-123137789D01*
X122282883Y-123224912D01*
X122282997Y-123301636D01*
X122282940Y-123368849D01*
X122282665Y-123427441D01*
X122282127Y-123478301D01*
X122281278Y-123522317D01*
X122280072Y-123560378D01*
X122278464Y-123593375D01*
X122276407Y-123622195D01*
X122273854Y-123647728D01*
X122270760Y-123670863D01*
X122267078Y-123692489D01*
X122262762Y-123713495D01*
X122257766Y-123734769D01*
X122252043Y-123757202D01*
X122250008Y-123764930D01*
X122227349Y-123832816D01*
X122197605Y-123892296D01*
X122160954Y-123943165D01*
X122117576Y-123985216D01*
X122067650Y-124018243D01*
X122011357Y-124042040D01*
X122007489Y-124043261D01*
X121972915Y-124051090D01*
X121931759Y-124056000D01*
X121888393Y-124057799D01*
X121847190Y-124056294D01*
X121814628Y-124051757D01*
X121759372Y-124034553D01*
X121710259Y-124007898D01*
X121667338Y-123971842D01*
X121630657Y-123926435D01*
X121600264Y-123871730D01*
X121576208Y-123807775D01*
X121573747Y-123799472D01*
X121568075Y-123779264D01*
X121563073Y-123759827D01*
X121558692Y-123740323D01*
X121554885Y-123719915D01*
X121551602Y-123697766D01*
X121548795Y-123673038D01*
X121546416Y-123644893D01*
X121544417Y-123612495D01*
X121542748Y-123575004D01*
X121541362Y-123531586D01*
X121540209Y-123481400D01*
X121539242Y-123423611D01*
X121538412Y-123357381D01*
X121537671Y-123281872D01*
X121536970Y-123196246D01*
X121536690Y-123158955D01*
X121533355Y-122707400D01*
X121474089Y-122705608D01*
X121442632Y-122705199D01*
X121409056Y-122705632D01*
X121378884Y-122706809D01*
X121368455Y-122707509D01*
X121322088Y-122711202D01*
X121214539Y-122711202D01*
X121214444Y-122630331D01*
X121247442Y-122597333D01*
X121418621Y-122596683D01*
X121461945Y-122596555D01*
X121501984Y-122596505D01*
X121537241Y-122596529D01*
X121566222Y-122596625D01*
X121587430Y-122596789D01*
X121599371Y-122597017D01*
X121601089Y-122597112D01*
X121612456Y-122601661D01*
X121625666Y-122611426D01*
X121627620Y-122613284D01*
X121642862Y-122628378D01*
X121648547Y-123133555D01*
X121649600Y-123225749D01*
X121650589Y-123307422D01*
X121651558Y-123379340D01*
X121652551Y-123442273D01*
X121653612Y-123496986D01*
X121654786Y-123544247D01*
X121656115Y-123584824D01*
X121657645Y-123619484D01*
X121659418Y-123648994D01*
X121661480Y-123674121D01*
X121663875Y-123695633D01*
X121666645Y-123714297D01*
X121669836Y-123730881D01*
X121673491Y-123746151D01*
X121677655Y-123760875D01*
X121682371Y-123775820D01*
X121686035Y-123786856D01*
X121701463Y-123827100D01*
X121718490Y-123859063D01*
X121738937Y-123885751D01*
X121756414Y-123903043D01*
X121780818Y-123921866D01*
X121806730Y-123934796D01*
X121836598Y-123942520D01*
X121872873Y-123945725D01*
X121907802Y-123945510D01*
X121936214Y-123944230D01*
X121956872Y-123942189D01*
X121973314Y-123938646D01*
X121989073Y-123932863D01*
X122005853Y-123925004D01*
X122046678Y-123898704D01*
X122082062Y-123863034D01*
X122111401Y-123818823D01*
X122134087Y-123766903D01*
X122143089Y-123736994D01*
X122147658Y-123719230D01*
X122151683Y-123702856D01*
X122155204Y-123687058D01*
X122158260Y-123671021D01*
X122160892Y-123653930D01*
X122163138Y-123634970D01*
X122165040Y-123613326D01*
X122166635Y-123588183D01*
X122167965Y-123558726D01*
X122169068Y-123524141D01*
X122169985Y-123483613D01*
X122170755Y-123436325D01*
X122171417Y-123381464D01*
X122172013Y-123318215D01*
X122172580Y-123245762D01*
X122173159Y-123163291D01*
X122173503Y-123112541D01*
X122176822Y-122620215D01*
X122189672Y-122607363D01*
X122193425Y-122603833D01*
X122197683Y-122601006D01*
X122203670Y-122598789D01*
X122212613Y-122597094D01*
X122225738Y-122595828D01*
X122244271Y-122594902D01*
X122269437Y-122594224D01*
X122302463Y-122593705D01*
X122344573Y-122593252D01*
X122385469Y-122592879D01*
X122440773Y-122592466D01*
X122485912Y-122592422D01*
X122522008Y-122592911D01*
G36*
X126825022Y-122610519D02*
G01*
X126915866Y-122618484D01*
X127002640Y-122633274D01*
X127084297Y-122654511D01*
X127159791Y-122681818D01*
X127228074Y-122714819D01*
X127288100Y-122753136D01*
X127337488Y-122795069D01*
X127369092Y-122829123D01*
X127390700Y-122859136D01*
X127402619Y-122885678D01*
X127405158Y-122909317D01*
X127403767Y-122917499D01*
X127398872Y-122925355D01*
X127387100Y-122939771D01*
X127369698Y-122959469D01*
X127347912Y-122983168D01*
X127322989Y-123009590D01*
X127296174Y-123037455D01*
X127268714Y-123065485D01*
X127241855Y-123092399D01*
X127216844Y-123116920D01*
X127194927Y-123137767D01*
X127177350Y-123153661D01*
X127165359Y-123163323D01*
X127162558Y-123165079D01*
X127137576Y-123172479D01*
X127112199Y-123168638D01*
X127093312Y-123158712D01*
X127044191Y-123129689D01*
X126988637Y-123104257D01*
X126928981Y-123082999D01*
X126867552Y-123066497D01*
X126806680Y-123055334D01*
X126748697Y-123050092D01*
X126695932Y-123051354D01*
X126674956Y-123054122D01*
X126628097Y-123066308D01*
X126586702Y-123085327D01*
X126552326Y-123110197D01*
X126526526Y-123139935D01*
X126519201Y-123152490D01*
X126511049Y-123180077D01*
X126512905Y-123208900D01*
X126523933Y-123237048D01*
X126543300Y-123262612D01*
X126570172Y-123283678D01*
X126578470Y-123288278D01*
X126589091Y-123293576D01*
X126598711Y-123297663D01*
X126609022Y-123300760D01*
X126621718Y-123303085D01*
X126638491Y-123304858D01*
X126661033Y-123306299D01*
X126691037Y-123307626D01*
X126730194Y-123309059D01*
X126741971Y-123309472D01*
X126810477Y-123312126D01*
X126869055Y-123315064D01*
X126919069Y-123318510D01*
X126961879Y-123322689D01*
X126998847Y-123327825D01*
X127031336Y-123334144D01*
X127060707Y-123341871D01*
X127088322Y-123351231D01*
X127115543Y-123362447D01*
X127143731Y-123375746D01*
X127143933Y-123375846D01*
X127205764Y-123411586D01*
X127262294Y-123454460D01*
X127312297Y-123503138D01*
X127354549Y-123556291D01*
X127387826Y-123612588D01*
X127408588Y-123663293D01*
X127418228Y-123694393D01*
X127425464Y-123721971D01*
X127430631Y-123748598D01*
X127434063Y-123776845D01*
X127436093Y-123809282D01*
X127437055Y-123848478D01*
X127437276Y-123884267D01*
X127437444Y-123994333D01*
X127417559Y-124045133D01*
X127389606Y-124105140D01*
X127355092Y-124157845D01*
X127312559Y-124205087D01*
X127260549Y-124248705D01*
X127250170Y-124256241D01*
X127184129Y-124297640D01*
X127109617Y-124333766D01*
X127026090Y-124364837D01*
X126933000Y-124391073D01*
X126889933Y-124400914D01*
X126869088Y-124404138D01*
X126839602Y-124407044D01*
X126804118Y-124409529D01*
X126765283Y-124411491D01*
X126725741Y-124412827D01*
X126688138Y-124413434D01*
X126655118Y-124413209D01*
X126629327Y-124412051D01*
X126621822Y-124411326D01*
X126566942Y-124402335D01*
X126505963Y-124388211D01*
X126442249Y-124369983D01*
X126379162Y-124348678D01*
X126320065Y-124325322D01*
X126280333Y-124307051D01*
X126219233Y-124274000D01*
X126162269Y-124237000D01*
X126106739Y-124194090D01*
X126049937Y-124143308D01*
X126035885Y-124129800D01*
X126010229Y-124104626D01*
X125991615Y-124085672D01*
X125978850Y-124071437D01*
X125970739Y-124060422D01*
X125966090Y-124051125D01*
X125963707Y-124042046D01*
X125963156Y-124038413D01*
X125962667Y-124034718D01*
X126096889Y-124034718D01*
X126101140Y-124041137D01*
X126112800Y-124052938D01*
X126130226Y-124068756D01*
X126151778Y-124087225D01*
X126175814Y-124106978D01*
X126200691Y-124126651D01*
X126224769Y-124144876D01*
X126246406Y-124160290D01*
X126253570Y-124165075D01*
X126314635Y-124200294D01*
X126383782Y-124232149D01*
X126458045Y-124259605D01*
X126534459Y-124281624D01*
X126610059Y-124297173D01*
X126645896Y-124302114D01*
X126680126Y-124304368D01*
X126721506Y-124304587D01*
X126766117Y-124302942D01*
X126810037Y-124299607D01*
X126849347Y-124294752D01*
X126861711Y-124292648D01*
X126941225Y-124274549D01*
X127016519Y-124250961D01*
X127086107Y-124222535D01*
X127148501Y-124189923D01*
X127202216Y-124153777D01*
X127228109Y-124132088D01*
X127267165Y-124089376D01*
X127297931Y-124040881D01*
X127319414Y-123988532D01*
X127330615Y-123934255D01*
X127330683Y-123933600D01*
X127331673Y-123909110D01*
X127330839Y-123876874D01*
X127328471Y-123840233D01*
X127324860Y-123802531D01*
X127320296Y-123767110D01*
X127315068Y-123737311D01*
X127312803Y-123727507D01*
X127292847Y-123671627D01*
X127262695Y-123618780D01*
X127223267Y-123570026D01*
X127175482Y-123526423D01*
X127120258Y-123489031D01*
X127093133Y-123474466D01*
X127067817Y-123462589D01*
X127043192Y-123452791D01*
X127017736Y-123444822D01*
X126989924Y-123438433D01*
X126958234Y-123433375D01*
X126921141Y-123429398D01*
X126877122Y-123426251D01*
X126824653Y-123423686D01*
X126771400Y-123421748D01*
X126718711Y-123419901D01*
X126675759Y-123417993D01*
X126640993Y-123415790D01*
X126612863Y-123413059D01*
X126589818Y-123409567D01*
X126570308Y-123405082D01*
X126552782Y-123399370D01*
X126535689Y-123392198D01*
X126518214Y-123383706D01*
X126484422Y-123361081D01*
X126454659Y-123330575D01*
X126430066Y-123294431D01*
X126411788Y-123254889D01*
X126400968Y-123214190D01*
X126398749Y-123174574D01*
X126401442Y-123154826D01*
X126416955Y-123108803D01*
X126442469Y-123066409D01*
X126477035Y-123028526D01*
X126519706Y-122996036D01*
X126569534Y-122969818D01*
X126619198Y-122952456D01*
X126642422Y-122946772D01*
X126664988Y-122943121D01*
X126690397Y-122941148D01*
X126722153Y-122940502D01*
X126737533Y-122940537D01*
X126822362Y-122945711D01*
X126904946Y-122960393D01*
X126987107Y-122985019D01*
X127070663Y-123020024D01*
X127071298Y-123020326D01*
X127128485Y-123047557D01*
X127202531Y-122973358D01*
X127225940Y-122949587D01*
X127246305Y-122928307D01*
X127262370Y-122910880D01*
X127272879Y-122898668D01*
X127276578Y-122893063D01*
X127271862Y-122884028D01*
X127258910Y-122871050D01*
X127239518Y-122855366D01*
X127215481Y-122838212D01*
X127188592Y-122820828D01*
X127160646Y-122804448D01*
X127133439Y-122790312D01*
X127116477Y-122782695D01*
X127040220Y-122755974D01*
X126960514Y-122737020D01*
X126878632Y-122725658D01*
X126795852Y-122721711D01*
X126713448Y-122725004D01*
X126632695Y-122735361D01*
X126554870Y-122752604D01*
X126481247Y-122776558D01*
X126413103Y-122807048D01*
X126351712Y-122843896D01*
X126298351Y-122886927D01*
X126287929Y-122897092D01*
X126246829Y-122946247D01*
X126213992Y-123001614D01*
X126190661Y-123060932D01*
X126184044Y-123086260D01*
X126177140Y-123134672D01*
X126175832Y-123189358D01*
X126179748Y-123247009D01*
X126188514Y-123304319D01*
X126201756Y-123357981D01*
X126219101Y-123404686D01*
X126220318Y-123407311D01*
X126249756Y-123456947D01*
X126288594Y-123501717D01*
X126335684Y-123540766D01*
X126389876Y-123573243D01*
X126450019Y-123598294D01*
X126494822Y-123610904D01*
X126519038Y-123615174D01*
X126552318Y-123619199D01*
X126592439Y-123622821D01*
X126637177Y-123625881D01*
X126684308Y-123628222D01*
X126731609Y-123629687D01*
X126765755Y-123630115D01*
X126841895Y-123633311D01*
X126908900Y-123642289D01*
X126966658Y-123656981D01*
X127015057Y-123677319D01*
X127053985Y-123703237D01*
X127083328Y-123734669D01*
X127102975Y-123771545D01*
X127112814Y-123813800D01*
X127114014Y-123838114D01*
X127108243Y-123874254D01*
X127091875Y-123910145D01*
X127065588Y-123944972D01*
X127030061Y-123977918D01*
X126985970Y-124008166D01*
X126961525Y-124021714D01*
X126926711Y-124038751D01*
X126895308Y-124051606D01*
X126864702Y-124060829D01*
X126832278Y-124066971D01*
X126795420Y-124070584D01*
X126751516Y-124072219D01*
X126720600Y-124072479D01*
X126681737Y-124072341D01*
X126651777Y-124071687D01*
X126628340Y-124070319D01*
X126609044Y-124068043D01*
X126591510Y-124064663D01*
X126575323Y-124060530D01*
X126521314Y-124042404D01*
X126463278Y-124017317D01*
X126404440Y-123986964D01*
X126348022Y-123953038D01*
X126297247Y-123917233D01*
X126286518Y-123908758D01*
X126247547Y-123877227D01*
X126172218Y-123953124D01*
X126148635Y-123977173D01*
X126128072Y-123998691D01*
X126111769Y-124016336D01*
X126100963Y-124028768D01*
X126096894Y-124034645D01*
X126096889Y-124034718D01*
X125962667Y-124034718D01*
X125960025Y-124014759D01*
X126061795Y-123908590D01*
X126100505Y-123868242D01*
X126132265Y-123835288D01*
X126157921Y-123808960D01*
X126178319Y-123788487D01*
X126194307Y-123773102D01*
X126206729Y-123762034D01*
X126216433Y-123754514D01*
X126224264Y-123749772D01*
X126231070Y-123747040D01*
X126237695Y-123745547D01*
X126241802Y-123744944D01*
X126251533Y-123744068D01*
X126260012Y-123745168D01*
X126269239Y-123749401D01*
X126281213Y-123757925D01*
X126297933Y-123771897D01*
X126316607Y-123788249D01*
X126374696Y-123835274D01*
X126435283Y-123876541D01*
X126496392Y-123910919D01*
X126556047Y-123937275D01*
X126602928Y-123952220D01*
X126635384Y-123958165D01*
X126675182Y-123961879D01*
X126718589Y-123963312D01*
X126761870Y-123962416D01*
X126801293Y-123959139D01*
X126825673Y-123955178D01*
X126860298Y-123945180D01*
X126896059Y-123930257D01*
X126930360Y-123911913D01*
X126960607Y-123891649D01*
X126984204Y-123870967D01*
X126995474Y-123856893D01*
X127001616Y-123837588D01*
X126999426Y-123815746D01*
X126989779Y-123795365D01*
X126979648Y-123784572D01*
X126964485Y-123774401D01*
X126945882Y-123765824D01*
X126922752Y-123758668D01*
X126894006Y-123752756D01*
X126858556Y-123747916D01*
X126815314Y-123743972D01*
X126763193Y-123740750D01*
X126701104Y-123738075D01*
X126686733Y-123737568D01*
X126625716Y-123735093D01*
X126574239Y-123732032D01*
X126530556Y-123728124D01*
X126492924Y-123723108D01*
X126459597Y-123716723D01*
X126428830Y-123708707D01*
X126398879Y-123698800D01*
X126380224Y-123691701D01*
X126313406Y-123659451D01*
X126253294Y-123618713D01*
X126200584Y-123570275D01*
X126155974Y-123514925D01*
X126120161Y-123453451D01*
X126093842Y-123386642D01*
X126086306Y-123359333D01*
X126069919Y-123272527D01*
X126063944Y-123189598D01*
X126068233Y-123110855D01*
X126082639Y-123036604D01*
X126107017Y-122967154D01*
X126141219Y-122902811D01*
X126185099Y-122843884D01*
X126238509Y-122790681D01*
X126301303Y-122743508D01*
X126373335Y-122702674D01*
X126406900Y-122687233D01*
X126497233Y-122653921D01*
X126591969Y-122629569D01*
X126688628Y-122614631D01*
X126784729Y-122609563D01*
X126825022Y-122610519D01*
G37*
X126825022Y-122610519D02*
X126915866Y-122618484D01*
X127002640Y-122633274D01*
X127084297Y-122654511D01*
X127159791Y-122681818D01*
X127228074Y-122714819D01*
X127288100Y-122753136D01*
X127337488Y-122795069D01*
X127369092Y-122829123D01*
X127390700Y-122859136D01*
X127402619Y-122885678D01*
X127405158Y-122909317D01*
X127403767Y-122917499D01*
X127398872Y-122925355D01*
X127387100Y-122939771D01*
X127369698Y-122959469D01*
X127347912Y-122983168D01*
X127322989Y-123009590D01*
X127296174Y-123037455D01*
X127268714Y-123065485D01*
X127241855Y-123092399D01*
X127216844Y-123116920D01*
X127194927Y-123137767D01*
X127177350Y-123153661D01*
X127165359Y-123163323D01*
X127162558Y-123165079D01*
X127137576Y-123172479D01*
X127112199Y-123168638D01*
X127093312Y-123158712D01*
X127044191Y-123129689D01*
X126988637Y-123104257D01*
X126928981Y-123082999D01*
X126867552Y-123066497D01*
X126806680Y-123055334D01*
X126748697Y-123050092D01*
X126695932Y-123051354D01*
X126674956Y-123054122D01*
X126628097Y-123066308D01*
X126586702Y-123085327D01*
X126552326Y-123110197D01*
X126526526Y-123139935D01*
X126519201Y-123152490D01*
X126511049Y-123180077D01*
X126512905Y-123208900D01*
X126523933Y-123237048D01*
X126543300Y-123262612D01*
X126570172Y-123283678D01*
X126578470Y-123288278D01*
X126589091Y-123293576D01*
X126598711Y-123297663D01*
X126609022Y-123300760D01*
X126621718Y-123303085D01*
X126638491Y-123304858D01*
X126661033Y-123306299D01*
X126691037Y-123307626D01*
X126730194Y-123309059D01*
X126741971Y-123309472D01*
X126810477Y-123312126D01*
X126869055Y-123315064D01*
X126919069Y-123318510D01*
X126961879Y-123322689D01*
X126998847Y-123327825D01*
X127031336Y-123334144D01*
X127060707Y-123341871D01*
X127088322Y-123351231D01*
X127115543Y-123362447D01*
X127143731Y-123375746D01*
X127143933Y-123375846D01*
X127205764Y-123411586D01*
X127262294Y-123454460D01*
X127312297Y-123503138D01*
X127354549Y-123556291D01*
X127387826Y-123612588D01*
X127408588Y-123663293D01*
X127418228Y-123694393D01*
X127425464Y-123721971D01*
X127430631Y-123748598D01*
X127434063Y-123776845D01*
X127436093Y-123809282D01*
X127437055Y-123848478D01*
X127437276Y-123884267D01*
X127437444Y-123994333D01*
X127417559Y-124045133D01*
X127389606Y-124105140D01*
X127355092Y-124157845D01*
X127312559Y-124205087D01*
X127260549Y-124248705D01*
X127250170Y-124256241D01*
X127184129Y-124297640D01*
X127109617Y-124333766D01*
X127026090Y-124364837D01*
X126933000Y-124391073D01*
X126889933Y-124400914D01*
X126869088Y-124404138D01*
X126839602Y-124407044D01*
X126804118Y-124409529D01*
X126765283Y-124411491D01*
X126725741Y-124412827D01*
X126688138Y-124413434D01*
X126655118Y-124413209D01*
X126629327Y-124412051D01*
X126621822Y-124411326D01*
X126566942Y-124402335D01*
X126505963Y-124388211D01*
X126442249Y-124369983D01*
X126379162Y-124348678D01*
X126320065Y-124325322D01*
X126280333Y-124307051D01*
X126219233Y-124274000D01*
X126162269Y-124237000D01*
X126106739Y-124194090D01*
X126049937Y-124143308D01*
X126035885Y-124129800D01*
X126010229Y-124104626D01*
X125991615Y-124085672D01*
X125978850Y-124071437D01*
X125970739Y-124060422D01*
X125966090Y-124051125D01*
X125963707Y-124042046D01*
X125963156Y-124038413D01*
X125962667Y-124034718D01*
X126096889Y-124034718D01*
X126101140Y-124041137D01*
X126112800Y-124052938D01*
X126130226Y-124068756D01*
X126151778Y-124087225D01*
X126175814Y-124106978D01*
X126200691Y-124126651D01*
X126224769Y-124144876D01*
X126246406Y-124160290D01*
X126253570Y-124165075D01*
X126314635Y-124200294D01*
X126383782Y-124232149D01*
X126458045Y-124259605D01*
X126534459Y-124281624D01*
X126610059Y-124297173D01*
X126645896Y-124302114D01*
X126680126Y-124304368D01*
X126721506Y-124304587D01*
X126766117Y-124302942D01*
X126810037Y-124299607D01*
X126849347Y-124294752D01*
X126861711Y-124292648D01*
X126941225Y-124274549D01*
X127016519Y-124250961D01*
X127086107Y-124222535D01*
X127148501Y-124189923D01*
X127202216Y-124153777D01*
X127228109Y-124132088D01*
X127267165Y-124089376D01*
X127297931Y-124040881D01*
X127319414Y-123988532D01*
X127330615Y-123934255D01*
X127330683Y-123933600D01*
X127331673Y-123909110D01*
X127330839Y-123876874D01*
X127328471Y-123840233D01*
X127324860Y-123802531D01*
X127320296Y-123767110D01*
X127315068Y-123737311D01*
X127312803Y-123727507D01*
X127292847Y-123671627D01*
X127262695Y-123618780D01*
X127223267Y-123570026D01*
X127175482Y-123526423D01*
X127120258Y-123489031D01*
X127093133Y-123474466D01*
X127067817Y-123462589D01*
X127043192Y-123452791D01*
X127017736Y-123444822D01*
X126989924Y-123438433D01*
X126958234Y-123433375D01*
X126921141Y-123429398D01*
X126877122Y-123426251D01*
X126824653Y-123423686D01*
X126771400Y-123421748D01*
X126718711Y-123419901D01*
X126675759Y-123417993D01*
X126640993Y-123415790D01*
X126612863Y-123413059D01*
X126589818Y-123409567D01*
X126570308Y-123405082D01*
X126552782Y-123399370D01*
X126535689Y-123392198D01*
X126518214Y-123383706D01*
X126484422Y-123361081D01*
X126454659Y-123330575D01*
X126430066Y-123294431D01*
X126411788Y-123254889D01*
X126400968Y-123214190D01*
X126398749Y-123174574D01*
X126401442Y-123154826D01*
X126416955Y-123108803D01*
X126442469Y-123066409D01*
X126477035Y-123028526D01*
X126519706Y-122996036D01*
X126569534Y-122969818D01*
X126619198Y-122952456D01*
X126642422Y-122946772D01*
X126664988Y-122943121D01*
X126690397Y-122941148D01*
X126722153Y-122940502D01*
X126737533Y-122940537D01*
X126822362Y-122945711D01*
X126904946Y-122960393D01*
X126987107Y-122985019D01*
X127070663Y-123020024D01*
X127071298Y-123020326D01*
X127128485Y-123047557D01*
X127202531Y-122973358D01*
X127225940Y-122949587D01*
X127246305Y-122928307D01*
X127262370Y-122910880D01*
X127272879Y-122898668D01*
X127276578Y-122893063D01*
X127271862Y-122884028D01*
X127258910Y-122871050D01*
X127239518Y-122855366D01*
X127215481Y-122838212D01*
X127188592Y-122820828D01*
X127160646Y-122804448D01*
X127133439Y-122790312D01*
X127116477Y-122782695D01*
X127040220Y-122755974D01*
X126960514Y-122737020D01*
X126878632Y-122725658D01*
X126795852Y-122721711D01*
X126713448Y-122725004D01*
X126632695Y-122735361D01*
X126554870Y-122752604D01*
X126481247Y-122776558D01*
X126413103Y-122807048D01*
X126351712Y-122843896D01*
X126298351Y-122886927D01*
X126287929Y-122897092D01*
X126246829Y-122946247D01*
X126213992Y-123001614D01*
X126190661Y-123060932D01*
X126184044Y-123086260D01*
X126177140Y-123134672D01*
X126175832Y-123189358D01*
X126179748Y-123247009D01*
X126188514Y-123304319D01*
X126201756Y-123357981D01*
X126219101Y-123404686D01*
X126220318Y-123407311D01*
X126249756Y-123456947D01*
X126288594Y-123501717D01*
X126335684Y-123540766D01*
X126389876Y-123573243D01*
X126450019Y-123598294D01*
X126494822Y-123610904D01*
X126519038Y-123615174D01*
X126552318Y-123619199D01*
X126592439Y-123622821D01*
X126637177Y-123625881D01*
X126684308Y-123628222D01*
X126731609Y-123629687D01*
X126765755Y-123630115D01*
X126841895Y-123633311D01*
X126908900Y-123642289D01*
X126966658Y-123656981D01*
X127015057Y-123677319D01*
X127053985Y-123703237D01*
X127083328Y-123734669D01*
X127102975Y-123771545D01*
X127112814Y-123813800D01*
X127114014Y-123838114D01*
X127108243Y-123874254D01*
X127091875Y-123910145D01*
X127065588Y-123944972D01*
X127030061Y-123977918D01*
X126985970Y-124008166D01*
X126961525Y-124021714D01*
X126926711Y-124038751D01*
X126895308Y-124051606D01*
X126864702Y-124060829D01*
X126832278Y-124066971D01*
X126795420Y-124070584D01*
X126751516Y-124072219D01*
X126720600Y-124072479D01*
X126681737Y-124072341D01*
X126651777Y-124071687D01*
X126628340Y-124070319D01*
X126609044Y-124068043D01*
X126591510Y-124064663D01*
X126575323Y-124060530D01*
X126521314Y-124042404D01*
X126463278Y-124017317D01*
X126404440Y-123986964D01*
X126348022Y-123953038D01*
X126297247Y-123917233D01*
X126286518Y-123908758D01*
X126247547Y-123877227D01*
X126172218Y-123953124D01*
X126148635Y-123977173D01*
X126128072Y-123998691D01*
X126111769Y-124016336D01*
X126100963Y-124028768D01*
X126096894Y-124034645D01*
X126096889Y-124034718D01*
X125962667Y-124034718D01*
X125960025Y-124014759D01*
X126061795Y-123908590D01*
X126100505Y-123868242D01*
X126132265Y-123835288D01*
X126157921Y-123808960D01*
X126178319Y-123788487D01*
X126194307Y-123773102D01*
X126206729Y-123762034D01*
X126216433Y-123754514D01*
X126224264Y-123749772D01*
X126231070Y-123747040D01*
X126237695Y-123745547D01*
X126241802Y-123744944D01*
X126251533Y-123744068D01*
X126260012Y-123745168D01*
X126269239Y-123749401D01*
X126281213Y-123757925D01*
X126297933Y-123771897D01*
X126316607Y-123788249D01*
X126374696Y-123835274D01*
X126435283Y-123876541D01*
X126496392Y-123910919D01*
X126556047Y-123937275D01*
X126602928Y-123952220D01*
X126635384Y-123958165D01*
X126675182Y-123961879D01*
X126718589Y-123963312D01*
X126761870Y-123962416D01*
X126801293Y-123959139D01*
X126825673Y-123955178D01*
X126860298Y-123945180D01*
X126896059Y-123930257D01*
X126930360Y-123911913D01*
X126960607Y-123891649D01*
X126984204Y-123870967D01*
X126995474Y-123856893D01*
X127001616Y-123837588D01*
X126999426Y-123815746D01*
X126989779Y-123795365D01*
X126979648Y-123784572D01*
X126964485Y-123774401D01*
X126945882Y-123765824D01*
X126922752Y-123758668D01*
X126894006Y-123752756D01*
X126858556Y-123747916D01*
X126815314Y-123743972D01*
X126763193Y-123740750D01*
X126701104Y-123738075D01*
X126686733Y-123737568D01*
X126625716Y-123735093D01*
X126574239Y-123732032D01*
X126530556Y-123728124D01*
X126492924Y-123723108D01*
X126459597Y-123716723D01*
X126428830Y-123708707D01*
X126398879Y-123698800D01*
X126380224Y-123691701D01*
X126313406Y-123659451D01*
X126253294Y-123618713D01*
X126200584Y-123570275D01*
X126155974Y-123514925D01*
X126120161Y-123453451D01*
X126093842Y-123386642D01*
X126086306Y-123359333D01*
X126069919Y-123272527D01*
X126063944Y-123189598D01*
X126068233Y-123110855D01*
X126082639Y-123036604D01*
X126107017Y-122967154D01*
X126141219Y-122902811D01*
X126185099Y-122843884D01*
X126238509Y-122790681D01*
X126301303Y-122743508D01*
X126373335Y-122702674D01*
X126406900Y-122687233D01*
X126497233Y-122653921D01*
X126591969Y-122629569D01*
X126688628Y-122614631D01*
X126784729Y-122609563D01*
X126825022Y-122610519D01*
%TD*%
M02*
