%TF.GenerationSoftware,KiCad,Pcbnew,(5.1.9-0-10_14)*%
%TF.CreationDate,2021-02-13T17:32:26+01:00*%
%TF.ProjectId,Arduino Uno Proto Shield,41726475-696e-46f2-9055-6e6f2050726f,rev?*%
%TF.SameCoordinates,Original*%
%TF.FileFunction,Soldermask,Bot*%
%TF.FilePolarity,Negative*%
%FSLAX46Y46*%
G04 Gerber Fmt 4.6, Leading zero omitted, Abs format (unit mm)*
G04 Created by KiCad (PCBNEW (5.1.9-0-10_14)) date 2021-02-13 17:32:26*
%MOMM*%
%LPD*%
G01*
G04 APERTURE LIST*
%ADD10C,1.998980*%
%ADD11O,1.700000X1.700000*%
%ADD12R,1.700000X1.700000*%
%ADD13C,3.200000*%
G04 APERTURE END LIST*
D10*
%TO.C,REF\u002A\u002A*%
X111760000Y-76200000D03*
%TD*%
%TO.C,REF\u002A\u002A*%
X111760000Y-78740000D03*
%TD*%
%TO.C,REF\u002A\u002A*%
X109220000Y-76200000D03*
%TD*%
%TO.C,REF\u002A\u002A*%
X109220000Y-78740000D03*
%TD*%
D11*
%TO.C,J1*%
X147320000Y-124460000D03*
X144780000Y-124460000D03*
X142240000Y-124460000D03*
X139700000Y-124460000D03*
X137160000Y-124460000D03*
X134620000Y-124460000D03*
X132080000Y-124460000D03*
D12*
X129540000Y-124460000D03*
%TD*%
%TO.C,J2*%
X152400000Y-124460000D03*
D11*
X154940000Y-124460000D03*
X157480000Y-124460000D03*
X160020000Y-124460000D03*
X162560000Y-124460000D03*
X165100000Y-124460000D03*
%TD*%
D10*
%TO.C,REF\u002A\u002A*%
X129540000Y-119380000D03*
%TD*%
%TO.C,REF\u002A\u002A*%
X127000000Y-119380000D03*
%TD*%
%TO.C,REF\u002A\u002A*%
X162560000Y-116840000D03*
%TD*%
%TO.C,REF\u002A\u002A*%
X160020000Y-116840000D03*
%TD*%
%TO.C,REF\u002A\u002A*%
X157480000Y-116840000D03*
%TD*%
%TO.C,REF\u002A\u002A*%
X154940000Y-116840000D03*
%TD*%
%TO.C,REF\u002A\u002A*%
X152400000Y-116840000D03*
%TD*%
%TO.C,REF\u002A\u002A*%
X149860000Y-116840000D03*
%TD*%
%TO.C,REF\u002A\u002A*%
X147320000Y-116840000D03*
%TD*%
%TO.C,REF\u002A\u002A*%
X144780000Y-116840000D03*
%TD*%
%TO.C,REF\u002A\u002A*%
X142240000Y-116840000D03*
%TD*%
%TO.C,REF\u002A\u002A*%
X139700000Y-116840000D03*
%TD*%
%TO.C,REF\u002A\u002A*%
X137160000Y-116840000D03*
%TD*%
%TO.C,REF\u002A\u002A*%
X134620000Y-116840000D03*
%TD*%
%TO.C,REF\u002A\u002A*%
X132080000Y-116840000D03*
%TD*%
D12*
%TO.C,J34*%
X143256000Y-76200000D03*
D11*
X140716000Y-76200000D03*
X138176000Y-76200000D03*
X135636000Y-76200000D03*
X133096000Y-76200000D03*
X130556000Y-76200000D03*
X128016000Y-76200000D03*
X125476000Y-76200000D03*
X122936000Y-76200000D03*
X120396000Y-76200000D03*
%TD*%
D12*
%TO.C,J35*%
X165100000Y-76200000D03*
D11*
X162560000Y-76200000D03*
X160020000Y-76200000D03*
X157480000Y-76200000D03*
X154940000Y-76200000D03*
X152400000Y-76200000D03*
X149860000Y-76200000D03*
X147320000Y-76200000D03*
%TD*%
D10*
%TO.C,REF\u002A\u002A*%
X119380000Y-81280000D03*
%TD*%
%TO.C,REF\u002A\u002A*%
X165100000Y-83820000D03*
%TD*%
%TO.C,REF\u002A\u002A*%
X162560000Y-83820000D03*
%TD*%
%TO.C,REF\u002A\u002A*%
X160020000Y-83820000D03*
%TD*%
%TO.C,REF\u002A\u002A*%
X157480000Y-83820000D03*
%TD*%
%TO.C,REF\u002A\u002A*%
X154940000Y-83820000D03*
%TD*%
%TO.C,REF\u002A\u002A*%
X152400000Y-83820000D03*
%TD*%
%TO.C,REF\u002A\u002A*%
X149860000Y-83820000D03*
%TD*%
%TO.C,REF\u002A\u002A*%
X147320000Y-83820000D03*
%TD*%
%TO.C,REF\u002A\u002A*%
X144780000Y-83820000D03*
%TD*%
%TO.C,REF\u002A\u002A*%
X142240000Y-83820000D03*
%TD*%
%TO.C,REF\u002A\u002A*%
X139700000Y-83820000D03*
%TD*%
%TO.C,REF\u002A\u002A*%
X137160000Y-83820000D03*
%TD*%
%TO.C,REF\u002A\u002A*%
X134620000Y-83820000D03*
%TD*%
%TO.C,REF\u002A\u002A*%
X132080000Y-83820000D03*
%TD*%
%TO.C,REF\u002A\u002A*%
X129540000Y-83820000D03*
%TD*%
%TO.C,REF\u002A\u002A*%
X127000000Y-83820000D03*
%TD*%
%TO.C,REF\u002A\u002A*%
X124460000Y-83820000D03*
%TD*%
%TO.C,REF\u002A\u002A*%
X121920000Y-83820000D03*
%TD*%
%TO.C,REF\u002A\u002A*%
X119380000Y-83820000D03*
%TD*%
%TO.C,REF\u002A\u002A*%
X129540000Y-116840000D03*
%TD*%
%TO.C,REF\u002A\u002A*%
X127000000Y-116840000D03*
%TD*%
%TO.C,REF\u002A\u002A*%
X162560000Y-93980000D03*
%TD*%
%TO.C,REF\u002A\u002A*%
X160020000Y-93980000D03*
%TD*%
%TO.C,REF\u002A\u002A*%
X157480000Y-93980000D03*
%TD*%
%TO.C,REF\u002A\u002A*%
X154940000Y-93980000D03*
%TD*%
%TO.C,REF\u002A\u002A*%
X162560000Y-91440000D03*
%TD*%
%TO.C,REF\u002A\u002A*%
X160020000Y-91440000D03*
%TD*%
%TO.C,REF\u002A\u002A*%
X157480000Y-91440000D03*
%TD*%
%TO.C,REF\u002A\u002A*%
X154940000Y-91440000D03*
%TD*%
%TO.C,REF\u002A\u002A*%
X162560000Y-88900000D03*
%TD*%
%TO.C,REF\u002A\u002A*%
X160020000Y-88900000D03*
%TD*%
%TO.C,REF\u002A\u002A*%
X157480000Y-88900000D03*
%TD*%
%TO.C,REF\u002A\u002A*%
X154940000Y-88900000D03*
%TD*%
%TO.C,REF\u002A\u002A*%
X165100000Y-86360000D03*
%TD*%
%TO.C,REF\u002A\u002A*%
X162560000Y-86360000D03*
%TD*%
%TO.C,REF\u002A\u002A*%
X160020000Y-86360000D03*
%TD*%
%TO.C,REF\u002A\u002A*%
X157480000Y-86360000D03*
%TD*%
%TO.C,REF\u002A\u002A*%
X116840000Y-83820000D03*
%TD*%
%TO.C,REF\u002A\u002A*%
X114300000Y-83820000D03*
%TD*%
%TO.C,REF\u002A\u002A*%
X111760000Y-83820000D03*
%TD*%
%TO.C,REF\u002A\u002A*%
X116840000Y-81280000D03*
%TD*%
%TO.C,REF\u002A\u002A*%
X114300000Y-81280000D03*
%TD*%
%TO.C,REF\u002A\u002A*%
X106680000Y-78740000D03*
%TD*%
%TO.C,REF\u002A\u002A*%
X104140000Y-78740000D03*
%TD*%
%TO.C,REF\u002A\u002A*%
X106680000Y-76200000D03*
%TD*%
%TO.C,REF\u002A\u002A*%
X154940000Y-86360000D03*
%TD*%
%TO.C,REF\u002A\u002A*%
X167640000Y-109220000D03*
%TD*%
%TO.C,REF\u002A\u002A*%
X111760000Y-81280000D03*
%TD*%
%TO.C,REF\u002A\u002A*%
X167640000Y-106680000D03*
%TD*%
%TO.C,REF\u002A\u002A*%
X165100000Y-106680000D03*
%TD*%
%TO.C,REF\u002A\u002A*%
X162560000Y-106680000D03*
%TD*%
%TO.C,REF\u002A\u002A*%
X160020000Y-106680000D03*
%TD*%
%TO.C,REF\u002A\u002A*%
X157480000Y-106680000D03*
%TD*%
%TO.C,REF\u002A\u002A*%
X154940000Y-106680000D03*
%TD*%
%TO.C,REF\u002A\u002A*%
X167640000Y-104140000D03*
%TD*%
%TO.C,REF\u002A\u002A*%
X165100000Y-104140000D03*
%TD*%
%TO.C,REF\u002A\u002A*%
X162560000Y-104140000D03*
%TD*%
%TO.C,REF\u002A\u002A*%
X160020000Y-104140000D03*
%TD*%
%TO.C,REF\u002A\u002A*%
X157480000Y-104140000D03*
%TD*%
%TO.C,REF\u002A\u002A*%
X154940000Y-104140000D03*
%TD*%
%TO.C,REF\u002A\u002A*%
X167640000Y-101600000D03*
%TD*%
%TO.C,REF\u002A\u002A*%
X165100000Y-101600000D03*
%TD*%
%TO.C,REF\u002A\u002A*%
X162560000Y-101600000D03*
%TD*%
%TO.C,REF\u002A\u002A*%
X160020000Y-101600000D03*
%TD*%
%TO.C,REF\u002A\u002A*%
X157480000Y-101600000D03*
%TD*%
%TO.C,REF\u002A\u002A*%
X154940000Y-101600000D03*
%TD*%
%TO.C,REF\u002A\u002A*%
X167640000Y-99060000D03*
%TD*%
%TO.C,REF\u002A\u002A*%
X165100000Y-99060000D03*
%TD*%
%TO.C,REF\u002A\u002A*%
X162560000Y-99060000D03*
%TD*%
%TO.C,REF\u002A\u002A*%
X160020000Y-99060000D03*
%TD*%
%TO.C,REF\u002A\u002A*%
X157480000Y-99060000D03*
%TD*%
%TO.C,REF\u002A\u002A*%
X154940000Y-99060000D03*
%TD*%
%TO.C,REF\u002A\u002A*%
X167640000Y-96520000D03*
%TD*%
%TO.C,REF\u002A\u002A*%
X165100000Y-96520000D03*
%TD*%
%TO.C,REF\u002A\u002A*%
X162560000Y-96520000D03*
%TD*%
%TO.C,REF\u002A\u002A*%
X160020000Y-96520000D03*
%TD*%
%TO.C,REF\u002A\u002A*%
X157480000Y-96520000D03*
%TD*%
%TO.C,REF\u002A\u002A*%
X167640000Y-114300000D03*
%TD*%
%TO.C,REF\u002A\u002A*%
X165100000Y-114300000D03*
%TD*%
%TO.C,REF\u002A\u002A*%
X162560000Y-114300000D03*
%TD*%
%TO.C,REF\u002A\u002A*%
X160020000Y-114300000D03*
%TD*%
%TO.C,REF\u002A\u002A*%
X157480000Y-114300000D03*
%TD*%
%TO.C,REF\u002A\u002A*%
X154940000Y-114300000D03*
%TD*%
%TO.C,REF\u002A\u002A*%
X152400000Y-114300000D03*
%TD*%
%TO.C,REF\u002A\u002A*%
X149860000Y-114300000D03*
%TD*%
%TO.C,REF\u002A\u002A*%
X147320000Y-114300000D03*
%TD*%
%TO.C,REF\u002A\u002A*%
X144780000Y-114300000D03*
%TD*%
%TO.C,REF\u002A\u002A*%
X142240000Y-114300000D03*
%TD*%
%TO.C,REF\u002A\u002A*%
X139700000Y-114300000D03*
%TD*%
%TO.C,REF\u002A\u002A*%
X137160000Y-114300000D03*
%TD*%
%TO.C,REF\u002A\u002A*%
X134620000Y-114300000D03*
%TD*%
%TO.C,REF\u002A\u002A*%
X167640000Y-111760000D03*
%TD*%
%TO.C,REF\u002A\u002A*%
X165100000Y-111760000D03*
%TD*%
%TO.C,REF\u002A\u002A*%
X162560000Y-111760000D03*
%TD*%
%TO.C,REF\u002A\u002A*%
X160020000Y-111760000D03*
%TD*%
%TO.C,REF\u002A\u002A*%
X157480000Y-111760000D03*
%TD*%
%TO.C,REF\u002A\u002A*%
X154940000Y-111760000D03*
%TD*%
%TO.C,REF\u002A\u002A*%
X152400000Y-111760000D03*
%TD*%
%TO.C,REF\u002A\u002A*%
X149860000Y-111760000D03*
%TD*%
%TO.C,REF\u002A\u002A*%
X147320000Y-111760000D03*
%TD*%
%TO.C,REF\u002A\u002A*%
X144780000Y-111760000D03*
%TD*%
%TO.C,REF\u002A\u002A*%
X142240000Y-111760000D03*
%TD*%
%TO.C,REF\u002A\u002A*%
X139700000Y-111760000D03*
%TD*%
%TO.C,REF\u002A\u002A*%
X137160000Y-111760000D03*
%TD*%
%TO.C,REF\u002A\u002A*%
X134620000Y-111760000D03*
%TD*%
%TO.C,REF\u002A\u002A*%
X154940000Y-96520000D03*
%TD*%
%TO.C,REF\u002A\u002A*%
X165100000Y-109220000D03*
%TD*%
%TO.C,REF\u002A\u002A*%
X162560000Y-109220000D03*
%TD*%
%TO.C,REF\u002A\u002A*%
X160020000Y-109220000D03*
%TD*%
%TO.C,REF\u002A\u002A*%
X157480000Y-109220000D03*
%TD*%
%TO.C,REF\u002A\u002A*%
X154940000Y-109220000D03*
%TD*%
%TO.C,REF\u002A\u002A*%
X152400000Y-109220000D03*
%TD*%
%TO.C,REF\u002A\u002A*%
X149860000Y-109220000D03*
%TD*%
%TO.C,REF\u002A\u002A*%
X147320000Y-109220000D03*
%TD*%
%TO.C,REF\u002A\u002A*%
X144780000Y-109220000D03*
%TD*%
%TO.C,REF\u002A\u002A*%
X142240000Y-109220000D03*
%TD*%
%TO.C,REF\u002A\u002A*%
X139700000Y-109220000D03*
%TD*%
%TO.C,REF\u002A\u002A*%
X137160000Y-109220000D03*
%TD*%
%TO.C,REF\u002A\u002A*%
X152400000Y-106680000D03*
%TD*%
%TO.C,REF\u002A\u002A*%
X149860000Y-106680000D03*
%TD*%
%TO.C,REF\u002A\u002A*%
X147320000Y-106680000D03*
%TD*%
%TO.C,REF\u002A\u002A*%
X144780000Y-106680000D03*
%TD*%
%TO.C,REF\u002A\u002A*%
X142240000Y-106680000D03*
%TD*%
%TO.C,REF\u002A\u002A*%
X139700000Y-106680000D03*
%TD*%
%TO.C,REF\u002A\u002A*%
X137160000Y-106680000D03*
%TD*%
%TO.C,REF\u002A\u002A*%
X134620000Y-106680000D03*
%TD*%
%TO.C,REF\u002A\u002A*%
X132080000Y-106680000D03*
%TD*%
%TO.C,REF\u002A\u002A*%
X129540000Y-106680000D03*
%TD*%
%TO.C,REF\u002A\u002A*%
X127000000Y-106680000D03*
%TD*%
%TO.C,REF\u002A\u002A*%
X124460000Y-106680000D03*
%TD*%
%TO.C,REF\u002A\u002A*%
X121920000Y-106680000D03*
%TD*%
%TO.C,REF\u002A\u002A*%
X119380000Y-106680000D03*
%TD*%
%TO.C,REF\u002A\u002A*%
X116840000Y-106680000D03*
%TD*%
%TO.C,REF\u002A\u002A*%
X114300000Y-106680000D03*
%TD*%
%TO.C,REF\u002A\u002A*%
X152400000Y-104140000D03*
%TD*%
%TO.C,REF\u002A\u002A*%
X149860000Y-104140000D03*
%TD*%
%TO.C,REF\u002A\u002A*%
X147320000Y-104140000D03*
%TD*%
%TO.C,REF\u002A\u002A*%
X144780000Y-104140000D03*
%TD*%
%TO.C,REF\u002A\u002A*%
X142240000Y-104140000D03*
%TD*%
%TO.C,REF\u002A\u002A*%
X139700000Y-104140000D03*
%TD*%
%TO.C,REF\u002A\u002A*%
X137160000Y-104140000D03*
%TD*%
%TO.C,REF\u002A\u002A*%
X134620000Y-104140000D03*
%TD*%
%TO.C,REF\u002A\u002A*%
X132080000Y-104140000D03*
%TD*%
%TO.C,REF\u002A\u002A*%
X129540000Y-104140000D03*
%TD*%
%TO.C,REF\u002A\u002A*%
X127000000Y-104140000D03*
%TD*%
%TO.C,REF\u002A\u002A*%
X124460000Y-104140000D03*
%TD*%
%TO.C,REF\u002A\u002A*%
X121920000Y-104140000D03*
%TD*%
%TO.C,REF\u002A\u002A*%
X119380000Y-104140000D03*
%TD*%
%TO.C,REF\u002A\u002A*%
X116840000Y-104140000D03*
%TD*%
%TO.C,REF\u002A\u002A*%
X114300000Y-104140000D03*
%TD*%
%TO.C,REF\u002A\u002A*%
X152400000Y-101600000D03*
%TD*%
%TO.C,REF\u002A\u002A*%
X149860000Y-101600000D03*
%TD*%
%TO.C,REF\u002A\u002A*%
X147320000Y-101600000D03*
%TD*%
%TO.C,REF\u002A\u002A*%
X144780000Y-101600000D03*
%TD*%
%TO.C,REF\u002A\u002A*%
X142240000Y-101600000D03*
%TD*%
%TO.C,REF\u002A\u002A*%
X139700000Y-101600000D03*
%TD*%
%TO.C,REF\u002A\u002A*%
X137160000Y-101600000D03*
%TD*%
%TO.C,REF\u002A\u002A*%
X134620000Y-101600000D03*
%TD*%
%TO.C,REF\u002A\u002A*%
X132080000Y-101600000D03*
%TD*%
%TO.C,REF\u002A\u002A*%
X129540000Y-101600000D03*
%TD*%
%TO.C,REF\u002A\u002A*%
X127000000Y-101600000D03*
%TD*%
%TO.C,REF\u002A\u002A*%
X124460000Y-101600000D03*
%TD*%
%TO.C,REF\u002A\u002A*%
X121920000Y-101600000D03*
%TD*%
%TO.C,REF\u002A\u002A*%
X119380000Y-101600000D03*
%TD*%
%TO.C,REF\u002A\u002A*%
X116840000Y-101600000D03*
%TD*%
%TO.C,REF\u002A\u002A*%
X114300000Y-101600000D03*
%TD*%
%TO.C,REF\u002A\u002A*%
X152400000Y-99060000D03*
%TD*%
%TO.C,REF\u002A\u002A*%
X149860000Y-99060000D03*
%TD*%
%TO.C,REF\u002A\u002A*%
X147320000Y-99060000D03*
%TD*%
%TO.C,REF\u002A\u002A*%
X144780000Y-99060000D03*
%TD*%
%TO.C,REF\u002A\u002A*%
X142240000Y-99060000D03*
%TD*%
%TO.C,REF\u002A\u002A*%
X139700000Y-99060000D03*
%TD*%
%TO.C,REF\u002A\u002A*%
X137160000Y-99060000D03*
%TD*%
%TO.C,REF\u002A\u002A*%
X134620000Y-99060000D03*
%TD*%
%TO.C,REF\u002A\u002A*%
X132080000Y-99060000D03*
%TD*%
%TO.C,REF\u002A\u002A*%
X129540000Y-99060000D03*
%TD*%
%TO.C,REF\u002A\u002A*%
X127000000Y-99060000D03*
%TD*%
%TO.C,REF\u002A\u002A*%
X124460000Y-99060000D03*
%TD*%
%TO.C,REF\u002A\u002A*%
X121920000Y-99060000D03*
%TD*%
%TO.C,REF\u002A\u002A*%
X119380000Y-99060000D03*
%TD*%
%TO.C,REF\u002A\u002A*%
X116840000Y-99060000D03*
%TD*%
%TO.C,REF\u002A\u002A*%
X114300000Y-99060000D03*
%TD*%
%TO.C,REF\u002A\u002A*%
X152400000Y-96520000D03*
%TD*%
%TO.C,REF\u002A\u002A*%
X149860000Y-96520000D03*
%TD*%
%TO.C,REF\u002A\u002A*%
X147320000Y-96520000D03*
%TD*%
%TO.C,REF\u002A\u002A*%
X144780000Y-96520000D03*
%TD*%
%TO.C,REF\u002A\u002A*%
X142240000Y-96520000D03*
%TD*%
%TO.C,REF\u002A\u002A*%
X139700000Y-96520000D03*
%TD*%
%TO.C,REF\u002A\u002A*%
X137160000Y-96520000D03*
%TD*%
%TO.C,REF\u002A\u002A*%
X134620000Y-96520000D03*
%TD*%
%TO.C,REF\u002A\u002A*%
X132080000Y-96520000D03*
%TD*%
%TO.C,REF\u002A\u002A*%
X129540000Y-96520000D03*
%TD*%
%TO.C,REF\u002A\u002A*%
X127000000Y-96520000D03*
%TD*%
%TO.C,REF\u002A\u002A*%
X124460000Y-96520000D03*
%TD*%
%TO.C,REF\u002A\u002A*%
X121920000Y-96520000D03*
%TD*%
%TO.C,REF\u002A\u002A*%
X119380000Y-96520000D03*
%TD*%
%TO.C,REF\u002A\u002A*%
X116840000Y-96520000D03*
%TD*%
%TO.C,REF\u002A\u002A*%
X114300000Y-96520000D03*
%TD*%
%TO.C,REF\u002A\u002A*%
X152400000Y-93980000D03*
%TD*%
%TO.C,REF\u002A\u002A*%
X149860000Y-93980000D03*
%TD*%
%TO.C,REF\u002A\u002A*%
X147320000Y-93980000D03*
%TD*%
%TO.C,REF\u002A\u002A*%
X144780000Y-93980000D03*
%TD*%
%TO.C,REF\u002A\u002A*%
X142240000Y-93980000D03*
%TD*%
%TO.C,REF\u002A\u002A*%
X139700000Y-93980000D03*
%TD*%
%TO.C,REF\u002A\u002A*%
X137160000Y-93980000D03*
%TD*%
%TO.C,REF\u002A\u002A*%
X134620000Y-93980000D03*
%TD*%
%TO.C,REF\u002A\u002A*%
X132080000Y-93980000D03*
%TD*%
%TO.C,REF\u002A\u002A*%
X129540000Y-93980000D03*
%TD*%
%TO.C,REF\u002A\u002A*%
X127000000Y-93980000D03*
%TD*%
%TO.C,REF\u002A\u002A*%
X124460000Y-93980000D03*
%TD*%
%TO.C,REF\u002A\u002A*%
X121920000Y-93980000D03*
%TD*%
%TO.C,REF\u002A\u002A*%
X119380000Y-93980000D03*
%TD*%
%TO.C,REF\u002A\u002A*%
X116840000Y-93980000D03*
%TD*%
%TO.C,REF\u002A\u002A*%
X114300000Y-93980000D03*
%TD*%
%TO.C,REF\u002A\u002A*%
X152400000Y-91440000D03*
%TD*%
%TO.C,REF\u002A\u002A*%
X149860000Y-91440000D03*
%TD*%
%TO.C,REF\u002A\u002A*%
X147320000Y-91440000D03*
%TD*%
%TO.C,REF\u002A\u002A*%
X144780000Y-91440000D03*
%TD*%
%TO.C,REF\u002A\u002A*%
X142240000Y-91440000D03*
%TD*%
%TO.C,REF\u002A\u002A*%
X139700000Y-91440000D03*
%TD*%
%TO.C,REF\u002A\u002A*%
X137160000Y-91440000D03*
%TD*%
%TO.C,REF\u002A\u002A*%
X134620000Y-91440000D03*
%TD*%
%TO.C,REF\u002A\u002A*%
X132080000Y-91440000D03*
%TD*%
%TO.C,REF\u002A\u002A*%
X129540000Y-91440000D03*
%TD*%
%TO.C,REF\u002A\u002A*%
X127000000Y-91440000D03*
%TD*%
%TO.C,REF\u002A\u002A*%
X124460000Y-91440000D03*
%TD*%
%TO.C,REF\u002A\u002A*%
X121920000Y-91440000D03*
%TD*%
%TO.C,REF\u002A\u002A*%
X119380000Y-91440000D03*
%TD*%
%TO.C,REF\u002A\u002A*%
X116840000Y-91440000D03*
%TD*%
%TO.C,REF\u002A\u002A*%
X114300000Y-91440000D03*
%TD*%
%TO.C,REF\u002A\u002A*%
X152400000Y-88900000D03*
%TD*%
%TO.C,REF\u002A\u002A*%
X149860000Y-88900000D03*
%TD*%
%TO.C,REF\u002A\u002A*%
X147320000Y-88900000D03*
%TD*%
%TO.C,REF\u002A\u002A*%
X144780000Y-88900000D03*
%TD*%
%TO.C,REF\u002A\u002A*%
X142240000Y-88900000D03*
%TD*%
%TO.C,REF\u002A\u002A*%
X139700000Y-88900000D03*
%TD*%
%TO.C,REF\u002A\u002A*%
X137160000Y-88900000D03*
%TD*%
%TO.C,REF\u002A\u002A*%
X134620000Y-88900000D03*
%TD*%
%TO.C,REF\u002A\u002A*%
X132080000Y-88900000D03*
%TD*%
%TO.C,REF\u002A\u002A*%
X129540000Y-88900000D03*
%TD*%
%TO.C,REF\u002A\u002A*%
X127000000Y-88900000D03*
%TD*%
%TO.C,REF\u002A\u002A*%
X124460000Y-88900000D03*
%TD*%
%TO.C,REF\u002A\u002A*%
X121920000Y-88900000D03*
%TD*%
%TO.C,REF\u002A\u002A*%
X119380000Y-88900000D03*
%TD*%
%TO.C,REF\u002A\u002A*%
X116840000Y-88900000D03*
%TD*%
%TO.C,REF\u002A\u002A*%
X114300000Y-88900000D03*
%TD*%
%TO.C,REF\u002A\u002A*%
X152400000Y-86360000D03*
%TD*%
%TO.C,REF\u002A\u002A*%
X149860000Y-86360000D03*
%TD*%
%TO.C,REF\u002A\u002A*%
X147320000Y-86360000D03*
%TD*%
%TO.C,REF\u002A\u002A*%
X144780000Y-86360000D03*
%TD*%
%TO.C,REF\u002A\u002A*%
X142240000Y-86360000D03*
%TD*%
%TO.C,REF\u002A\u002A*%
X139700000Y-86360000D03*
%TD*%
%TO.C,REF\u002A\u002A*%
X137160000Y-86360000D03*
%TD*%
%TO.C,REF\u002A\u002A*%
X134620000Y-86360000D03*
%TD*%
%TO.C,REF\u002A\u002A*%
X132080000Y-86360000D03*
%TD*%
%TO.C,REF\u002A\u002A*%
X129540000Y-86360000D03*
%TD*%
%TO.C,REF\u002A\u002A*%
X127000000Y-86360000D03*
%TD*%
%TO.C,REF\u002A\u002A*%
X124460000Y-86360000D03*
%TD*%
%TO.C,REF\u002A\u002A*%
X121920000Y-86360000D03*
%TD*%
%TO.C,REF\u002A\u002A*%
X119380000Y-86360000D03*
%TD*%
%TO.C,REF\u002A\u002A*%
X116840000Y-86360000D03*
%TD*%
%TO.C,REF\u002A\u002A*%
X104140000Y-76200000D03*
%TD*%
%TO.C,REF\u002A\u002A*%
X124460000Y-116840000D03*
%TD*%
%TO.C,REF\u002A\u002A*%
X121920000Y-116840000D03*
%TD*%
%TO.C,REF\u002A\u002A*%
X119380000Y-116840000D03*
%TD*%
%TO.C,REF\u002A\u002A*%
X116840000Y-116840000D03*
%TD*%
%TO.C,REF\u002A\u002A*%
X114300000Y-116840000D03*
%TD*%
%TO.C,REF\u002A\u002A*%
X132080000Y-114300000D03*
%TD*%
%TO.C,REF\u002A\u002A*%
X129540000Y-114300000D03*
%TD*%
%TO.C,REF\u002A\u002A*%
X127000000Y-114300000D03*
%TD*%
%TO.C,REF\u002A\u002A*%
X124460000Y-114300000D03*
%TD*%
%TO.C,REF\u002A\u002A*%
X121920000Y-114300000D03*
%TD*%
%TO.C,REF\u002A\u002A*%
X119380000Y-114300000D03*
%TD*%
%TO.C,REF\u002A\u002A*%
X116840000Y-114300000D03*
%TD*%
%TO.C,REF\u002A\u002A*%
X114300000Y-114300000D03*
%TD*%
%TO.C,REF\u002A\u002A*%
X132080000Y-111760000D03*
%TD*%
%TO.C,REF\u002A\u002A*%
X129540000Y-111760000D03*
%TD*%
%TO.C,REF\u002A\u002A*%
X127000000Y-111760000D03*
%TD*%
%TO.C,REF\u002A\u002A*%
X124460000Y-111760000D03*
%TD*%
%TO.C,REF\u002A\u002A*%
X121920000Y-111760000D03*
%TD*%
%TO.C,REF\u002A\u002A*%
X119380000Y-111760000D03*
%TD*%
%TO.C,REF\u002A\u002A*%
X116840000Y-111760000D03*
%TD*%
%TO.C,REF\u002A\u002A*%
X114300000Y-111760000D03*
%TD*%
%TO.C,REF\u002A\u002A*%
X132080000Y-109220000D03*
%TD*%
%TO.C,REF\u002A\u002A*%
X129540000Y-109220000D03*
%TD*%
%TO.C,REF\u002A\u002A*%
X127000000Y-109220000D03*
%TD*%
%TO.C,REF\u002A\u002A*%
X124460000Y-109220000D03*
%TD*%
%TO.C,REF\u002A\u002A*%
X121920000Y-109220000D03*
%TD*%
%TO.C,REF\u002A\u002A*%
X119380000Y-109220000D03*
%TD*%
%TO.C,REF\u002A\u002A*%
X116840000Y-109220000D03*
%TD*%
%TO.C,REF\u002A\u002A*%
X124460000Y-119380000D03*
%TD*%
%TO.C,REF\u002A\u002A*%
X121920000Y-119380000D03*
%TD*%
%TO.C,REF\u002A\u002A*%
X119380000Y-119380000D03*
%TD*%
%TO.C,REF\u002A\u002A*%
X116840000Y-119380000D03*
%TD*%
%TO.C,REF\u002A\u002A*%
X114300000Y-119380000D03*
%TD*%
%TO.C,REF\u002A\u002A*%
X106680000Y-81280000D03*
%TD*%
%TO.C,REF\u002A\u002A*%
X109220000Y-124460000D03*
%TD*%
%TO.C,REF\u002A\u002A*%
X109220000Y-81280000D03*
%TD*%
%TO.C,REF\u002A\u002A*%
X109220000Y-121920000D03*
%TD*%
%TO.C,REF\u002A\u002A*%
X111760000Y-119380000D03*
%TD*%
%TO.C,REF\u002A\u002A*%
X109220000Y-119380000D03*
%TD*%
%TO.C,REF\u002A\u002A*%
X111760000Y-116840000D03*
%TD*%
%TO.C,REF\u002A\u002A*%
X109220000Y-116840000D03*
%TD*%
%TO.C,REF\u002A\u002A*%
X111760000Y-114300000D03*
%TD*%
%TO.C,REF\u002A\u002A*%
X109220000Y-114300000D03*
%TD*%
%TO.C,REF\u002A\u002A*%
X111760000Y-111760000D03*
%TD*%
%TO.C,REF\u002A\u002A*%
X109220000Y-111760000D03*
%TD*%
%TO.C,REF\u002A\u002A*%
X111760000Y-109220000D03*
%TD*%
%TO.C,REF\u002A\u002A*%
X109220000Y-109220000D03*
%TD*%
%TO.C,REF\u002A\u002A*%
X111760000Y-106680000D03*
%TD*%
%TO.C,REF\u002A\u002A*%
X109220000Y-106680000D03*
%TD*%
%TO.C,REF\u002A\u002A*%
X111760000Y-104140000D03*
%TD*%
%TO.C,REF\u002A\u002A*%
X109220000Y-104140000D03*
%TD*%
%TO.C,REF\u002A\u002A*%
X111760000Y-101600000D03*
%TD*%
%TO.C,REF\u002A\u002A*%
X109220000Y-101600000D03*
%TD*%
%TO.C,REF\u002A\u002A*%
X111760000Y-99060000D03*
%TD*%
%TO.C,REF\u002A\u002A*%
X109220000Y-99060000D03*
%TD*%
%TO.C,REF\u002A\u002A*%
X111760000Y-96520000D03*
%TD*%
%TO.C,REF\u002A\u002A*%
X109220000Y-96520000D03*
%TD*%
%TO.C,REF\u002A\u002A*%
X111760000Y-93980000D03*
%TD*%
%TO.C,REF\u002A\u002A*%
X109220000Y-93980000D03*
%TD*%
%TO.C,REF\u002A\u002A*%
X111760000Y-91440000D03*
%TD*%
%TO.C,REF\u002A\u002A*%
X109220000Y-91440000D03*
%TD*%
%TO.C,REF\u002A\u002A*%
X111760000Y-88900000D03*
%TD*%
%TO.C,REF\u002A\u002A*%
X109220000Y-88900000D03*
%TD*%
%TO.C,REF\u002A\u002A*%
X114300000Y-86360000D03*
%TD*%
%TO.C,REF\u002A\u002A*%
X109220000Y-86360000D03*
%TD*%
%TO.C,REF\u002A\u002A*%
X114300000Y-109220000D03*
%TD*%
%TO.C,REF\u002A\u002A*%
X106680000Y-124460000D03*
%TD*%
%TO.C,REF\u002A\u002A*%
X104140000Y-124460000D03*
%TD*%
%TO.C,REF\u002A\u002A*%
X106680000Y-121920000D03*
%TD*%
%TO.C,REF\u002A\u002A*%
X104140000Y-121920000D03*
%TD*%
%TO.C,REF\u002A\u002A*%
X106680000Y-119380000D03*
%TD*%
%TO.C,REF\u002A\u002A*%
X106680000Y-116840000D03*
%TD*%
%TO.C,REF\u002A\u002A*%
X104140000Y-116840000D03*
%TD*%
%TO.C,REF\u002A\u002A*%
X106680000Y-114300000D03*
%TD*%
%TO.C,REF\u002A\u002A*%
X104140000Y-114300000D03*
%TD*%
%TO.C,REF\u002A\u002A*%
X106680000Y-111760000D03*
%TD*%
%TO.C,REF\u002A\u002A*%
X104140000Y-111760000D03*
%TD*%
%TO.C,REF\u002A\u002A*%
X106680000Y-109220000D03*
%TD*%
%TO.C,REF\u002A\u002A*%
X104140000Y-109220000D03*
%TD*%
%TO.C,REF\u002A\u002A*%
X106680000Y-106680000D03*
%TD*%
%TO.C,REF\u002A\u002A*%
X104140000Y-106680000D03*
%TD*%
%TO.C,REF\u002A\u002A*%
X106680000Y-104140000D03*
%TD*%
%TO.C,REF\u002A\u002A*%
X104140000Y-104140000D03*
%TD*%
%TO.C,REF\u002A\u002A*%
X106680000Y-101600000D03*
%TD*%
%TO.C,REF\u002A\u002A*%
X104140000Y-101600000D03*
%TD*%
%TO.C,REF\u002A\u002A*%
X106680000Y-99060000D03*
%TD*%
%TO.C,REF\u002A\u002A*%
X104140000Y-99060000D03*
%TD*%
%TO.C,REF\u002A\u002A*%
X106680000Y-96520000D03*
%TD*%
%TO.C,REF\u002A\u002A*%
X104140000Y-96520000D03*
%TD*%
%TO.C,REF\u002A\u002A*%
X106680000Y-93980000D03*
%TD*%
%TO.C,REF\u002A\u002A*%
X104140000Y-93980000D03*
%TD*%
%TO.C,REF\u002A\u002A*%
X106680000Y-91440000D03*
%TD*%
%TO.C,REF\u002A\u002A*%
X104140000Y-91440000D03*
%TD*%
%TO.C,REF\u002A\u002A*%
X106680000Y-88900000D03*
%TD*%
%TO.C,REF\u002A\u002A*%
X104140000Y-88900000D03*
%TD*%
%TO.C,REF\u002A\u002A*%
X106680000Y-86360000D03*
%TD*%
%TO.C,REF\u002A\u002A*%
X104140000Y-86360000D03*
%TD*%
%TO.C,REF\u002A\u002A*%
X106680000Y-83820000D03*
%TD*%
%TO.C,REF\u002A\u002A*%
X104140000Y-119380000D03*
%TD*%
%TO.C,REF\u002A\u002A*%
X109220000Y-83820000D03*
%TD*%
%TO.C,REF\u002A\u002A*%
X104140000Y-83820000D03*
%TD*%
%TO.C,REF\u002A\u002A*%
X167640000Y-114300000D03*
%TD*%
%TO.C,REF\u002A\u002A*%
X134620000Y-109220000D03*
%TD*%
%TO.C,REF\u002A\u002A*%
X104140000Y-81280000D03*
%TD*%
%TO.C,REF\u002A\u002A*%
X111760000Y-86360000D03*
%TD*%
D13*
%TO.C,REF\u002A\u002A*%
X116840000Y-76200000D03*
%TD*%
%TO.C,REF\u002A\u002A*%
X167640000Y-91440000D03*
%TD*%
%TO.C,REF\u002A\u002A*%
X167640000Y-119380000D03*
%TD*%
%TO.C,REF\u002A\u002A*%
X115570000Y-124460000D03*
%TD*%
D10*
%TO.C,J3*%
X132080000Y-119380000D03*
%TD*%
%TO.C,J4*%
X134620000Y-119380000D03*
%TD*%
%TO.C,J5*%
X137160000Y-119380000D03*
%TD*%
%TO.C,J6*%
X139700000Y-119380000D03*
%TD*%
%TO.C,J7*%
X142240000Y-119380000D03*
%TD*%
%TO.C,J8*%
X144780000Y-119380000D03*
%TD*%
%TO.C,J9*%
X147320000Y-119380000D03*
%TD*%
%TO.C,J10*%
X149860000Y-119380000D03*
%TD*%
%TO.C,J11*%
X152400000Y-119380000D03*
%TD*%
%TO.C,J12*%
X154940000Y-119380000D03*
%TD*%
%TO.C,J13*%
X157480000Y-119380000D03*
%TD*%
%TO.C,J14*%
X160020000Y-119380000D03*
%TD*%
%TO.C,J15*%
X162560000Y-119380000D03*
%TD*%
%TO.C,J16*%
X121920000Y-81280000D03*
%TD*%
%TO.C,J17*%
X124460000Y-81280000D03*
%TD*%
%TO.C,J18*%
X127000000Y-81280000D03*
%TD*%
%TO.C,J19*%
X129540000Y-81280000D03*
%TD*%
%TO.C,J20*%
X132080000Y-81280000D03*
%TD*%
%TO.C,J21*%
X134620000Y-81280000D03*
%TD*%
%TO.C,J22*%
X137160000Y-81280000D03*
%TD*%
%TO.C,J23*%
X139700000Y-81280000D03*
%TD*%
%TO.C,J24*%
X142240000Y-81280000D03*
%TD*%
%TO.C,J25*%
X144780000Y-81280000D03*
%TD*%
%TO.C,J26*%
X147320000Y-81280000D03*
%TD*%
%TO.C,J27*%
X149860000Y-81280000D03*
%TD*%
%TO.C,J28*%
X152400000Y-81280000D03*
%TD*%
%TO.C,J29*%
X154940000Y-81280000D03*
%TD*%
%TO.C,J30*%
X157480000Y-81280000D03*
%TD*%
%TO.C,J31*%
X160020000Y-81280000D03*
%TD*%
%TO.C,J32*%
X162560000Y-81280000D03*
%TD*%
%TO.C,J33*%
X165100000Y-81280000D03*
%TD*%
M02*
